<?xml version="1.0" encoding="utf-8"?>
<!-- Generator: Adobe Illustrator 15.1.0, SVG Export Plug-In . SVG Version: 6.00 Build 0)  -->
<!DOCTYPE svg PUBLIC "-//W3C//DTD SVG 1.1//EN" "http://www.w3.org/Graphics/SVG/1.1/DTD/svg11.dtd" [
	<!ENTITY ns_extend "http://ns.adobe.com/Extensibility/1.0/">
	<!ENTITY ns_ai "http://ns.adobe.com/AdobeIllustrator/10.0/">
	<!ENTITY ns_graphs "http://ns.adobe.com/Graphs/1.0/">
	<!ENTITY ns_vars "http://ns.adobe.com/Variables/1.0/">
	<!ENTITY ns_imrep "http://ns.adobe.com/ImageReplacement/1.0/">
	<!ENTITY ns_sfw "http://ns.adobe.com/SaveForWeb/1.0/">
	<!ENTITY ns_custom "http://ns.adobe.com/GenericCustomNamespace/1.0/">
	<!ENTITY ns_adobe_xpath "http://ns.adobe.com/XPath/1.0/">
]>
<svg version="1.1" id="Camada_1" xmlns:x="&ns_extend;" xmlns:i="&ns_ai;" xmlns:graph="&ns_graphs;"
	 xmlns="http://www.w3.org/2000/svg" xmlns:xlink="http://www.w3.org/1999/xlink" x="0px" y="0px" width="40px" height="40px"
	 viewBox="0 0 40 40" enable-background="new 0 0 40 40" xml:space="preserve">
<metadata>
	<sfw  xmlns="&ns_sfw;">
		<slices></slices>
		<sliceSourceBounds  height="37.584" width="34.792" y="-38.084" x="2.861" bottomLeftOrigin="true"></sliceSourceBounds>
	</sfw>
</metadata>
<rect x="16.412" y="14.384" fill="#EAEAEA" stroke="#020202" stroke-width="0.5" stroke-miterlimit="10" width="2.3" height="1.9"/>
<rect x="16.412" y="18.185" fill="#EAEAEA" stroke="#020202" stroke-width="0.5" stroke-miterlimit="10" width="2.3" height="1.899"/>
<path fill="#EAEAEA" d="M23.19,37.584l0.012-26.397c-0.1,0-0.1,0-0.198,0c0.1,0,0.1,0,0.198,0V9.164c0-0.097-0.1-0.193-0.1-0.289
	c0,0.096,0.1,0.192,0.1,0.289V9.067V4.731c0-1.252-0.997-2.215-2.294-2.215H5.154c-1.296,0-2.293,0.964-2.293,2.215V19.52v-1.589
	c0,0.716,0,1.327,0,1.906c0,0.095,0,0.25,0,0.347v1.64V34.95c0,0.288,0-21.903,0,1.129v1.505H23.19
	C23.05,37.584,23.19,37.584,23.19,37.584L23.19,37.584z M20.96,35.248H14.18v-6.551h-2.293v6.551h-6.78V4.611H20.96V35.248
	L20.96,35.248z"/>
<g>
	<rect x="7.412" y="10.584" fill="#EAEAEA" width="2.3" height="1.9"/>
	<rect x="11.912" y="25.377" fill="#EAEAEA" width="2.3" height="1.899"/>
	<rect x="11.912" y="14.384" fill="#EAEAEA" width="2.3" height="1.9"/>
	<rect x="11.912" y="21.984" fill="#EAEAEA" width="2.3" height="1.899"/>
	<rect x="11.912" y="18.185" fill="#EAEAEA" width="2.3" height="1.899"/>
	<rect x="7.412" y="25.377" fill="#EAEAEA" width="2.3" height="1.899"/>
	<rect x="7.412" y="14.384" fill="#EAEAEA" width="2.3" height="1.9"/>
	<rect x="11.912" y="10.584" fill="#EAEAEA" width="2.3" height="1.9"/>
	<rect x="7.412" y="29.294" fill="#EAEAEA" width="2.3" height="1.899"/>
	<rect x="7.412" y="21.984" fill="#EAEAEA" width="2.3" height="1.899"/>
	<rect x="7.412" y="18.185" fill="#EAEAEA" width="2.3" height="1.899"/>
	<rect x="16.412" y="10.584" fill="#EAEAEA" width="2.3" height="1.9"/>
	<rect x="16.412" y="21.984" fill="#EAEAEA" width="2.3" height="1.899"/>
	<rect x="16.412" y="25.377" fill="#EAEAEA" width="2.3" height="1.899"/>
	<rect x="16.412" y="29.294" fill="#EAEAEA" width="2.3" height="1.899"/>
	<rect x="7.412" y="6.784" fill="#EAEAEA" width="2.3" height="1.9"/>
	<rect x="11.912" y="6.784" fill="#EAEAEA" width="2.3" height="1.9"/>
	<rect x="16.412" y="6.784" fill="#EAEAEA" width="2.3" height="1.9"/>
</g>
<g id="miu">
	<g id="Artboard-1" transform="translate(-251.000000, -335.000000)">
		<g id="slice" transform="translate(215.000000, 119.000000)">
		</g>
		<path id="common-email-envelope-mail-glyph" fill="#44CCFF" stroke="#0092D3" stroke-miterlimit="10" d="M277.346,358.468h-11.687
			l0,0l4.162-4.163l1.68,1.285l1.68-1.287L277.346,358.468z M277.746,358.067v-7.258l0,0l-4.109,3.146L277.746,358.067z
			 M265.254,358.067v-7.258l4.111,3.146L265.254,358.067L265.254,358.067z M277.746,350.096v-0.712h-12.492v0.712l6.247,4.791
			L277.746,350.096z"/>
	</g>
</g>
<path fill="#FDF500" stroke="#000000" stroke-miterlimit="10" d="M29.044,27.497c-0.239,0-3.362,0-3.362,0s-0.841,0-0.841,0.841
	V31.7c0,0.96,0.841,0.841,0.841,0.841v5.043h3.362v-5.043c0,0,0.84,0.119,0.84-0.841c0-0.961,0-3.362,0-3.362
	S29.884,27.497,29.044,27.497z"/>
<circle fill="#8E8E8E" stroke="#000000" stroke-width="0.5" stroke-miterlimit="10" cx="27.362" cy="25.396" r="1.261"/>
<line fill="#FDF500" stroke="#070707" stroke-miterlimit="10" x1="8" y1="16.5" x2="14" y2="16.5"/>
<line fill="#FDF500" stroke="#070707" stroke-miterlimit="10" x1="9" y1="19.5" x2="14" y2="19.5"/>
<line fill="#FDF500" stroke="#070707" stroke-miterlimit="10" x1="11" y1="22.5" x2="14" y2="22.5"/>
<g>
	<linearGradient id="SVGID_1_" gradientUnits="userSpaceOnUse" x1="22.1904" y1="7.4131" x2="37.5" y2="7.4131">
		<stop  offset="0" style="stop-color:#04D317"/>
		<stop  offset="0.1917" style="stop-color:#07D41A"/>
		<stop  offset="0.3494" style="stop-color:#11D722"/>
		<stop  offset="0.4952" style="stop-color:#23DB30"/>
		<stop  offset="0.6337" style="stop-color:#3BE243"/>
		<stop  offset="0.7671" style="stop-color:#5AEB5C"/>
		<stop  offset="0.8949" style="stop-color:#80F57A"/>
		<stop  offset="1" style="stop-color:#A5FF98"/>
	</linearGradient>
	<path fill="url(#SVGID_1_)" stroke="#19A52E" stroke-width="0.25" stroke-miterlimit="10" d="M29.845,4.012
		c1.03,0,2.024,0.301,2.804,0.853c1.106,0.782,2.066,1.806,2.692,2.549c-0.626,0.742-1.586,1.766-2.692,2.548
		c-0.779,0.551-1.773,0.854-2.804,0.854c-1.028,0-2.024-0.302-2.807-0.854c-1.106-0.782-2.067-1.806-2.689-2.548
		c0.622-0.743,1.583-1.767,2.689-2.549C27.82,4.313,28.816,4.012,29.845,4.012 M29.845,2.31c-1.439,0-2.759,0.439-3.788,1.166
		C23.83,5.051,22.19,7.414,22.19,7.414s1.64,2.363,3.866,3.937c1.029,0.727,2.349,1.166,3.788,1.166
		c1.438,0,2.759-0.439,3.785-1.166c2.226-1.573,3.87-3.937,3.87-3.937s-1.645-2.363-3.87-3.938
		C32.604,2.749,31.282,2.31,29.845,2.31z"/>
</g>
<g>
	<path fill="#03E223" d="M29.723,6.496c-0.462,0-0.839,0.374-0.839,0.837c0,0.46,0.377,0.834,0.839,0.834
		c0.463,0,0.838-0.374,0.838-0.834C30.561,6.869,30.186,6.496,29.723,6.496z"/>
</g>
<g>
	<path fill="#03E223" d="M29.723,9.845c-1.385,0-2.51-1.128-2.51-2.512c0-1.386,1.125-2.512,2.51-2.512
		c1.386,0,2.513,1.126,2.513,2.512C32.235,8.717,31.108,9.845,29.723,9.845z M29.723,5.659c-0.922,0-1.673,0.749-1.673,1.674
		c0,0.923,0.751,1.675,1.673,1.675s1.674-0.751,1.674-1.675C31.396,6.407,30.645,5.659,29.723,5.659z"/>
</g>
<line fill="none" x1="30.846" y1="0.5" x2="30.846" y2="2.875"/>
</svg>
