<?xml version="1.0" encoding="utf-8"?>
<!-- Generator: Adobe Illustrator 15.1.0, SVG Export Plug-In . SVG Version: 6.00 Build 0)  -->
<!DOCTYPE svg PUBLIC "-//W3C//DTD SVG 1.1//EN" "http://www.w3.org/Graphics/SVG/1.1/DTD/svg11.dtd" [
	<!ENTITY ns_extend "http://ns.adobe.com/Extensibility/1.0/">
	<!ENTITY ns_ai "http://ns.adobe.com/AdobeIllustrator/10.0/">
	<!ENTITY ns_graphs "http://ns.adobe.com/Graphs/1.0/">
	<!ENTITY ns_vars "http://ns.adobe.com/Variables/1.0/">
	<!ENTITY ns_imrep "http://ns.adobe.com/ImageReplacement/1.0/">
	<!ENTITY ns_sfw "http://ns.adobe.com/SaveForWeb/1.0/">
	<!ENTITY ns_custom "http://ns.adobe.com/GenericCustomNamespace/1.0/">
	<!ENTITY ns_adobe_xpath "http://ns.adobe.com/XPath/1.0/">
]>
<svg version="1.1" id="Camada_1" xmlns:x="&ns_extend;" xmlns:i="&ns_ai;" xmlns:graph="&ns_graphs;"
	 xmlns="http://www.w3.org/2000/svg" xmlns:xlink="http://www.w3.org/1999/xlink" x="0px" y="0px" width="40px" height="40px"
	 viewBox="0 0 40 40" enable-background="new 0 0 40 40" xml:space="preserve">
<metadata>
	<sfw  xmlns="&ns_sfw;">
		<slices></slices>
		<sliceSourceBounds  height="37.584" width="27.985" y="-38.084" x="2.861" bottomLeftOrigin="true"></sliceSourceBounds>
	</sfw>
</metadata>
<rect x="16.412" y="14.384" fill="#EAEAEA" stroke="#020202" stroke-width="0.5" stroke-miterlimit="10" width="2.3" height="1.9"/>
<rect x="16.412" y="18.185" fill="#EAEAEA" stroke="#020202" stroke-width="0.5" stroke-miterlimit="10" width="2.3" height="1.899"/>
<path fill="#EAEAEA" d="M23.19,37.584l0.012-26.397c-0.1,0-0.1,0-0.198,0c0.1,0,0.1,0,0.198,0V9.164c0-0.097-0.1-0.193-0.1-0.289
	c0,0.096,0.1,0.192,0.1,0.289V9.067V4.731c0-1.252-0.997-2.215-2.294-2.215H5.154c-1.296,0-2.293,0.964-2.293,2.215V19.52v-1.589
	c0,0.716,0,1.327,0,1.906c0,0.095,0,0.25,0,0.347v1.64V34.95c0,0.288,0-21.903,0,1.129v1.505H23.19
	C23.05,37.584,23.19,37.584,23.19,37.584L23.19,37.584z M20.96,35.248H14.18v-6.551h-2.293v6.551h-6.78V4.611H20.96V35.248
	L20.96,35.248z"/>
<g>
	<rect x="7.412" y="10.584" fill="#EAEAEA" width="2.3" height="1.9"/>
	<rect x="11.912" y="25.377" fill="#EAEAEA" width="2.3" height="1.899"/>
	<rect x="11.912" y="14.384" fill="#EAEAEA" width="2.3" height="1.9"/>
	<rect x="11.912" y="21.984" fill="#EAEAEA" width="2.3" height="1.899"/>
	<rect x="11.912" y="18.185" fill="#EAEAEA" width="2.3" height="1.899"/>
	<rect x="7.412" y="25.377" fill="#EAEAEA" width="2.3" height="1.899"/>
	<rect x="7.412" y="14.384" fill="#EAEAEA" width="2.3" height="1.9"/>
	<rect x="11.912" y="10.584" fill="#EAEAEA" width="2.3" height="1.9"/>
	<rect x="7.412" y="29.294" fill="#EAEAEA" width="2.3" height="1.899"/>
	<rect x="7.412" y="21.984" fill="#EAEAEA" width="2.3" height="1.899"/>
	<rect x="7.412" y="18.185" fill="#EAEAEA" width="2.3" height="1.899"/>
	<rect x="16.412" y="10.584" fill="#EAEAEA" width="2.3" height="1.9"/>
	<rect x="16.412" y="21.984" fill="#EAEAEA" width="2.3" height="1.899"/>
	<rect x="16.412" y="25.377" fill="#EAEAEA" width="2.3" height="1.899"/>
	<rect x="16.412" y="29.294" fill="#EAEAEA" width="2.3" height="1.899"/>
	<rect x="7.412" y="6.784" fill="#EAEAEA" width="2.3" height="1.9"/>
	<rect x="11.912" y="6.784" fill="#EAEAEA" width="2.3" height="1.9"/>
	<rect x="16.412" y="6.784" fill="#EAEAEA" width="2.3" height="1.9"/>
</g>
<g id="miu">
	<g id="Artboard-1" transform="translate(-251.000000, -335.000000)">
		<g id="slice" transform="translate(215.000000, 119.000000)">
		</g>
		<path id="common-email-envelope-mail-glyph" fill="#44CCFF" stroke="#0092D3" stroke-miterlimit="10" d="M277.346,358.468h-11.687
			l0,0l4.162-4.163l1.68,1.285l1.68-1.287L277.346,358.468z M277.746,358.067v-7.258l0,0l-4.109,3.146L277.746,358.067z
			 M265.254,358.067v-7.258l4.111,3.146L265.254,358.067L265.254,358.067z M277.746,350.096v-0.712h-12.492v0.712l6.247,4.791
			L277.746,350.096z"/>
	</g>
</g>
<path fill="#FDF500" stroke="#000000" stroke-miterlimit="10" d="M29.044,27.497c-0.239,0-3.362,0-3.362,0s-0.841,0-0.841,0.841
	V31.7c0,0.96,0.841,0.841,0.841,0.841v5.043h3.362v-5.043c0,0,0.84,0.119,0.84-0.841c0-0.961,0-3.362,0-3.362
	S29.884,27.497,29.044,27.497z"/>
<circle fill="#8E8E8E" stroke="#000000" stroke-width="0.5" stroke-miterlimit="10" cx="27.362" cy="25.396" r="1.261"/>
<line fill="none" x1="30.846" y1="0.5" x2="30.846" y2="2.875"/>
<line fill="#FDF500" stroke="#070707" stroke-miterlimit="10" x1="8" y1="16.5" x2="14" y2="16.5"/>
<line fill="#FDF500" stroke="#070707" stroke-miterlimit="10" x1="9" y1="19.5" x2="14" y2="19.5"/>
<line fill="#FDF500" stroke="#070707" stroke-miterlimit="10" x1="11" y1="22.5" x2="14" y2="22.5"/>
</svg>
