<?xml version="1.0" encoding="UTF-8"?>
<!DOCTYPE svg PUBLIC "-//W3C//DTD SVG 1.1//EN" "http://www.w3.org/Graphics/SVG/1.1/DTD/svg11.dtd">
<!-- Creator: CorelDRAW (Versão de avaliação) -->
<svg xmlns="http://www.w3.org/2000/svg" xml:space="preserve" width="5.9266mm" height="5.9266mm" version="1.1" shape-rendering="geometricPrecision" text-rendering="geometricPrecision" image-rendering="optimizeQuality" fill-rule="evenodd" clip-rule="evenodd"
viewBox="0 0 592.66 592.66"
 xmlns:xlink="http://www.w3.org/1999/xlink"
 xmlns:xodm="http://www.corel.com/coreldraw/odm/2003">
 <g id="Camada_x0020_1">
  <metadata id="CorelCorpID_0Corel-Layer"/>
  <g id="_105553379082176">
   <path fill="#96989B" d="M290.67 48.97c-20.8,2.75 -28.28,14.42 -36.5,29.08 -54.44,97.05 -114.31,195.25 -169.21,292.75 -15.81,28.07 -31.87,55.13 -47.93,83.12 -8.71,15.17 -19.96,30.21 -20.1,45.91 -0.16,19.51 12.34,34.47 25.84,40.19 14.04,5.94 44.72,3.67 62.19,3.67 131.68,0 263.36,0 395.04,0 20,0 43.52,2.79 57.67,-8.18 11.08,-8.59 22.33,-25.5 16.44,-46.62 -2.15,-7.7 -7.29,-15.66 -10.86,-21.67l-60.58 -104.91c-32.76,-55.8 -64.17,-110.84 -96.33,-166.72 -16.21,-28.16 -32.33,-55.15 -48.36,-83.64 -7.77,-13.8 -15.75,-28.17 -24.2,-41.82 -7.47,-12.05 -21.61,-24 -43.11,-21.16z"/>
   <g>
    <path fill="white" d="M255.35 186.03c-11.16,3.55 -10.05,12.47 -9.32,25.35 0.66,11.24 1.25,22.6 1.87,33.85 1.25,22.91 2.49,45.85 3.76,68.82 0.62,11.25 1.25,22.47 1.85,33.79 1.56,29.51 8.84,23.66 48.41,23.66 42.18,0 35.52,5.65 39.54,-67.64 1.27,-23.17 5.61,-82.17 5.61,-102.65 0,-13.18 -7.37,-15.97 -20.33,-15.91 -11.38,0.06 -65.17,-1.23 -71.39,0.73z"/>
    <path fill="white" d="M285.39 393.82c-71.25,16.21 -45.76,119.29 22.74,104.47 25.17,-5.47 47.58,-31.89 40.31,-64.04 -5.73,-25.25 -31.02,-47.72 -63.05,-40.43z"/>
   </g>
  </g>
 </g>
</svg>
