<?xml version="1.0" encoding="UTF-8"?>
<svg xmlns="http://www.w3.org/2000/svg" xmlns:xlink="http://www.w3.org/1999/xlink" width="76px" height="80px" viewBox="0 0 76 80" version="1.1">
<g id="surface1">
<path style=" stroke:none;fill-rule:nonzero;fill:rgb(41.568628%,72.156864%,67.450982%);fill-opacity:1;" d="M 3.707031 7.875 L 3.707031 71.785156 L 25.085938 71.785156 L 25.085938 59.359375 L 32.214844 59.359375 L 32.214844 71.785156 L 53.59375 71.785156 L 53.59375 7.875 Z M 10.832031 14.976562 L 17.960938 14.976562 L 17.960938 22.078125 L 10.832031 22.078125 Z M 25.085938 14.976562 L 32.214844 14.976562 L 32.214844 22.078125 L 25.085938 22.078125 Z M 39.339844 14.976562 L 46.46875 14.976562 L 46.46875 22.078125 L 39.339844 22.078125 Z M 10.832031 29.175781 L 17.960938 29.175781 L 17.960938 36.277344 L 10.832031 36.277344 Z M 25.085938 29.175781 L 32.214844 29.175781 L 32.214844 36.277344 L 25.085938 36.277344 Z M 39.339844 29.175781 L 46.46875 29.175781 L 46.46875 36.277344 L 39.339844 36.277344 Z M 10.832031 43.382812 L 17.960938 43.382812 L 17.960938 50.484375 L 10.832031 50.484375 Z M 25.085938 43.382812 L 32.214844 43.382812 L 32.214844 50.484375 L 25.085938 50.484375 Z M 39.339844 43.382812 L 46.46875 43.382812 L 46.46875 50.484375 L 39.339844 50.484375 Z M 10.832031 57.582031 L 17.960938 57.582031 L 17.960938 64.683594 L 10.832031 64.683594 Z M 39.339844 57.582031 L 46.46875 57.582031 L 46.46875 64.683594 L 39.339844 64.683594 Z M 39.339844 57.582031 "/>
<path style=" stroke:none;fill-rule:nonzero;fill:rgb(11.372549%,27.450982%,36.862746%);fill-opacity:1;" d="M 65.925781 40.753906 C 67.90625 40.753906 69.511719 42.160156 69.511719 43.894531 C 69.511719 45.628906 67.90625 47.035156 65.925781 47.035156 C 63.949219 47.035156 62.34375 45.628906 62.34375 43.894531 C 62.34375 42.160156 63.949219 40.753906 65.925781 40.753906 Z M 63.242188 48.609375 L 68.617188 48.609375 C 70.59375 48.605469 72.199219 50.011719 72.199219 51.75 L 72.199219 60.386719 L 69.511719 60.386719 L 69.511719 72.167969 L 62.34375 72.167969 L 62.34375 60.390625 L 59.65625 60.386719 L 59.65625 51.75 C 59.65625 50.011719 61.261719 48.605469 63.242188 48.605469 Z M 63.242188 48.609375 "/>
<path style=" stroke:none;fill-rule:evenodd;fill:rgb(0%,65.882355%,35.294119%);fill-opacity:1;" d="M 65.292969 16.261719 L 65.292969 16.296875 L 65.21875 16.296875 L 65.21875 16.261719 Z M 60.394531 16.261719 L 60.464844 16.261719 L 60.464844 16.296875 L 60.394531 16.296875 Z M 62.417969 12.339844 L 62.382812 12.339844 L 62.382812 12.445312 L 62.347656 12.445312 L 62.347656 12.515625 L 62.308594 12.515625 L 62.308594 12.585938 L 62.273438 12.585938 L 62.273438 12.65625 L 62.238281 12.65625 L 62.238281 12.726562 L 62.203125 12.726562 L 62.203125 12.761719 L 62.167969 12.761719 L 62.167969 12.832031 L 62.132812 12.832031 L 62.132812 12.867188 L 62.097656 12.867188 L 62.097656 12.902344 L 62.0625 12.902344 L 62.0625 12.9375 L 62.027344 12.9375 L 62.027344 12.976562 L 61.992188 12.976562 L 61.992188 13.011719 L 61.957031 13.011719 L 61.957031 13.046875 L 61.882812 13.046875 L 61.882812 13.082031 L 61.847656 13.082031 L 61.847656 13.117188 L 61.777344 13.117188 L 61.777344 13.152344 L 61.742188 13.152344 L 61.742188 13.1875 L 61.671875 13.1875 L 61.671875 13.222656 L 61.601562 13.222656 L 61.601562 13.257812 L 61.496094 13.257812 L 61.496094 13.292969 L 61.386719 13.292969 L 61.386719 13.328125 L 61.140625 13.328125 L 61.140625 13.363281 L 60.925781 13.363281 L 60.925781 13.328125 L 60.679688 13.328125 L 60.679688 13.292969 L 60.570312 13.292969 L 60.570312 13.257812 L 60.464844 13.257812 L 60.464844 13.222656 L 60.394531 13.222656 L 60.394531 13.1875 L 60.324219 13.1875 L 60.324219 13.152344 L 60.253906 13.152344 L 60.253906 13.117188 L 60.21875 13.117188 L 60.21875 13.082031 L 60.179688 13.082031 L 60.179688 13.046875 L 60.109375 13.046875 L 60.109375 13.011719 L 60.074219 13.011719 L 60.074219 12.976562 L 60.039062 12.976562 L 60.039062 12.9375 L 60.003906 12.9375 L 60.003906 12.902344 L 59.96875 12.902344 L 59.96875 12.867188 L 59.933594 12.867188 L 59.933594 12.832031 L 59.898438 12.832031 L 59.898438 12.761719 L 59.863281 12.761719 L 59.863281 12.726562 L 59.828125 12.726562 L 59.828125 12.65625 L 59.789062 12.65625 L 59.789062 12.621094 L 59.753906 12.621094 L 59.753906 12.550781 L 59.71875 12.550781 L 59.71875 12.445312 L 59.683594 12.445312 L 59.683594 12.375 L 59.648438 12.375 L 59.648438 12.230469 L 59.613281 12.230469 L 59.613281 11.632812 L 59.648438 11.632812 L 59.648438 11.488281 L 59.683594 11.488281 L 59.683594 11.382812 L 59.71875 11.382812 L 59.71875 11.3125 L 59.753906 11.3125 L 59.753906 11.242188 L 59.789062 11.242188 L 59.789062 11.171875 L 59.828125 11.171875 L 59.828125 11.136719 L 59.863281 11.136719 L 59.863281 11.066406 L 59.898438 11.066406 L 59.898438 11.03125 L 59.933594 11.03125 L 59.933594 10.996094 L 59.96875 10.996094 L 59.96875 10.960938 L 60.003906 10.960938 L 60.003906 10.925781 L 60.039062 10.925781 L 60.039062 10.886719 L 60.074219 10.886719 L 60.074219 10.851562 L 60.109375 10.851562 L 60.109375 10.816406 L 60.144531 10.816406 L 60.144531 10.78125 L 60.179688 10.78125 L 60.179688 10.746094 L 60.253906 10.746094 L 60.253906 10.710938 L 60.324219 10.710938 L 60.324219 10.675781 L 60.359375 10.675781 L 60.359375 10.640625 L 60.429688 10.640625 L 60.429688 10.605469 L 60.535156 10.605469 L 60.535156 10.570312 L 60.644531 10.570312 L 60.644531 10.535156 L 60.820312 10.535156 L 60.820312 10.5 L 61.246094 10.5 L 61.246094 10.535156 L 61.421875 10.535156 L 61.421875 10.570312 L 61.53125 10.570312 L 61.53125 10.605469 L 61.601562 10.605469 L 61.601562 10.640625 L 61.707031 10.640625 L 61.707031 10.675781 L 61.742188 10.675781 L 61.742188 10.710938 L 61.8125 10.710938 L 61.8125 10.746094 L 61.847656 10.746094 L 61.847656 10.78125 L 61.921875 10.78125 L 61.921875 10.816406 L 61.957031 10.816406 L 61.957031 10.851562 L 61.992188 10.851562 L 61.992188 10.886719 L 62.027344 10.886719 L 62.027344 10.925781 L 62.0625 10.925781 L 62.0625 10.960938 L 62.097656 10.960938 L 62.097656 10.996094 L 62.132812 10.996094 L 62.132812 11.03125 L 62.167969 11.03125 L 62.167969 11.066406 L 62.203125 11.066406 L 62.203125 11.136719 L 62.238281 11.136719 L 62.238281 11.171875 L 62.273438 11.171875 L 62.273438 11.242188 L 62.308594 11.242188 L 62.308594 11.3125 L 62.347656 11.3125 L 62.347656 11.382812 L 62.382812 11.382812 L 62.382812 11.488281 L 62.417969 11.488281 L 62.417969 11.632812 L 62.453125 11.632812 L 62.453125 12.195312 L 62.417969 12.195312 Z M 65.292969 16.261719 L 65.292969 16.226562 L 65.328125 16.226562 L 65.328125 16.191406 L 65.398438 16.191406 L 65.398438 16.15625 L 65.433594 16.15625 L 65.433594 16.121094 L 65.46875 16.121094 L 65.46875 16.085938 L 65.539062 16.085938 L 65.539062 16.050781 L 65.574219 16.050781 L 65.574219 16.015625 L 65.609375 16.015625 L 65.609375 15.980469 L 65.644531 15.980469 L 65.644531 15.945312 L 65.71875 15.945312 L 65.71875 15.910156 L 65.753906 15.910156 L 65.753906 15.875 L 65.789062 15.875 L 65.789062 15.839844 L 65.824219 15.839844 L 65.824219 15.804688 L 65.859375 15.804688 L 65.859375 15.769531 L 65.894531 15.769531 L 65.894531 15.734375 L 65.929688 15.734375 L 65.929688 15.699219 L 65.964844 15.699219 L 65.964844 15.660156 L 66 15.660156 L 66 15.625 L 66.035156 15.625 L 66.035156 15.589844 L 66.070312 15.589844 L 66.070312 15.554688 L 66.109375 15.554688 L 66.109375 15.519531 L 66.144531 15.519531 L 66.144531 15.449219 L 66.179688 15.449219 L 66.179688 15.414062 L 66.214844 15.414062 L 66.214844 15.378906 L 66.25 15.378906 L 66.25 15.34375 L 66.285156 15.34375 L 66.285156 15.273438 L 66.320312 15.273438 L 66.320312 15.238281 L 66.355469 15.238281 L 66.355469 15.167969 L 66.390625 15.167969 L 66.390625 15.132812 L 66.425781 15.132812 L 66.425781 15.0625 L 66.460938 15.0625 L 66.460938 15.027344 L 66.496094 15.027344 L 66.496094 14.953125 L 66.535156 14.953125 L 66.535156 14.882812 L 66.570312 14.882812 L 66.570312 14.847656 L 66.605469 14.847656 L 66.605469 14.777344 L 66.640625 14.777344 L 66.640625 14.707031 L 66.675781 14.707031 L 66.675781 14.636719 L 66.710938 14.636719 L 66.710938 14.53125 L 66.746094 14.53125 L 66.746094 14.460938 L 66.78125 14.460938 L 66.78125 14.355469 L 66.816406 14.355469 L 66.816406 14.246094 L 66.851562 14.246094 L 66.851562 14.140625 L 66.886719 14.140625 L 66.886719 14 L 66.921875 14 L 66.921875 13.859375 L 66.960938 13.859375 L 66.960938 13.609375 L 66.996094 13.609375 L 66.996094 12.761719 L 66.960938 12.761719 L 66.960938 12.515625 L 66.921875 12.515625 L 66.921875 12.375 L 66.886719 12.375 L 66.886719 12.230469 L 66.851562 12.230469 L 66.851562 12.125 L 66.816406 12.125 L 66.816406 12.019531 L 66.78125 12.019531 L 66.78125 11.914062 L 66.746094 11.914062 L 66.746094 11.84375 L 66.710938 11.84375 L 66.710938 11.738281 L 66.675781 11.738281 L 66.675781 11.667969 L 66.640625 11.667969 L 66.640625 11.597656 L 66.605469 11.597656 L 66.605469 11.523438 L 66.570312 11.523438 L 66.570312 11.488281 L 66.535156 11.488281 L 66.535156 11.417969 L 66.496094 11.417969 L 66.496094 11.347656 L 66.460938 11.347656 L 66.460938 11.3125 L 66.425781 11.3125 L 66.425781 11.242188 L 66.390625 11.242188 L 66.390625 11.207031 L 66.355469 11.207031 L 66.355469 11.136719 L 66.320312 11.136719 L 66.320312 11.101562 L 66.285156 11.101562 L 66.285156 11.03125 L 66.25 11.03125 L 66.25 10.996094 L 66.214844 10.996094 L 66.214844 10.960938 L 66.179688 10.960938 L 66.179688 10.925781 L 66.144531 10.925781 L 66.144531 10.851562 L 66.109375 10.851562 L 66.109375 10.816406 L 66.070312 10.816406 L 66.070312 10.78125 L 66.035156 10.78125 L 66.035156 10.746094 L 66 10.746094 L 66 10.710938 L 65.964844 10.710938 L 65.964844 10.675781 L 65.929688 10.675781 L 65.929688 10.640625 L 65.894531 10.640625 L 65.894531 10.605469 L 65.859375 10.605469 L 65.859375 10.570312 L 65.824219 10.570312 L 65.824219 10.535156 L 65.789062 10.535156 L 65.789062 10.5 L 65.753906 10.5 L 65.753906 10.464844 L 65.71875 10.464844 L 65.71875 10.429688 L 65.644531 10.429688 L 65.644531 10.394531 L 65.609375 10.394531 L 65.609375 10.359375 L 65.574219 10.359375 L 65.574219 10.324219 L 65.539062 10.324219 L 65.539062 10.289062 L 65.46875 10.289062 L 65.46875 10.253906 L 65.433594 10.253906 L 65.433594 10.214844 L 65.398438 10.214844 L 65.398438 10.179688 L 65.328125 10.179688 L 65.328125 10.144531 L 65.292969 10.144531 L 65.292969 10.109375 L 65.398438 10.109375 L 65.398438 10.144531 L 65.503906 10.144531 L 65.503906 10.179688 L 65.609375 10.179688 L 65.609375 10.214844 L 65.683594 10.214844 L 65.683594 10.253906 L 65.789062 10.253906 L 65.789062 10.289062 L 65.859375 10.289062 L 65.859375 10.324219 L 65.929688 10.324219 L 65.929688 10.359375 L 66.035156 10.359375 L 66.035156 10.394531 L 66.109375 10.394531 L 66.109375 10.429688 L 66.179688 10.429688 L 66.179688 10.464844 L 66.25 10.464844 L 66.25 10.5 L 66.320312 10.5 L 66.320312 10.535156 L 66.390625 10.535156 L 66.390625 10.570312 L 66.460938 10.570312 L 66.460938 10.605469 L 66.535156 10.605469 L 66.535156 10.640625 L 66.605469 10.640625 L 66.605469 10.675781 L 66.675781 10.675781 L 66.675781 10.710938 L 66.746094 10.710938 L 66.746094 10.746094 L 66.816406 10.746094 L 66.816406 10.78125 L 66.886719 10.78125 L 66.886719 10.816406 L 66.960938 10.816406 L 66.960938 10.851562 L 67.03125 10.851562 L 67.03125 10.886719 L 67.066406 10.886719 L 67.066406 10.925781 L 67.136719 10.925781 L 67.136719 10.960938 L 67.207031 10.960938 L 67.207031 10.996094 L 67.277344 10.996094 L 67.277344 11.03125 L 67.3125 11.03125 L 67.3125 11.066406 L 67.386719 11.066406 L 67.386719 11.101562 L 67.457031 11.101562 L 67.457031 11.136719 L 67.492188 11.136719 L 67.492188 11.171875 L 67.5625 11.171875 L 67.5625 11.207031 L 67.597656 11.207031 L 67.597656 11.242188 L 67.667969 11.242188 L 67.667969 11.277344 L 67.738281 11.277344 L 67.738281 11.3125 L 67.773438 11.3125 L 67.773438 11.347656 L 67.847656 11.347656 L 67.847656 11.382812 L 67.882812 11.382812 L 67.882812 11.417969 L 67.953125 11.417969 L 67.953125 11.453125 L 67.988281 11.453125 L 67.988281 11.488281 L 68.058594 11.488281 L 68.058594 11.523438 L 68.09375 11.523438 L 68.09375 11.558594 L 68.128906 11.558594 L 68.128906 11.597656 L 68.203125 11.597656 L 68.203125 11.632812 L 68.238281 11.632812 L 68.238281 11.667969 L 68.308594 11.667969 L 68.308594 11.703125 L 68.34375 11.703125 L 68.34375 11.738281 L 68.414062 11.738281 L 68.414062 11.773438 L 68.449219 11.773438 L 68.449219 11.808594 L 68.484375 11.808594 L 68.484375 11.84375 L 68.554688 11.84375 L 68.554688 11.878906 L 68.589844 11.878906 L 68.589844 11.914062 L 68.628906 11.914062 L 68.628906 11.949219 L 68.699219 11.949219 L 68.699219 11.984375 L 68.734375 11.984375 L 68.734375 12.019531 L 68.769531 12.019531 L 68.769531 12.054688 L 68.839844 12.054688 L 68.839844 12.089844 L 68.875 12.089844 L 68.875 12.125 L 68.910156 12.125 L 68.910156 12.160156 L 68.945312 12.160156 L 68.945312 12.195312 L 69.015625 12.195312 L 69.015625 12.230469 L 69.054688 12.230469 L 69.054688 12.269531 L 69.089844 12.269531 L 69.089844 12.304688 L 69.125 12.304688 L 69.125 12.339844 L 69.195312 12.339844 L 69.195312 12.375 L 69.230469 12.375 L 69.230469 12.410156 L 69.265625 12.410156 L 69.265625 12.445312 L 69.300781 12.445312 L 69.300781 12.480469 L 69.335938 12.480469 L 69.335938 12.515625 L 69.40625 12.515625 L 69.40625 12.550781 L 69.441406 12.550781 L 69.441406 12.585938 L 69.480469 12.585938 L 69.480469 12.621094 L 69.515625 12.621094 L 69.515625 12.65625 L 69.550781 12.65625 L 69.550781 12.691406 L 69.585938 12.691406 L 69.585938 12.726562 L 69.621094 12.726562 L 69.621094 12.761719 L 69.691406 12.761719 L 69.691406 12.796875 L 69.726562 12.796875 L 69.726562 12.832031 L 69.761719 12.832031 L 69.761719 12.867188 L 69.796875 12.867188 L 69.796875 12.902344 L 69.832031 12.902344 L 69.832031 12.9375 L 69.867188 12.9375 L 69.867188 12.976562 L 69.90625 12.976562 L 69.90625 13.011719 L 69.941406 13.011719 L 69.941406 13.046875 L 69.976562 13.046875 L 69.976562 13.082031 L 70.011719 13.082031 L 70.011719 13.117188 L 70.082031 13.117188 L 70.082031 13.152344 L 70.117188 13.152344 L 70.117188 13.222656 L 70.082031 13.222656 L 70.082031 13.257812 L 70.011719 13.257812 L 70.011719 13.292969 L 69.976562 13.292969 L 69.976562 13.328125 L 69.941406 13.328125 L 69.941406 13.363281 L 69.90625 13.363281 L 69.90625 13.398438 L 69.867188 13.398438 L 69.867188 13.433594 L 69.832031 13.433594 L 69.832031 13.46875 L 69.796875 13.46875 L 69.796875 13.503906 L 69.761719 13.503906 L 69.761719 13.539062 L 69.726562 13.539062 L 69.726562 13.574219 L 69.691406 13.574219 L 69.691406 13.609375 L 69.621094 13.609375 L 69.621094 13.648438 L 69.585938 13.648438 L 69.585938 13.683594 L 69.550781 13.683594 L 69.550781 13.71875 L 69.515625 13.71875 L 69.515625 13.753906 L 69.480469 13.753906 L 69.480469 13.789062 L 69.441406 13.789062 L 69.441406 13.824219 L 69.40625 13.824219 L 69.40625 13.859375 L 69.335938 13.859375 L 69.335938 13.894531 L 69.300781 13.894531 L 69.300781 13.929688 L 69.265625 13.929688 L 69.265625 13.964844 L 69.230469 13.964844 L 69.230469 14 L 69.195312 14 L 69.195312 14.035156 L 69.125 14.035156 L 69.125 14.070312 L 69.089844 14.070312 L 69.089844 14.105469 L 69.054688 14.105469 L 69.054688 14.140625 L 69.015625 14.140625 L 69.015625 14.175781 L 68.945312 14.175781 L 68.945312 14.210938 L 68.910156 14.210938 L 68.910156 14.246094 L 68.875 14.246094 L 68.875 14.28125 L 68.839844 14.28125 L 68.839844 14.320312 L 68.769531 14.320312 L 68.769531 14.355469 L 68.734375 14.355469 L 68.734375 14.390625 L 68.699219 14.390625 L 68.699219 14.425781 L 68.628906 14.425781 L 68.628906 14.460938 L 68.589844 14.460938 L 68.589844 14.496094 L 68.554688 14.496094 L 68.554688 14.53125 L 68.484375 14.53125 L 68.484375 14.566406 L 68.449219 14.566406 L 68.449219 14.601562 L 68.414062 14.601562 L 68.414062 14.636719 L 68.34375 14.636719 L 68.34375 14.671875 L 68.308594 14.671875 L 68.308594 14.707031 L 68.238281 14.707031 L 68.238281 14.742188 L 68.203125 14.742188 L 68.203125 14.777344 L 68.164062 14.777344 L 68.164062 14.8125 L 68.09375 14.8125 L 68.09375 14.847656 L 68.058594 14.847656 L 68.058594 14.882812 L 67.988281 14.882812 L 67.988281 14.917969 L 67.953125 14.917969 L 67.953125 14.953125 L 67.882812 14.953125 L 67.882812 14.992188 L 67.847656 14.992188 L 67.847656 15.027344 L 67.773438 15.027344 L 67.773438 15.0625 L 67.738281 15.0625 L 67.738281 15.097656 L 67.667969 15.097656 L 67.667969 15.132812 L 67.597656 15.132812 L 67.597656 15.167969 L 67.5625 15.167969 L 67.5625 15.203125 L 67.492188 15.203125 L 67.492188 15.238281 L 67.457031 15.238281 L 67.457031 15.273438 L 67.386719 15.273438 L 67.386719 15.308594 L 67.3125 15.308594 L 67.3125 15.34375 L 67.277344 15.34375 L 67.277344 15.378906 L 67.207031 15.378906 L 67.207031 15.414062 L 67.136719 15.414062 L 67.136719 15.449219 L 67.066406 15.449219 L 67.066406 15.484375 L 67.03125 15.484375 L 67.03125 15.519531 L 66.960938 15.519531 L 66.960938 15.554688 L 66.886719 15.554688 L 66.886719 15.589844 L 66.816406 15.589844 L 66.816406 15.625 L 66.746094 15.625 L 66.746094 15.660156 L 66.675781 15.660156 L 66.675781 15.699219 L 66.605469 15.699219 L 66.605469 15.734375 L 66.535156 15.734375 L 66.535156 15.769531 L 66.460938 15.769531 L 66.460938 15.804688 L 66.390625 15.804688 L 66.390625 15.839844 L 66.320312 15.839844 L 66.320312 15.875 L 66.25 15.875 L 66.25 15.910156 L 66.179688 15.910156 L 66.179688 15.945312 L 66.109375 15.945312 L 66.109375 15.980469 L 66.035156 15.980469 L 66.035156 16.015625 L 65.929688 16.015625 L 65.929688 16.050781 L 65.859375 16.050781 L 65.859375 16.085938 L 65.789062 16.085938 L 65.789062 16.121094 L 65.683594 16.121094 L 65.683594 16.15625 L 65.609375 16.15625 L 65.609375 16.191406 L 65.503906 16.191406 L 65.503906 16.226562 L 65.398438 16.226562 L 65.398438 16.261719 Z M 60.394531 16.261719 L 60.289062 16.261719 L 60.289062 16.226562 L 60.179688 16.226562 L 60.179688 16.191406 L 60.074219 16.191406 L 60.074219 16.15625 L 60.003906 16.15625 L 60.003906 16.121094 L 59.898438 16.121094 L 59.898438 16.085938 L 59.828125 16.085938 L 59.828125 16.050781 L 59.753906 16.050781 L 59.753906 16.015625 L 59.648438 16.015625 L 59.648438 15.980469 L 59.578125 15.980469 L 59.578125 15.945312 L 59.507812 15.945312 L 59.507812 15.910156 L 59.4375 15.910156 L 59.4375 15.875 L 59.363281 15.875 L 59.363281 15.839844 L 59.292969 15.839844 L 59.292969 15.804688 L 59.222656 15.804688 L 59.222656 15.769531 L 59.152344 15.769531 L 59.152344 15.734375 L 59.082031 15.734375 L 59.082031 15.699219 L 59.011719 15.699219 L 59.011719 15.660156 L 58.9375 15.660156 L 58.9375 15.625 L 58.867188 15.625 L 58.867188 15.589844 L 58.796875 15.589844 L 58.796875 15.554688 L 58.726562 15.554688 L 58.726562 15.519531 L 58.65625 15.519531 L 58.65625 15.484375 L 58.621094 15.484375 L 58.621094 15.449219 L 58.550781 15.449219 L 58.550781 15.414062 L 58.476562 15.414062 L 58.476562 15.378906 L 58.40625 15.378906 L 58.40625 15.34375 L 58.371094 15.34375 L 58.371094 15.308594 L 58.300781 15.308594 L 58.300781 15.273438 L 58.230469 15.273438 L 58.230469 15.238281 L 58.195312 15.238281 L 58.195312 15.203125 L 58.125 15.203125 L 58.125 15.167969 L 58.085938 15.167969 L 58.085938 15.132812 L 58.015625 15.132812 L 58.015625 15.097656 L 57.945312 15.097656 L 57.945312 15.0625 L 57.910156 15.0625 L 57.910156 15.027344 L 57.839844 15.027344 L 57.839844 14.992188 L 57.804688 14.992188 L 57.804688 14.953125 L 57.734375 14.953125 L 57.734375 14.917969 L 57.699219 14.917969 L 57.699219 14.882812 L 57.625 14.882812 L 57.625 14.847656 L 57.589844 14.847656 L 57.589844 14.8125 L 57.519531 14.8125 L 57.519531 14.777344 L 57.484375 14.777344 L 57.484375 14.742188 L 57.449219 14.742188 L 57.449219 14.707031 L 57.378906 14.707031 L 57.378906 14.671875 L 57.34375 14.671875 L 57.34375 14.636719 L 57.269531 14.636719 L 57.269531 14.601562 L 57.234375 14.601562 L 57.234375 14.566406 L 57.199219 14.566406 L 57.199219 14.53125 L 57.128906 14.53125 L 57.128906 14.496094 L 57.09375 14.496094 L 57.09375 14.460938 L 57.058594 14.460938 L 57.058594 14.425781 L 56.988281 14.425781 L 56.988281 14.390625 L 56.953125 14.390625 L 56.953125 14.355469 L 56.917969 14.355469 L 56.917969 14.320312 L 56.84375 14.320312 L 56.84375 14.28125 L 56.808594 14.28125 L 56.808594 14.246094 L 56.773438 14.246094 L 56.773438 14.210938 L 56.738281 14.210938 L 56.738281 14.175781 L 56.667969 14.175781 L 56.667969 14.140625 L 56.632812 14.140625 L 56.632812 14.105469 L 56.597656 14.105469 L 56.597656 14.070312 L 56.5625 14.070312 L 56.5625 14.035156 L 56.492188 14.035156 L 56.492188 14 L 56.457031 14 L 56.457031 13.964844 L 56.417969 13.964844 L 56.417969 13.929688 L 56.382812 13.929688 L 56.382812 13.894531 L 56.347656 13.894531 L 56.347656 13.859375 L 56.277344 13.859375 L 56.277344 13.824219 L 56.242188 13.824219 L 56.242188 13.789062 L 56.207031 13.789062 L 56.207031 13.753906 L 56.171875 13.753906 L 56.171875 13.71875 L 56.136719 13.71875 L 56.136719 13.683594 L 56.101562 13.683594 L 56.101562 13.648438 L 56.066406 13.648438 L 56.066406 13.609375 L 55.992188 13.609375 L 55.992188 13.574219 L 55.957031 13.574219 L 55.957031 13.539062 L 55.921875 13.539062 L 55.921875 13.503906 L 55.886719 13.503906 L 55.886719 13.46875 L 55.851562 13.46875 L 55.851562 13.433594 L 55.816406 13.433594 L 55.816406 13.398438 L 55.78125 13.398438 L 55.78125 13.363281 L 55.746094 13.363281 L 55.746094 13.328125 L 55.710938 13.328125 L 55.710938 13.292969 L 55.675781 13.292969 L 55.675781 13.257812 L 55.605469 13.257812 L 55.605469 13.222656 L 55.566406 13.222656 L 55.566406 13.152344 L 55.605469 13.152344 L 55.605469 13.117188 L 55.675781 13.117188 L 55.675781 13.082031 L 55.710938 13.082031 L 55.710938 13.046875 L 55.746094 13.046875 L 55.746094 13.011719 L 55.78125 13.011719 L 55.78125 12.976562 L 55.816406 12.976562 L 55.816406 12.9375 L 55.851562 12.9375 L 55.851562 12.902344 L 55.886719 12.902344 L 55.886719 12.867188 L 55.921875 12.867188 L 55.921875 12.832031 L 55.957031 12.832031 L 55.957031 12.796875 L 55.992188 12.796875 L 55.992188 12.761719 L 56.066406 12.761719 L 56.066406 12.726562 L 56.101562 12.726562 L 56.101562 12.691406 L 56.136719 12.691406 L 56.136719 12.65625 L 56.171875 12.65625 L 56.171875 12.621094 L 56.207031 12.621094 L 56.207031 12.585938 L 56.242188 12.585938 L 56.242188 12.550781 L 56.277344 12.550781 L 56.277344 12.515625 L 56.347656 12.515625 L 56.347656 12.480469 L 56.382812 12.480469 L 56.382812 12.445312 L 56.417969 12.445312 L 56.417969 12.410156 L 56.457031 12.410156 L 56.457031 12.375 L 56.492188 12.375 L 56.492188 12.339844 L 56.5625 12.339844 L 56.5625 12.304688 L 56.597656 12.304688 L 56.597656 12.269531 L 56.632812 12.269531 L 56.632812 12.230469 L 56.667969 12.230469 L 56.667969 12.195312 L 56.738281 12.195312 L 56.738281 12.160156 L 56.773438 12.160156 L 56.773438 12.125 L 56.808594 12.125 L 56.808594 12.089844 L 56.84375 12.089844 L 56.84375 12.054688 L 56.917969 12.054688 L 56.917969 12.019531 L 56.953125 12.019531 L 56.953125 11.984375 L 56.988281 11.984375 L 56.988281 11.949219 L 57.058594 11.949219 L 57.058594 11.914062 L 57.09375 11.914062 L 57.09375 11.878906 L 57.128906 11.878906 L 57.128906 11.84375 L 57.199219 11.84375 L 57.199219 11.808594 L 57.234375 11.808594 L 57.234375 11.773438 L 57.269531 11.773438 L 57.269531 11.738281 L 57.34375 11.738281 L 57.34375 11.703125 L 57.378906 11.703125 L 57.378906 11.667969 L 57.449219 11.667969 L 57.449219 11.632812 L 57.484375 11.632812 L 57.484375 11.597656 L 57.519531 11.597656 L 57.519531 11.558594 L 57.589844 11.558594 L 57.589844 11.523438 L 57.625 11.523438 L 57.625 11.488281 L 57.699219 11.488281 L 57.699219 11.453125 L 57.734375 11.453125 L 57.734375 11.417969 L 57.804688 11.417969 L 57.804688 11.382812 L 57.839844 11.382812 L 57.839844 11.347656 L 57.910156 11.347656 L 57.910156 11.3125 L 57.945312 11.3125 L 57.945312 11.277344 L 58.015625 11.277344 L 58.015625 11.242188 L 58.085938 11.242188 L 58.085938 11.207031 L 58.125 11.207031 L 58.125 11.171875 L 58.195312 11.171875 L 58.195312 11.136719 L 58.230469 11.136719 L 58.230469 11.101562 L 58.300781 11.101562 L 58.300781 11.066406 L 58.371094 11.066406 L 58.371094 11.03125 L 58.40625 11.03125 L 58.40625 10.996094 L 58.476562 10.996094 L 58.476562 10.960938 L 58.550781 10.960938 L 58.550781 10.925781 L 58.621094 10.925781 L 58.621094 10.886719 L 58.65625 10.886719 L 58.65625 10.851562 L 58.726562 10.851562 L 58.726562 10.816406 L 58.796875 10.816406 L 58.796875 10.78125 L 58.867188 10.78125 L 58.867188 10.746094 L 58.9375 10.746094 L 58.9375 10.710938 L 59.011719 10.710938 L 59.011719 10.675781 L 59.082031 10.675781 L 59.082031 10.640625 L 59.152344 10.640625 L 59.152344 10.605469 L 59.222656 10.605469 L 59.222656 10.570312 L 59.292969 10.570312 L 59.292969 10.535156 L 59.363281 10.535156 L 59.363281 10.5 L 59.4375 10.5 L 59.4375 10.464844 L 59.507812 10.464844 L 59.507812 10.429688 L 59.578125 10.429688 L 59.578125 10.394531 L 59.648438 10.394531 L 59.648438 10.359375 L 59.753906 10.359375 L 59.753906 10.324219 L 59.828125 10.324219 L 59.828125 10.289062 L 59.898438 10.289062 L 59.898438 10.253906 L 60.003906 10.253906 L 60.003906 10.214844 L 60.074219 10.214844 L 60.074219 10.179688 L 60.179688 10.179688 L 60.179688 10.144531 L 60.289062 10.144531 L 60.289062 10.109375 L 60.394531 10.109375 L 60.394531 10.144531 L 60.359375 10.144531 L 60.359375 10.179688 L 60.289062 10.179688 L 60.289062 10.214844 L 60.253906 10.214844 L 60.253906 10.253906 L 60.21875 10.253906 L 60.21875 10.289062 L 60.144531 10.289062 L 60.144531 10.324219 L 60.109375 10.324219 L 60.109375 10.359375 L 60.074219 10.359375 L 60.074219 10.394531 L 60.039062 10.394531 L 60.039062 10.429688 L 59.96875 10.429688 L 59.96875 10.464844 L 59.933594 10.464844 L 59.933594 10.5 L 59.898438 10.5 L 59.898438 10.535156 L 59.863281 10.535156 L 59.863281 10.570312 L 59.828125 10.570312 L 59.828125 10.605469 L 59.789062 10.605469 L 59.789062 10.640625 L 59.753906 10.640625 L 59.753906 10.675781 L 59.71875 10.675781 L 59.71875 10.710938 L 59.683594 10.710938 L 59.683594 10.746094 L 59.648438 10.746094 L 59.648438 10.78125 L 59.613281 10.78125 L 59.613281 10.816406 L 59.578125 10.816406 L 59.578125 10.851562 L 59.542969 10.851562 L 59.542969 10.925781 L 59.507812 10.925781 L 59.507812 10.960938 L 59.472656 10.960938 L 59.472656 10.996094 L 59.4375 10.996094 L 59.4375 11.03125 L 59.402344 11.03125 L 59.402344 11.101562 L 59.363281 11.101562 L 59.363281 11.136719 L 59.328125 11.136719 L 59.328125 11.207031 L 59.292969 11.207031 L 59.292969 11.242188 L 59.257812 11.242188 L 59.257812 11.3125 L 59.222656 11.3125 L 59.222656 11.347656 L 59.1875 11.347656 L 59.1875 11.417969 L 59.152344 11.417969 L 59.152344 11.488281 L 59.117188 11.488281 L 59.117188 11.523438 L 59.082031 11.523438 L 59.082031 11.597656 L 59.046875 11.597656 L 59.046875 11.667969 L 59.011719 11.667969 L 59.011719 11.738281 L 58.976562 11.738281 L 58.976562 11.84375 L 58.9375 11.84375 L 58.9375 11.914062 L 58.902344 11.914062 L 58.902344 12.019531 L 58.867188 12.019531 L 58.867188 12.125 L 58.832031 12.125 L 58.832031 12.230469 L 58.796875 12.230469 L 58.796875 12.375 L 58.761719 12.375 L 58.761719 12.550781 L 58.726562 12.550781 L 58.726562 12.761719 L 58.691406 12.761719 L 58.691406 13.609375 L 58.726562 13.609375 L 58.726562 13.824219 L 58.761719 13.824219 L 58.761719 14 L 58.796875 14 L 58.796875 14.140625 L 58.832031 14.140625 L 58.832031 14.246094 L 58.867188 14.246094 L 58.867188 14.355469 L 58.902344 14.355469 L 58.902344 14.460938 L 58.9375 14.460938 L 58.9375 14.53125 L 58.976562 14.53125 L 58.976562 14.636719 L 59.011719 14.636719 L 59.011719 14.707031 L 59.046875 14.707031 L 59.046875 14.777344 L 59.082031 14.777344 L 59.082031 14.847656 L 59.117188 14.847656 L 59.117188 14.882812 L 59.152344 14.882812 L 59.152344 14.953125 L 59.1875 14.953125 L 59.1875 15.027344 L 59.222656 15.027344 L 59.222656 15.0625 L 59.257812 15.0625 L 59.257812 15.132812 L 59.292969 15.132812 L 59.292969 15.167969 L 59.328125 15.167969 L 59.328125 15.238281 L 59.363281 15.238281 L 59.363281 15.273438 L 59.402344 15.273438 L 59.402344 15.34375 L 59.4375 15.34375 L 59.4375 15.378906 L 59.472656 15.378906 L 59.472656 15.414062 L 59.507812 15.414062 L 59.507812 15.449219 L 59.542969 15.449219 L 59.542969 15.519531 L 59.578125 15.519531 L 59.578125 15.554688 L 59.613281 15.554688 L 59.613281 15.589844 L 59.648438 15.589844 L 59.648438 15.625 L 59.683594 15.625 L 59.683594 15.660156 L 59.71875 15.660156 L 59.71875 15.699219 L 59.753906 15.699219 L 59.753906 15.734375 L 59.789062 15.734375 L 59.789062 15.769531 L 59.828125 15.769531 L 59.828125 15.804688 L 59.863281 15.804688 L 59.863281 15.839844 L 59.898438 15.839844 L 59.898438 15.875 L 59.933594 15.875 L 59.933594 15.910156 L 59.96875 15.910156 L 59.96875 15.945312 L 60.039062 15.945312 L 60.039062 15.980469 L 60.074219 15.980469 L 60.074219 16.015625 L 60.109375 16.015625 L 60.109375 16.050781 L 60.144531 16.050781 L 60.144531 16.085938 L 60.21875 16.085938 L 60.21875 16.121094 L 60.253906 16.121094 L 60.253906 16.15625 L 60.289062 16.15625 L 60.289062 16.191406 L 60.359375 16.191406 L 60.359375 16.226562 L 60.394531 16.226562 Z M 65.292969 10.109375 L 65.21875 10.109375 L 65.21875 10.074219 L 65.292969 10.074219 Z M 60.394531 10.109375 L 60.394531 10.074219 L 60.464844 10.074219 L 60.464844 10.109375 Z M 62.382812 8.203125 L 61.957031 8.203125 L 61.957031 8.238281 L 61.671875 8.238281 L 61.671875 8.273438 L 61.457031 8.273438 L 61.457031 8.308594 L 61.246094 8.308594 L 61.246094 8.34375 L 61.070312 8.34375 L 61.070312 8.378906 L 60.925781 8.378906 L 60.925781 8.414062 L 60.785156 8.414062 L 60.785156 8.449219 L 60.644531 8.449219 L 60.644531 8.484375 L 60.5 8.484375 L 60.5 8.519531 L 60.394531 8.519531 L 60.394531 8.554688 L 60.253906 8.554688 L 60.253906 8.589844 L 60.144531 8.589844 L 60.144531 8.625 L 60.039062 8.625 L 60.039062 8.660156 L 59.933594 8.660156 L 59.933594 8.695312 L 59.828125 8.695312 L 59.828125 8.730469 L 59.753906 8.730469 L 59.753906 8.765625 L 59.648438 8.765625 L 59.648438 8.800781 L 59.542969 8.800781 L 59.542969 8.835938 L 59.472656 8.835938 L 59.472656 8.875 L 59.363281 8.875 L 59.363281 8.910156 L 59.292969 8.910156 L 59.292969 8.945312 L 59.1875 8.945312 L 59.1875 8.980469 L 59.117188 8.980469 L 59.117188 9.015625 L 59.046875 9.015625 L 59.046875 9.050781 L 58.9375 9.050781 L 58.9375 9.085938 L 58.867188 9.085938 L 58.867188 9.121094 L 58.796875 9.121094 L 58.796875 9.15625 L 58.726562 9.15625 L 58.726562 9.191406 L 58.65625 9.191406 L 58.65625 9.226562 L 58.585938 9.226562 L 58.585938 9.261719 L 58.511719 9.261719 L 58.511719 9.296875 L 58.441406 9.296875 L 58.441406 9.332031 L 58.371094 9.332031 L 58.371094 9.367188 L 58.300781 9.367188 L 58.300781 9.402344 L 58.230469 9.402344 L 58.230469 9.4375 L 58.160156 9.4375 L 58.160156 9.472656 L 58.085938 9.472656 L 58.085938 9.507812 L 58.015625 9.507812 L 58.015625 9.546875 L 57.980469 9.546875 L 57.980469 9.582031 L 57.910156 9.582031 L 57.910156 9.617188 L 57.839844 9.617188 L 57.839844 9.652344 L 57.769531 9.652344 L 57.769531 9.6875 L 57.734375 9.6875 L 57.734375 9.722656 L 57.660156 9.722656 L 57.660156 9.757812 L 57.589844 9.757812 L 57.589844 9.792969 L 57.554688 9.792969 L 57.554688 9.828125 L 57.484375 9.828125 L 57.484375 9.863281 L 57.414062 9.863281 L 57.414062 9.898438 L 57.378906 9.898438 L 57.378906 9.933594 L 57.308594 9.933594 L 57.308594 9.96875 L 57.234375 9.96875 L 57.234375 10.003906 L 57.199219 10.003906 L 57.199219 10.039062 L 57.128906 10.039062 L 57.128906 10.074219 L 57.09375 10.074219 L 57.09375 10.109375 L 57.023438 10.109375 L 57.023438 10.144531 L 56.988281 10.144531 L 56.988281 10.179688 L 56.917969 10.179688 L 56.917969 10.214844 L 56.882812 10.214844 L 56.882812 10.253906 L 56.808594 10.253906 L 56.808594 10.289062 L 56.773438 10.289062 L 56.773438 10.324219 L 56.703125 10.324219 L 56.703125 10.359375 L 56.667969 10.359375 L 56.667969 10.394531 L 56.632812 10.394531 L 56.632812 10.429688 L 56.5625 10.429688 L 56.5625 10.464844 L 56.527344 10.464844 L 56.527344 10.5 L 56.457031 10.5 L 56.457031 10.535156 L 56.417969 10.535156 L 56.417969 10.570312 L 56.382812 10.570312 L 56.382812 10.605469 L 56.3125 10.605469 L 56.3125 10.640625 L 56.277344 10.640625 L 56.277344 10.675781 L 56.242188 10.675781 L 56.242188 10.710938 L 56.171875 10.710938 L 56.171875 10.746094 L 56.136719 10.746094 L 56.136719 10.78125 L 56.101562 10.78125 L 56.101562 10.816406 L 56.03125 10.816406 L 56.03125 10.851562 L 55.992188 10.851562 L 55.992188 10.886719 L 55.957031 10.886719 L 55.957031 10.925781 L 55.886719 10.925781 L 55.886719 10.960938 L 55.851562 10.960938 L 55.851562 10.996094 L 55.816406 10.996094 L 55.816406 11.03125 L 55.78125 11.03125 L 55.78125 11.066406 L 55.710938 11.066406 L 55.710938 11.101562 L 55.675781 11.101562 L 55.675781 11.136719 L 55.640625 11.136719 L 55.640625 11.171875 L 55.605469 11.171875 L 55.605469 11.207031 L 55.566406 11.207031 L 55.566406 11.242188 L 55.496094 11.242188 L 55.496094 11.277344 L 55.460938 11.277344 L 55.460938 11.3125 L 55.425781 11.3125 L 55.425781 11.347656 L 55.390625 11.347656 L 55.390625 11.382812 L 55.355469 11.382812 L 55.355469 11.417969 L 55.285156 11.417969 L 55.285156 11.453125 L 55.25 11.453125 L 55.25 11.488281 L 55.214844 11.488281 L 55.214844 11.523438 L 55.179688 11.523438 L 55.179688 11.558594 L 55.140625 11.558594 L 55.140625 11.597656 L 55.105469 11.597656 L 55.105469 11.632812 L 55.070312 11.632812 L 55.070312 11.667969 L 55 11.667969 L 55 11.703125 L 54.964844 11.703125 L 54.964844 11.738281 L 54.929688 11.738281 L 54.929688 11.773438 L 54.894531 11.773438 L 54.894531 11.808594 L 54.859375 11.808594 L 54.859375 11.84375 L 54.824219 11.84375 L 54.824219 11.878906 L 54.789062 11.878906 L 54.789062 11.914062 L 54.75 11.914062 L 54.75 11.949219 L 54.714844 11.949219 L 54.714844 11.984375 L 54.679688 11.984375 L 54.679688 12.019531 L 54.644531 12.019531 L 54.644531 12.054688 L 54.574219 12.054688 L 54.574219 12.089844 L 54.539062 12.089844 L 54.539062 12.125 L 54.503906 12.125 L 54.503906 12.160156 L 54.46875 12.160156 L 54.46875 12.195312 L 54.433594 12.195312 L 54.433594 12.230469 L 54.398438 12.230469 L 54.398438 12.269531 L 54.363281 12.269531 L 54.363281 12.304688 L 54.324219 12.304688 L 54.324219 12.339844 L 54.289062 12.339844 L 54.289062 12.375 L 54.253906 12.375 L 54.253906 12.410156 L 54.21875 12.410156 L 54.21875 12.445312 L 54.183594 12.445312 L 54.183594 12.480469 L 54.148438 12.480469 L 54.148438 12.515625 L 54.113281 12.515625 L 54.113281 12.550781 L 54.078125 12.550781 L 54.078125 12.585938 L 54.042969 12.585938 L 54.042969 12.621094 L 54.007812 12.621094 L 54.007812 12.65625 L 53.972656 12.65625 L 53.972656 12.691406 L 53.9375 12.691406 L 53.9375 12.726562 L 53.898438 12.726562 L 53.898438 12.796875 L 53.863281 12.796875 L 53.863281 12.832031 L 53.828125 12.832031 L 53.828125 12.902344 L 53.792969 12.902344 L 53.792969 12.976562 L 53.757812 12.976562 L 53.757812 13.398438 L 53.792969 13.398438 L 53.792969 13.46875 L 53.828125 13.46875 L 53.828125 13.539062 L 53.863281 13.539062 L 53.863281 13.574219 L 53.898438 13.574219 L 53.898438 13.648438 L 53.9375 13.648438 L 53.9375 13.683594 L 53.972656 13.683594 L 53.972656 13.71875 L 54.007812 13.71875 L 54.007812 13.753906 L 54.042969 13.753906 L 54.042969 13.789062 L 54.078125 13.789062 L 54.078125 13.824219 L 54.113281 13.824219 L 54.113281 13.859375 L 54.148438 13.859375 L 54.148438 13.894531 L 54.183594 13.894531 L 54.183594 13.929688 L 54.21875 13.929688 L 54.21875 13.964844 L 54.253906 13.964844 L 54.253906 14 L 54.289062 14 L 54.289062 14.035156 L 54.324219 14.035156 L 54.324219 14.070312 L 54.363281 14.070312 L 54.363281 14.105469 L 54.398438 14.105469 L 54.398438 14.140625 L 54.433594 14.140625 L 54.433594 14.175781 L 54.46875 14.175781 L 54.46875 14.210938 L 54.503906 14.210938 L 54.503906 14.246094 L 54.539062 14.246094 L 54.539062 14.28125 L 54.574219 14.28125 L 54.574219 14.320312 L 54.644531 14.320312 L 54.644531 14.355469 L 54.679688 14.355469 L 54.679688 14.390625 L 54.714844 14.390625 L 54.714844 14.425781 L 54.75 14.425781 L 54.75 14.460938 L 54.789062 14.460938 L 54.789062 14.496094 L 54.824219 14.496094 L 54.824219 14.53125 L 54.859375 14.53125 L 54.859375 14.566406 L 54.894531 14.566406 L 54.894531 14.601562 L 54.929688 14.601562 L 54.929688 14.636719 L 54.964844 14.636719 L 54.964844 14.671875 L 55 14.671875 L 55 14.707031 L 55.070312 14.707031 L 55.070312 14.742188 L 55.105469 14.742188 L 55.105469 14.777344 L 55.140625 14.777344 L 55.140625 14.8125 L 55.179688 14.8125 L 55.179688 14.847656 L 55.214844 14.847656 L 55.214844 14.882812 L 55.25 14.882812 L 55.25 14.917969 L 55.285156 14.917969 L 55.285156 14.953125 L 55.355469 14.953125 L 55.355469 14.992188 L 55.390625 14.992188 L 55.390625 15.027344 L 55.425781 15.027344 L 55.425781 15.0625 L 55.460938 15.0625 L 55.460938 15.097656 L 55.496094 15.097656 L 55.496094 15.132812 L 55.566406 15.132812 L 55.566406 15.167969 L 55.605469 15.167969 L 55.605469 15.203125 L 55.640625 15.203125 L 55.640625 15.238281 L 55.675781 15.238281 L 55.675781 15.273438 L 55.710938 15.273438 L 55.710938 15.308594 L 55.78125 15.308594 L 55.78125 15.34375 L 55.816406 15.34375 L 55.816406 15.378906 L 55.851562 15.378906 L 55.851562 15.414062 L 55.886719 15.414062 L 55.886719 15.449219 L 55.957031 15.449219 L 55.957031 15.484375 L 55.992188 15.484375 L 55.992188 15.519531 L 56.03125 15.519531 L 56.03125 15.554688 L 56.101562 15.554688 L 56.101562 15.589844 L 56.136719 15.589844 L 56.136719 15.625 L 56.171875 15.625 L 56.171875 15.660156 L 56.242188 15.660156 L 56.242188 15.699219 L 56.277344 15.699219 L 56.277344 15.734375 L 56.3125 15.734375 L 56.3125 15.769531 L 56.382812 15.769531 L 56.382812 15.804688 L 56.417969 15.804688 L 56.417969 15.839844 L 56.457031 15.839844 L 56.457031 15.875 L 56.527344 15.875 L 56.527344 15.910156 L 56.5625 15.910156 L 56.5625 15.945312 L 56.632812 15.945312 L 56.632812 15.980469 L 56.667969 15.980469 L 56.667969 16.015625 L 56.703125 16.015625 L 56.703125 16.050781 L 56.773438 16.050781 L 56.773438 16.085938 L 56.808594 16.085938 L 56.808594 16.121094 L 56.882812 16.121094 L 56.882812 16.15625 L 56.917969 16.15625 L 56.917969 16.191406 L 56.988281 16.191406 L 56.988281 16.226562 L 57.023438 16.226562 L 57.023438 16.261719 L 57.09375 16.261719 L 57.09375 16.296875 L 57.128906 16.296875 L 57.128906 16.332031 L 57.199219 16.332031 L 57.199219 16.371094 L 57.269531 16.371094 L 57.269531 16.40625 L 57.308594 16.40625 L 57.308594 16.441406 L 57.378906 16.441406 L 57.378906 16.476562 L 57.414062 16.476562 L 57.414062 16.511719 L 57.484375 16.511719 L 57.484375 16.546875 L 57.554688 16.546875 L 57.554688 16.582031 L 57.589844 16.582031 L 57.589844 16.617188 L 57.660156 16.617188 L 57.660156 16.652344 L 57.734375 16.652344 L 57.734375 16.6875 L 57.769531 16.6875 L 57.769531 16.722656 L 57.839844 16.722656 L 57.839844 16.757812 L 57.910156 16.757812 L 57.910156 16.792969 L 57.980469 16.792969 L 57.980469 16.828125 L 58.015625 16.828125 L 58.015625 16.863281 L 58.085938 16.863281 L 58.085938 16.898438 L 58.160156 16.898438 L 58.160156 16.933594 L 58.230469 16.933594 L 58.230469 16.96875 L 58.300781 16.96875 L 58.300781 17.003906 L 58.371094 17.003906 L 58.371094 17.042969 L 58.441406 17.042969 L 58.441406 17.078125 L 58.511719 17.078125 L 58.511719 17.113281 L 58.585938 17.113281 L 58.585938 17.148438 L 58.65625 17.148438 L 58.65625 17.183594 L 58.726562 17.183594 L 58.726562 17.21875 L 58.796875 17.21875 L 58.796875 17.253906 L 58.867188 17.253906 L 58.867188 17.289062 L 58.9375 17.289062 L 58.9375 17.324219 L 59.046875 17.324219 L 59.046875 17.359375 L 59.117188 17.359375 L 59.117188 17.394531 L 59.1875 17.394531 L 59.1875 17.429688 L 59.292969 17.429688 L 59.292969 17.464844 L 59.363281 17.464844 L 59.363281 17.5 L 59.472656 17.5 L 59.472656 17.535156 L 59.542969 17.535156 L 59.542969 17.570312 L 59.648438 17.570312 L 59.648438 17.605469 L 59.753906 17.605469 L 59.753906 17.640625 L 59.828125 17.640625 L 59.828125 17.675781 L 59.933594 17.675781 L 59.933594 17.710938 L 60.039062 17.710938 L 60.039062 17.75 L 60.144531 17.75 L 60.144531 17.785156 L 60.253906 17.785156 L 60.253906 17.820312 L 60.394531 17.820312 L 60.394531 17.855469 L 60.5 17.855469 L 60.5 17.890625 L 60.644531 17.890625 L 60.644531 17.925781 L 60.785156 17.925781 L 60.785156 17.960938 L 60.925781 17.960938 L 60.925781 17.996094 L 61.070312 17.996094 L 61.070312 18.03125 L 61.246094 18.03125 L 61.246094 18.066406 L 61.457031 18.066406 L 61.457031 18.101562 L 61.671875 18.101562 L 61.671875 18.136719 L 61.957031 18.136719 L 61.957031 18.171875 L 62.382812 18.171875 L 62.382812 18.207031 L 63.304688 18.207031 L 63.304688 18.171875 L 63.730469 18.171875 L 63.730469 18.136719 L 64.015625 18.136719 L 64.015625 18.101562 L 64.226562 18.101562 L 64.226562 18.066406 L 64.441406 18.066406 L 64.441406 18.03125 L 64.617188 18.03125 L 64.617188 17.996094 L 64.757812 17.996094 L 64.757812 17.960938 L 64.902344 17.960938 L 64.902344 17.925781 L 65.042969 17.925781 L 65.042969 17.890625 L 65.183594 17.890625 L 65.183594 17.855469 L 65.292969 17.855469 L 65.292969 17.820312 L 65.433594 17.820312 L 65.433594 17.785156 L 65.539062 17.785156 L 65.539062 17.75 L 65.644531 17.75 L 65.644531 17.710938 L 65.753906 17.710938 L 65.753906 17.675781 L 65.859375 17.675781 L 65.859375 17.640625 L 65.929688 17.640625 L 65.929688 17.605469 L 66.035156 17.605469 L 66.035156 17.570312 L 66.144531 17.570312 L 66.144531 17.535156 L 66.214844 17.535156 L 66.214844 17.5 L 66.320312 17.5 L 66.320312 17.464844 L 66.390625 17.464844 L 66.390625 17.429688 L 66.496094 17.429688 L 66.496094 17.394531 L 66.570312 17.394531 L 66.570312 17.359375 L 66.640625 17.359375 L 66.640625 17.324219 L 66.746094 17.324219 L 66.746094 17.289062 L 66.816406 17.289062 L 66.816406 17.253906 L 66.886719 17.253906 L 66.886719 17.21875 L 66.960938 17.21875 L 66.960938 17.183594 L 67.03125 17.183594 L 67.03125 17.148438 L 67.101562 17.148438 L 67.101562 17.113281 L 67.171875 17.113281 L 67.171875 17.078125 L 67.242188 17.078125 L 67.242188 17.042969 L 67.3125 17.042969 L 67.3125 17.003906 L 67.386719 17.003906 L 67.386719 16.96875 L 67.457031 16.96875 L 67.457031 16.933594 L 67.527344 16.933594 L 67.527344 16.898438 L 67.597656 16.898438 L 67.597656 16.863281 L 67.667969 16.863281 L 67.667969 16.828125 L 67.703125 16.828125 L 67.703125 16.792969 L 67.773438 16.792969 L 67.773438 16.757812 L 67.847656 16.757812 L 67.847656 16.722656 L 67.917969 16.722656 L 67.917969 16.6875 L 67.953125 16.6875 L 67.953125 16.652344 L 68.023438 16.652344 L 68.023438 16.617188 L 68.09375 16.617188 L 68.09375 16.582031 L 68.128906 16.582031 L 68.128906 16.546875 L 68.203125 16.546875 L 68.203125 16.511719 L 68.273438 16.511719 L 68.273438 16.476562 L 68.308594 16.476562 L 68.308594 16.441406 L 68.378906 16.441406 L 68.378906 16.40625 L 68.414062 16.40625 L 68.414062 16.371094 L 68.484375 16.371094 L 68.484375 16.332031 L 68.554688 16.332031 L 68.554688 16.296875 L 68.589844 16.296875 L 68.589844 16.261719 L 68.664062 16.261719 L 68.664062 16.226562 L 68.699219 16.226562 L 68.699219 16.191406 L 68.769531 16.191406 L 68.769531 16.15625 L 68.804688 16.15625 L 68.804688 16.121094 L 68.875 16.121094 L 68.875 16.085938 L 68.910156 16.085938 L 68.910156 16.050781 L 68.980469 16.050781 L 68.980469 16.015625 L 69.015625 16.015625 L 69.015625 15.980469 L 69.054688 15.980469 L 69.054688 15.945312 L 69.125 15.945312 L 69.125 15.910156 L 69.160156 15.910156 L 69.160156 15.875 L 69.230469 15.875 L 69.230469 15.839844 L 69.265625 15.839844 L 69.265625 15.804688 L 69.300781 15.804688 L 69.300781 15.769531 L 69.371094 15.769531 L 69.371094 15.734375 L 69.40625 15.734375 L 69.40625 15.699219 L 69.441406 15.699219 L 69.441406 15.660156 L 69.515625 15.660156 L 69.515625 15.625 L 69.550781 15.625 L 69.550781 15.589844 L 69.585938 15.589844 L 69.585938 15.554688 L 69.65625 15.554688 L 69.65625 15.519531 L 69.691406 15.519531 L 69.691406 15.484375 L 69.726562 15.484375 L 69.726562 15.449219 L 69.796875 15.449219 L 69.796875 15.414062 L 69.832031 15.414062 L 69.832031 15.378906 L 69.867188 15.378906 L 69.867188 15.34375 L 69.90625 15.34375 L 69.90625 15.308594 L 69.976562 15.308594 L 69.976562 15.273438 L 70.011719 15.273438 L 70.011719 15.238281 L 70.046875 15.238281 L 70.046875 15.203125 L 70.082031 15.203125 L 70.082031 15.167969 L 70.117188 15.167969 L 70.117188 15.132812 L 70.1875 15.132812 L 70.1875 15.097656 L 70.222656 15.097656 L 70.222656 15.0625 L 70.257812 15.0625 L 70.257812 15.027344 L 70.292969 15.027344 L 70.292969 14.992188 L 70.332031 14.992188 L 70.332031 14.953125 L 70.402344 14.953125 L 70.402344 14.917969 L 70.4375 14.917969 L 70.4375 14.882812 L 70.472656 14.882812 L 70.472656 14.847656 L 70.507812 14.847656 L 70.507812 14.8125 L 70.542969 14.8125 L 70.542969 14.777344 L 70.578125 14.777344 L 70.578125 14.742188 L 70.613281 14.742188 L 70.613281 14.707031 L 70.683594 14.707031 L 70.683594 14.671875 L 70.722656 14.671875 L 70.722656 14.636719 L 70.757812 14.636719 L 70.757812 14.601562 L 70.792969 14.601562 L 70.792969 14.566406 L 70.828125 14.566406 L 70.828125 14.53125 L 70.863281 14.53125 L 70.863281 14.496094 L 70.898438 14.496094 L 70.898438 14.460938 L 70.933594 14.460938 L 70.933594 14.425781 L 70.96875 14.425781 L 70.96875 14.390625 L 71.003906 14.390625 L 71.003906 14.355469 L 71.039062 14.355469 L 71.039062 14.320312 L 71.109375 14.320312 L 71.109375 14.28125 L 71.148438 14.28125 L 71.148438 14.246094 L 71.183594 14.246094 L 71.183594 14.210938 L 71.21875 14.210938 L 71.21875 14.175781 L 71.253906 14.175781 L 71.253906 14.140625 L 71.289062 14.140625 L 71.289062 14.105469 L 71.324219 14.105469 L 71.324219 14.070312 L 71.359375 14.070312 L 71.359375 14.035156 L 71.394531 14.035156 L 71.394531 14 L 71.429688 14 L 71.429688 13.964844 L 71.464844 13.964844 L 71.464844 13.929688 L 71.5 13.929688 L 71.5 13.894531 L 71.535156 13.894531 L 71.535156 13.859375 L 71.574219 13.859375 L 71.574219 13.824219 L 71.609375 13.824219 L 71.609375 13.789062 L 71.644531 13.789062 L 71.644531 13.753906 L 71.679688 13.753906 L 71.679688 13.71875 L 71.714844 13.71875 L 71.714844 13.683594 L 71.75 13.683594 L 71.75 13.648438 L 71.785156 13.648438 L 71.785156 13.574219 L 71.820312 13.574219 L 71.820312 13.539062 L 71.855469 13.539062 L 71.855469 13.46875 L 71.890625 13.46875 L 71.890625 13.398438 L 71.925781 13.398438 L 71.925781 12.976562 L 71.890625 12.976562 L 71.890625 12.902344 L 71.855469 12.902344 L 71.855469 12.832031 L 71.820312 12.832031 L 71.820312 12.796875 L 71.785156 12.796875 L 71.785156 12.726562 L 71.75 12.726562 L 71.75 12.691406 L 71.714844 12.691406 L 71.714844 12.65625 L 71.679688 12.65625 L 71.679688 12.621094 L 71.644531 12.621094 L 71.644531 12.585938 L 71.609375 12.585938 L 71.609375 12.550781 L 71.574219 12.550781 L 71.574219 12.515625 L 71.535156 12.515625 L 71.535156 12.480469 L 71.5 12.480469 L 71.5 12.445312 L 71.464844 12.445312 L 71.464844 12.410156 L 71.429688 12.410156 L 71.429688 12.375 L 71.394531 12.375 L 71.394531 12.339844 L 71.359375 12.339844 L 71.359375 12.304688 L 71.324219 12.304688 L 71.324219 12.269531 L 71.289062 12.269531 L 71.289062 12.230469 L 71.253906 12.230469 L 71.253906 12.195312 L 71.21875 12.195312 L 71.21875 12.160156 L 71.183594 12.160156 L 71.183594 12.125 L 71.148438 12.125 L 71.148438 12.089844 L 71.109375 12.089844 L 71.109375 12.054688 L 71.039062 12.054688 L 71.039062 12.019531 L 71.003906 12.019531 L 71.003906 11.984375 L 70.96875 11.984375 L 70.96875 11.949219 L 70.933594 11.949219 L 70.933594 11.914062 L 70.898438 11.914062 L 70.898438 11.878906 L 70.863281 11.878906 L 70.863281 11.84375 L 70.828125 11.84375 L 70.828125 11.808594 L 70.792969 11.808594 L 70.792969 11.773438 L 70.757812 11.773438 L 70.757812 11.738281 L 70.722656 11.738281 L 70.722656 11.703125 L 70.683594 11.703125 L 70.683594 11.667969 L 70.613281 11.667969 L 70.613281 11.632812 L 70.578125 11.632812 L 70.578125 11.597656 L 70.542969 11.597656 L 70.542969 11.558594 L 70.507812 11.558594 L 70.507812 11.523438 L 70.472656 11.523438 L 70.472656 11.488281 L 70.4375 11.488281 L 70.4375 11.453125 L 70.402344 11.453125 L 70.402344 11.417969 L 70.332031 11.417969 L 70.332031 11.382812 L 70.292969 11.382812 L 70.292969 11.347656 L 70.257812 11.347656 L 70.257812 11.3125 L 70.222656 11.3125 L 70.222656 11.277344 L 70.1875 11.277344 L 70.1875 11.242188 L 70.117188 11.242188 L 70.117188 11.207031 L 70.082031 11.207031 L 70.082031 11.171875 L 70.046875 11.171875 L 70.046875 11.136719 L 70.011719 11.136719 L 70.011719 11.101562 L 69.976562 11.101562 L 69.976562 11.066406 L 69.90625 11.066406 L 69.90625 11.03125 L 69.867188 11.03125 L 69.867188 10.996094 L 69.832031 10.996094 L 69.832031 10.960938 L 69.796875 10.960938 L 69.796875 10.925781 L 69.726562 10.925781 L 69.726562 10.886719 L 69.691406 10.886719 L 69.691406 10.851562 L 69.65625 10.851562 L 69.65625 10.816406 L 69.585938 10.816406 L 69.585938 10.78125 L 69.550781 10.78125 L 69.550781 10.746094 L 69.515625 10.746094 L 69.515625 10.710938 L 69.441406 10.710938 L 69.441406 10.675781 L 69.40625 10.675781 L 69.40625 10.640625 L 69.371094 10.640625 L 69.371094 10.605469 L 69.300781 10.605469 L 69.300781 10.570312 L 69.265625 10.570312 L 69.265625 10.535156 L 69.230469 10.535156 L 69.230469 10.5 L 69.160156 10.5 L 69.160156 10.464844 L 69.125 10.464844 L 69.125 10.429688 L 69.054688 10.429688 L 69.054688 10.394531 L 69.015625 10.394531 L 69.015625 10.359375 L 68.980469 10.359375 L 68.980469 10.324219 L 68.910156 10.324219 L 68.910156 10.289062 L 68.875 10.289062 L 68.875 10.253906 L 68.804688 10.253906 L 68.804688 10.214844 L 68.769531 10.214844 L 68.769531 10.179688 L 68.699219 10.179688 L 68.699219 10.144531 L 68.664062 10.144531 L 68.664062 10.109375 L 68.589844 10.109375 L 68.589844 10.074219 L 68.554688 10.074219 L 68.554688 10.039062 L 68.484375 10.039062 L 68.484375 10.003906 L 68.414062 10.003906 L 68.414062 9.96875 L 68.378906 9.96875 L 68.378906 9.933594 L 68.308594 9.933594 L 68.308594 9.898438 L 68.273438 9.898438 L 68.273438 9.863281 L 68.203125 9.863281 L 68.203125 9.828125 L 68.128906 9.828125 L 68.128906 9.792969 L 68.09375 9.792969 L 68.09375 9.757812 L 68.023438 9.757812 L 68.023438 9.722656 L 67.953125 9.722656 L 67.953125 9.6875 L 67.917969 9.6875 L 67.917969 9.652344 L 67.847656 9.652344 L 67.847656 9.617188 L 67.773438 9.617188 L 67.773438 9.582031 L 67.703125 9.582031 L 67.703125 9.546875 L 67.667969 9.546875 L 67.667969 9.507812 L 67.597656 9.507812 L 67.597656 9.472656 L 67.527344 9.472656 L 67.527344 9.4375 L 67.457031 9.4375 L 67.457031 9.402344 L 67.386719 9.402344 L 67.386719 9.367188 L 67.3125 9.367188 L 67.3125 9.332031 L 67.242188 9.332031 L 67.242188 9.296875 L 67.171875 9.296875 L 67.171875 9.261719 L 67.101562 9.261719 L 67.101562 9.226562 L 67.03125 9.226562 L 67.03125 9.191406 L 66.960938 9.191406 L 66.960938 9.15625 L 66.886719 9.15625 L 66.886719 9.121094 L 66.816406 9.121094 L 66.816406 9.085938 L 66.746094 9.085938 L 66.746094 9.050781 L 66.640625 9.050781 L 66.640625 9.015625 L 66.570312 9.015625 L 66.570312 8.980469 L 66.496094 8.980469 L 66.496094 8.945312 L 66.390625 8.945312 L 66.390625 8.910156 L 66.320312 8.910156 L 66.320312 8.875 L 66.214844 8.875 L 66.214844 8.835938 L 66.144531 8.835938 L 66.144531 8.800781 L 66.035156 8.800781 L 66.035156 8.765625 L 65.929688 8.765625 L 65.929688 8.730469 L 65.859375 8.730469 L 65.859375 8.695312 L 65.753906 8.695312 L 65.753906 8.660156 L 65.644531 8.660156 L 65.644531 8.625 L 65.539062 8.625 L 65.539062 8.589844 L 65.433594 8.589844 L 65.433594 8.554688 L 65.292969 8.554688 L 65.292969 8.519531 L 65.183594 8.519531 L 65.183594 8.484375 L 65.042969 8.484375 L 65.042969 8.449219 L 64.902344 8.449219 L 64.902344 8.414062 L 64.757812 8.414062 L 64.757812 8.378906 L 64.617188 8.378906 L 64.617188 8.34375 L 64.441406 8.34375 L 64.441406 8.308594 L 64.226562 8.308594 L 64.226562 8.273438 L 64.015625 8.273438 L 64.015625 8.238281 L 63.730469 8.238281 L 63.730469 8.203125 L 63.304688 8.203125 L 63.304688 8.164062 L 62.382812 8.164062 Z M 62.382812 8.203125 "/>
<path style=" stroke:none;fill-rule:evenodd;fill:rgb(100%,100%,100%);fill-opacity:1;" d="M 45.136719 36.363281 L 65.386719 36.363281 L 65.371094 23.089844 L 60.300781 26.65625 C 54.226562 31.023438 55.847656 30.671875 52.503906 28.371094 L 45.03125 23.089844 Z M 45.136719 36.363281 "/>
<path style=" stroke:none;fill-rule:evenodd;fill:rgb(0%,0%,0%);fill-opacity:1;" d="M 45.03125 23.089844 L 52.503906 28.371094 C 55.847656 30.671875 54.226562 31.023438 60.300781 26.65625 L 65.371094 23.089844 L 65.386719 36.363281 L 45.136719 36.363281 Z M 55.269531 28.371094 C 54.683594 28.105469 53.667969 27.265625 53.105469 26.886719 C 52.355469 26.375 51.722656 25.882812 50.96875 25.355469 C 50.242188 24.851562 49.539062 24.347656 48.8125 23.84375 L 46.761719 22.308594 L 63.652344 22.304688 C 63.382812 22.675781 63.679688 22.332031 63.34375 22.589844 L 57.308594 26.886719 C 56.820312 27.230469 55.660156 27.96875 55.269531 28.371094 Z M 44.039062 20.828125 C 43.265625 21.089844 43.46875 21.84375 43.46875 22.742188 L 43.46875 35.492188 C 43.46875 38.292969 43.359375 37.902344 46.140625 37.902344 C 48.246094 37.902344 65.96875 38 66.429688 37.851562 C 67.117188 37.625 66.949219 36.71875 66.945312 35.933594 L 66.945312 23.183594 C 66.945312 20.382812 67.058594 20.773438 64.277344 20.773438 C 62.199219 20.773438 44.472656 20.679688 44.039062 20.828125 Z M 44.039062 20.828125 "/>
<path style=" stroke:none;fill-rule:evenodd;fill:rgb(100%,100%,100%);fill-opacity:1;" d="M 55.269531 28.371094 C 55.660156 27.96875 56.820312 27.230469 57.308594 26.886719 L 63.34375 22.589844 C 63.679688 22.332031 63.382812 22.675781 63.652344 22.304688 L 46.761719 22.308594 L 48.8125 23.84375 C 49.539062 24.347656 50.242188 24.851562 50.96875 25.355469 C 51.722656 25.882812 52.355469 26.375 53.105469 26.886719 C 53.667969 27.265625 54.683594 28.105469 55.269531 28.371094 Z M 55.269531 28.371094 "/>
</g>
</svg>
