<svg id="Camada_1" data-name="Camada 1" xmlns="http://www.w3.org/2000/svg" xmlns:xlink="http://www.w3.org/1999/xlink" viewBox="0 0 22.38 21.87"><defs><style>.cls-1{opacity:0.8;mix-blend-mode:multiply;fill:url(#Gradiente_sem_nome_5);}.cls-2{fill:#2b499a;}.cls-3{fill:#00a7b5;}.cls-4{fill:#e30613;stroke:#1d1d1b;stroke-miterlimit:10;stroke-width:0.5px;}.cls-5{fill:#fff;}</style><linearGradient id="Gradiente_sem_nome_5" x1="18" y1="1" x2="18" y2="25.73" gradientUnits="userSpaceOnUse"><stop offset="0.3" stop-color="#2581c4"/><stop offset="1" stop-color="#2581c4" stop-opacity="0"/></linearGradient><symbol id="E-mail_-_laranja" data-name="E-mail - laranja" viewBox="0 0 35 25.73"><path class="cls-1" d="M1,1V25.73H35V1ZM28.83,4.61,18,12.4,7.17,4.61Zm3.6,18.54H3.58V6.46L18,16.84,32.43,6.46Z"/><path class="cls-2" d="M0,0V24.73H34V0ZM27.83,3.61,17,11.4,6.17,3.61Zm3.59,18.54H2.58V5.46L17,15.84,31.42,5.46Z"/></symbol><symbol id="Seta_10" data-name="Seta 10" viewBox="0 0 62.88 47.87"><path class="cls-3" d="M18.13,11.76,0,29.74,17.83,47.86V38.58s37.43,10.61,43-21.22C56.74,20.6,34.34,32.54,18.13,20.6Z"/><path class="cls-3" d="M62.74,0s.91-.21-1.88,17.36c-3,2.83-14.31,7.92-22,8.14,0,0,10.55,1.48,11.2-25.5"/></symbol></defs><use width="35" height="25.73" transform="translate(0 0.95) scale(0.54 0.72)" xlink:href="#E-mail_-_laranja"/><use width="62.88" height="47.86" transform="translate(6.52 9.79) scale(0.25)" xlink:href="#Seta_10"/><g id="intimacao_peticionar_resposta_negada"><circle class="cls-4" cx="16.32" cy="5.66" r="5.41"/><path class="cls-5" d="M19.18,3.94a11.23,11.23,0,0,1-.53,2.74l-.29,1.15h-.64l-.29-1.15a10.81,10.81,0,0,1-.53-2.74A1,1,0,0,1,18,2.81,1,1,0,0,1,19.18,3.94Zm-2.26,6A1.12,1.12,0,1,1,18,11,1.11,1.11,0,0,1,16.92,9.9Z" transform="translate(-1.77 -0.97)"/></g></svg>