<?xml version="1.0" encoding="UTF-8"?>
<svg xmlns="http://www.w3.org/2000/svg" xmlns:xlink="http://www.w3.org/1999/xlink" width="26px" height="px" viewBox="0 0 26 26" version="1.1">
<g id="surface1">
<path style=" stroke:none;fill-rule:nonzero;fill:rgb(29.019609%,55.29412%,67.450982%);fill-opacity:1;" d="M 22.152344 6.050781 L 13 11.769531 L 3.847656 6.050781 L 3.847656 3.761719 L 13 9.480469 L 22.152344 3.761719 Z M 22.152344 1.472656 L 3.847656 1.472656 C 2.578125 1.472656 1.558594 2.492188 1.558594 3.761719 L 1.558594 17.488281 C 1.558594 18.753906 2.585938 19.777344 3.847656 19.777344 L 22.152344 19.777344 C 23.414062 19.777344 24.441406 18.753906 24.441406 17.488281 L 24.441406 3.761719 C 24.441406 2.492188 23.410156 1.472656 22.152344 1.472656 Z M 22.152344 1.472656 "/>
<path style=" stroke:none;fill-rule:evenodd;fill:rgb(0%,80.000001%,100%);fill-opacity:1;" d="M 7.800781 18.9375 L 8.515625 19.636719 C 8.757812 19.875 8.996094 20.113281 9.242188 20.347656 L 13.214844 24.210938 C 13.277344 24.269531 13.332031 24.320312 13.402344 24.382812 C 13.472656 24.453125 13.511719 24.515625 13.613281 24.527344 C 13.726562 24.402344 13.71875 23.933594 13.734375 23.746094 C 13.769531 23.359375 13.921875 21.570312 13.964844 21.328125 C 15.429688 21.175781 16.28125 21.125 17.71875 20.507812 C 20.480469 19.320312 22.167969 16.835938 22.75 14 C 22.78125 13.84375 22.878906 13.335938 22.863281 13.183594 C 22.75 13.21875 22.71875 13.324219 22.65625 13.402344 C 22.15625 14.027344 21.941406 14.339844 21.308594 14.972656 C 20.039062 16.242188 18.652344 17.238281 16.796875 17.644531 C 16.292969 17.753906 15.789062 17.816406 15.300781 17.8125 C 14.957031 17.808594 14.285156 17.75 14.03125 17.621094 C 14 17.453125 14.050781 16.957031 14.058594 16.753906 L 14.140625 15.035156 C 14.152344 14.804688 14.21875 14.363281 14.105469 14.195312 C 13.933594 14.210938 12.714844 15.175781 12.488281 15.351562 Z M 7.800781 18.9375 "/>
</g>
</svg>
