<svg id="Camada_1" data-name="Camada 1" xmlns="http://www.w3.org/2000/svg" xmlns:xlink="http://www.w3.org/1999/xlink" viewBox="0 0 15.65 20"><defs><style>.cls-1,.cls-2{fill:none;}.cls-2{stroke:#4d4d4d;stroke-linecap:round;stroke-linejoin:round;stroke-width:0;}.cls-3{fill:#4d4d4d;}.cls-4{fill:#e9b801;}</style><symbol id="Bloquear_2" data-name="Bloquear 2" viewBox="0 0 50 31.99"><path class="cls-1" d="M23.65,14l-2.41,7.05h7.52l-2.41-7a4,4,0,1,0-2.7,0Z"/><path class="cls-4" d="M0,2V30a2,2,0,0,0,2,2H48a2,2,0,0,0,2-2V2a2,2,0,0,0-1.89-2H1.89A2,2,0,0,0,0,2ZM25,6.27A4,4,0,0,1,26.35,14l2.41,7.05H21.24l2.41-7A4,4,0,0,1,25,6.27Z"/></symbol><symbol id="Bloquear" data-name="Bloquear" viewBox="0 0 36 31.89"><path class="cls-1" d="M29,17.92a11,11,0,0,0-22,0s0,0,0-.06v6.19H8.06v7.83H29v-14S29,17.9,29,17.92Z"/><line class="cls-2" x1="8.06" y1="31.88" x2="29" y2="31.88"/><path class="cls-3" d="M36,17.86a18,18,0,0,0-36,0H0v6.19H7V17.86s0,0,0,.06a11,11,0,0,1,22,0s0,0,0-.06v14h7v-14Z"/></symbol></defs><g id="Marcador_7_-_cinza" data-name="Marcador 7 - cinza"><use width="50" height="31.99" transform="translate(0 9.98) scale(0.31)" xlink:href="#Bloquear_2"/><use width="36" height="31.88" transform="translate(2.18 0) scale(0.31)" xlink:href="#Bloquear"/></g></svg>