<?xml version="1.0" encoding="UTF-8"?>
<!DOCTYPE svg PUBLIC "-//W3C//DTD SVG 1.1//EN" "http://www.w3.org/Graphics/SVG/1.1/DTD/svg11.dtd">
<!-- Creator: CorelDRAW -->
<svg xmlns="http://www.w3.org/2000/svg" xml:space="preserve" width="6.7732mm" height="6.7732mm" version="1.1" style="shape-rendering:geometricPrecision; text-rendering:geometricPrecision; image-rendering:optimizeQuality; fill-rule:evenodd; clip-rule:evenodd"
viewBox="0 0 677.32 677.32"
 xmlns:xlink="http://www.w3.org/1999/xlink"
 xmlns:xodm="http://www.corel.com/coreldraw/odm/2003">
 <defs>
  <style type="text/css">
   <![CDATA[
    .fil2 {fill:#455A63}
    .fil0 {fill:#59647A}
    .fil1 {fill:#FDC105}
   ]]>
  </style>
 </defs>
 <g id="Camada_x0020_1">
  <metadata id="CorelCorpID_0Corel-Layer"/>
  <path class="fil0" d="M-259.15 267.92l13.49 0c0.42,-0.76 1.85,-0.44 9.81,-0.44 10.88,0 77.38,0.91 81.08,-0.24 1.62,-0.5 2.96,-1.61 3.88,-2.7l2.7 -4.22c1.88,-3.31 0.62,-8.88 -1.09,-11.68 -1.75,-2.86 -5.64,-4.53 -8.96,-4.66 -8.8,-0.34 -18.35,-0.03 -27.23,-0.02l-217.65 0.02c-10.27,0 -16.82,-1.85 -21.38,6.01 -2,3.45 -2.5,10.86 1.44,13.98 0.7,0.56 0.57,0.46 1.13,0.95 1.44,1.24 2.6,2.46 4.95,2.19l1.3 0.51c4.66,0.75 139.56,-0.56 156.53,-0.08 0,0.13 0,0.25 0,0.38zm181.89 78.71c1.88,1.26 3.69,2.62 5.43,4.07 0.32,0.18 0.6,0.39 1.06,0.9 13.62,11.87 22.22,29.34 22.22,48.82 0,35.76 -28.98,64.74 -64.73,64.74 -8.56,0 -16.73,-1.66 -24.2,-4.68 -0.79,-0.14 -1.61,-0.22 -2.54,-0.22 -4.08,0.04 -15.83,-7.99 -20.26,-12.14 -4.3,-4.01 -3.86,-3.78 -7.37,-8.26 -0.06,-0.08 -0.15,-0.2 -0.22,-0.28l-5.32 -7.71c-2.81,-5.33 -6.11,-11.99 -6.71,-17.99 -0.68,-6.68 -2.34,-15.45 -0.99,-23.54l2.02 -10.16c0.56,-1.26 1.7,-3.34 2.01,-4.36 0.69,-2.23 0.68,-3.81 2.37,-6.96l3.58 -5.4c4.63,-7.25 14.24,-16.94 22.39,-20.59 0.59,-0.26 1.47,-0.63 2.01,-0.94l1.98 -1.11c1.74,-0.77 2.91,-1.21 4.55,-1.97 10.27,-4.78 27.08,-6.26 37.14,-3.59 2.82,0.75 7.23,1.34 9.88,2.74 6.02,3.19 10.03,4.21 15.7,8.63zm13.88 120.39c-3.94,-0.68 -2.38,1.11 -5.17,2.73 -1.22,0.72 -1.47,0.56 -2.69,1.42 -12.05,8.56 -30.33,12.52 -45.21,12.5 -8.84,-0.02 -16.28,-1.13 -24.75,-3.59l-4.3 -1.82c-5.1,-2.29 -1.78,0.03 -6.82,-2.74 -1.97,-1.09 -3.87,-1.72 -6.03,-3.08l-10.82 -6.53c-0.37,2.13 -0.48,4.04 -0.74,5.95 -0.29,2.18 -0.91,3.07 -1.27,5.19 -0.71,4.21 -1.22,7.49 -1.86,11.85l-8.45 44.72c-0.75,4.56 -3.59,20.06 -3.52,23.36 0.29,14.91 15.27,21.88 26.55,17.41l5.85 -3.16c3.67,-2.16 2.94,-0.35 6.78,-2.43 0.1,-0.05 0.23,-0.12 0.32,-0.17l2.32 -1.59c0.09,-0.06 0.21,-0.15 0.31,-0.21 0.78,-0.5 1.46,-0.71 2.34,-1.24 4.54,-2.72 2.44,-1.04 4.91,-2.21 1.13,-0.54 2.62,-1.79 3.95,-2.51l9.11 -4.5c5.28,-2.59 4.24,-4.81 12.37,-0.08l10.33 5.29c4.7,2.55 12.96,7.16 17.92,8.86 1.29,0.45 2.74,1.64 4.09,2.37 6.25,3.39 15.86,4.13 21.54,-0.57 4.04,-3.34 7.53,-6.98 8.01,-12.73 0.47,-5.7 -2.19,-17.49 -2.88,-24.18l-4.29 -22.16c-0.99,-3.03 -0.84,-7.95 -1.82,-11.36 -1.15,-3.95 -0.83,-7.64 -2.08,-11.57 -1.15,-3.59 -2,-15.06 -2.9,-17.28 -1.04,-2.6 -0.82,-2.56 -1.1,-5.94zm-350.82 -69.85c-2.63,0 -3.52,-0.11 -5.41,-1.07 -5.19,-2.64 -7.11,-7.92 -5.98,-13.42 0.46,-2.21 -0.2,-0.43 1.27,-2.06 6.04,-6.69 5.41,-5.45 17.17,-5.45l59.96 -0.01c16.42,0 40.38,-0.63 56.42,0.16 0.94,2.26 2.93,0.29 4.98,3.84 3.02,5.23 4.3,9.83 -1.59,15.43 -2.52,2.4 -3.28,2.58 -7.92,2.58l-118.9 0zm3.02 -192.93c-6.42,-0.02 -8.38,0.36 -11.61,-3.95 -2.58,-3.44 -4.37,-7.52 -2.27,-11.89 4.58,-9.53 11.33,-7.34 23.46,-7.36l242.33 -0.02c4.52,0 5.48,1.35 8.03,3.6 6.9,6.08 3.08,19.63 -7.53,19.63l-252.41 -0.01zm295.38 -112.67c-15.36,0.37 -31.1,0.06 -46.5,0.06 -7.6,0 -15.63,0.24 -23.18,-0.04 -5.79,-0.22 -8.69,-1.65 -12.91,-4.35l-7.95 -9.2c-1.21,-2.67 -2.42,-5.38 -2.91,-8.68 -0.61,-4.12 -0.75,-64.59 -0.13,-68.3 2.23,0.02 2.17,0.75 3.33,2.13l20.4 19.91c1.14,1.27 2.06,1.78 3.29,2.81 2.26,1.91 4.38,4.99 8.51,8.55 1.44,1.25 1.85,1.92 3.09,2.96 2.84,2.38 4.41,4.98 8.58,8.05l41.48 39.65c1.42,1.39 0.77,1.44 2.65,2.87 1.57,1.18 2.02,1.22 2.25,3.58zm-367.92 -117.52c-4.05,4.24 -7.06,10.74 -7.15,18.63 -0.1,8.88 0,17.83 0,26.72l0.01 373.83c0,35.51 -0.47,71.33 0.02,106.8 0.12,9.45 3.92,16.72 11.09,22.18 4.28,3.25 9.27,4.8 15.16,4.9 17.7,0.3 35.68,0.01 53.41,0.01l160.21 -0.01c8.9,0 17.81,0.01 26.71,0 4.36,0 8.73,0.01 13.1,0.01 3.38,-0.01 10.68,1.1 12.35,-1.18l11.84 -66.73c0.27,-2.08 0.41,-5.35 0.86,-7.32 1.61,-7.04 -0.75,-4.18 -3.51,-10.66l-7.25 -16.95c-4.27,-11.92 -4.91,-28.17 -1.91,-40.77 0.47,-1.95 0.63,-4.95 1.5,-6.66l6.35 -15.22c0.05,-0.11 0.12,-0.24 0.17,-0.34 2.87,-5.46 6.81,-11.7 10.9,-16.38 0.94,-1.08 -0.03,-0.1 0.99,-1l6.19 -5.89c1.61,-1.52 3.58,-1.78 3.8,-4.2 -11.16,-0.62 -23.9,-0.06 -35.23,-0.06l-106.31 0c-8.28,0 -102.41,0.73 -105.93,-0.37 -4.11,-1.28 -8.12,-4.22 -9.19,-8.43 -0.59,-2.33 -0.51,-5.89 0.94,-7.62 6.54,-7.79 9.86,-6.17 20.48,-6.17 30,0.01 244.19,-0.7 248.1,0.28 1.88,0.48 4.62,2.09 5.66,3.35 1.63,1.98 2.16,3.92 2.98,6 1.42,0.07 2.08,0.18 3.34,-0.61 3.56,-2.26 8.72,-2.57 12.52,-3.81 5.96,-1.95 21.13,-2.39 28.2,-0.64 2.81,0.69 5.47,1.15 8.45,1.68l16.44 4.51c0.47,-37.91 0.02,-76.16 0,-114.11l0.01 -128.47c0.01,-13.4 -1.16,-8.62 -5.18,-12.69l-8.84 -8.8c-1.6,-1.5 -2.14,-2.16 -3.86,-3.67l-12.67 -12.06c-0.88,-0.95 -0.01,-0.11 -1.01,-0.95l-0.56 -0.44c-0.08,-0.07 -0.2,-0.16 -0.28,-0.23l-22.62 -20.77c-1.73,-1.94 -2.08,-1.3 -3.88,-3.12l-10.7 -10.47c-3.77,-3.3 -8.06,-6.57 -11.48,-10.2l-18.46 -17.3c-0.43,-0.4 -0.4,-0.34 -0.8,-0.73 -0.89,-0.88 1.33,1.45 -0.51,-0.52 -0.07,-0.08 -0.17,-0.2 -0.24,-0.28 -1.99,-2.21 -4.24,-3.11 -5.81,-5.31 -2.53,-0.99 -3.39,-3.21 -5.82,-4.7 -2.58,-1.57 -24.18,-0.78 -28.09,-0.78l-232.76 -0.01c-5.66,0 -14.08,-0.65 -18.99,0.76 -9.43,2.72 -8.99,5.36 -12.74,6.97z"/>
  <g id="_105553254171104">
   <path class="fil1" d="M164.29 285.51c-11.52,5.79 -17.39,4.91 -26.97,13.24 -32.58,28.34 -26.23,51.06 -26.27,97.14 -0.04,54.39 0.08,108.78 0,163.17 -0.04,25.09 -1.91,52.74 11.32,70.7 10.73,14.57 26.66,28.03 51.85,29.51 25.66,1.5 55.49,0.2 81.59,0.18 27.61,-0.02 55.22,0.02 82.84,0 53.08,-0.03 110.69,2.16 163.2,-0.11 25.92,-1.13 40.98,-14.12 52.52,-28.88 13.56,-17.33 11.85,-45.06 11.88,-70.15 0.07,-54.39 -0.03,-108.78 0,-163.17 0.03,-45.92 6.27,-69.91 -25.63,-97.8 -10.41,-9.09 -15.34,-7.61 -27.61,-13.83 -25.24,-0.2 -55.5,0.22 -80.65,-1.09l-187.42 -0.01c-25.11,1.35 -55.36,0.87 -80.65,1.1z"/>
   <path class="fil2" d="M164.29 285.51c25.29,-0.23 55.54,0.25 80.65,-1.1 -0.05,-23.51 -0.01,-47.01 0,-70.51 0,-25.05 -1.05,-40.12 8.3,-61.57 31.87,-73.16 138.92,-73.11 170.82,0 9.33,21.39 8.3,36.56 8.3,61.57 -0.01,23.5 0.02,47.01 0,70.52 25.15,1.31 55.41,0.89 80.65,1.09 -2.47,-23.99 1.17,-76.89 -1.09,-109.27 -2.2,-31.39 -14.59,-60.37 -28.6,-81.92 -24.65,-37.92 -76.44,-77.36 -144.7,-77.37 -94.48,-0.02 -166.46,74.86 -173.16,158.03 -2.86,35.56 2.29,76.39 -1.17,110.53z"/>
   <path class="fil2" d="M308.84 490.97c-1.71,19.76 -5.68,41.35 -8.57,61.17 -1.65,11.3 -3.65,20.15 5.2,25.05 6.31,3.49 24.82,1.94 33.18,1.95 29.7,0.01 43.08,5.95 38.49,-27.03 -2.82,-20.22 -6.74,-41.08 -8.59,-61.12 21.78,-8.75 44.05,-40.62 34.9,-75.81 -12.08,-46.44 -67.7,-66.82 -106.26,-35.67 -5.73,4.63 -9.66,8.11 -14.14,14.73 -3.61,5.33 -7.03,12.91 -8.96,19.93 -9.75,35.62 12.52,67.98 34.75,76.8z"/>
  </g>
 </g>
</svg>
