<svg id="Camada_1" data-name="Camada 1" xmlns="http://www.w3.org/2000/svg" xmlns:xlink="http://www.w3.org/1999/xlink" viewBox="0 0 18.61 21.08"><defs><style>.cls-1{fill:none;}.cls-2{fill:#ced600;stroke:#1d1d1b;stroke-width:0.65px;}.cls-3{fill:#fff;}.cls-4{fill:#1a568b;}.cls-5{fill:#575756;}.cls-6{fill:#706f6f;}.cls-7{clip-path:url(#clip-path);}.cls-8{stroke:#22a537;stroke-miterlimit:10;stroke-width:0.25px;fill:url(#Gradiente_sem_nome_2);}.cls-9{fill:#5cb130;}</style><clipPath id="clip-path" transform="translate(-2.99 -1.03)"><rect class="cls-1" x="14.29" y="13.83" width="5.48" height="8.02"/></clipPath><linearGradient id="Gradiente_sem_nome_2" x1="17.5" y1="3.67" x2="24.45" y2="3.67" gradientTransform="translate(-2.96 -0.17)" gradientUnits="userSpaceOnUse"><stop offset="0" stop-color="#50ae32"/><stop offset="0.19" stop-color="#50ae32"/><stop offset="0.35" stop-color="#54af32"/><stop offset="0.5" stop-color="#5ab031"/><stop offset="0.63" stop-color="#66b43c"/><stop offset="0.77" stop-color="#77ba50"/><stop offset="0.89" stop-color="#92c46c"/><stop offset="1" stop-color="#b0d289"/></linearGradient><symbol id="E-mail" data-name="E-mail" viewBox="0 0 66 48"><rect class="cls-3" width="66" height="48"/><path class="cls-4" d="M0,48V0H66V48ZM33,17.25l8.32,6L58.79,5H7.2L24.68,23.24Zm0,8.63L12,41H54ZM22.22,25,5,7V37.4ZM61,7,43.78,25,61,37.4Z"/></symbol><symbol id="Crianças" data-name="Crianças" viewBox="0 0 27.4 40.12"><polygon class="cls-2" points="7.03 32.06 0.57 20.98 3.9 21.04 10.34 31.73 7.03 32.06"/><polygon class="cls-2" points="20.42 32.06 26.83 21 23.5 21.02 17.11 31.73 20.42 32.06"/><polygon class="cls-2" points="9.11 15.26 9.11 31.8 18.33 31.8 18.33 14.71 18.33 14.71 18.33 0.33 15.05 0.33 15.05 14.82 12.36 14.82 12.36 0.33 9.09 0.33 9.09 15.26 9.11 15.26"/><path class="cls-2" d="M9.86,35.79a4,4,0,1,1,4,4A4,4,0,0,1,9.86,35.79Z"/></symbol></defs><path class="cls-5" d="M14.29,21.93V7.21h0V6.09c0-.06-.06-.11-.06-.16s.06.1.06.16V3.62a1.23,1.23,0,0,0-1.23-1.24H4.23A1.24,1.24,0,0,0,3,3.62V21.93Zm-1.24-1.3H9.27V17H8v3.65H4.21V3.55h8.84Z" transform="translate(-2.99 -1.03)"/><rect class="cls-6" x="2.5" y="5.85" width="1.28" height="1.06"/><rect class="cls-6" x="5.01" y="14.1" width="1.28" height="1.06"/><rect class="cls-6" x="5.01" y="7.97" width="1.28" height="1.06"/><rect class="cls-6" x="5.01" y="12.21" width="1.28" height="1.06"/><rect class="cls-6" x="5.01" y="10.09" width="1.28" height="1.06"/><rect class="cls-6" x="2.5" y="14.1" width="1.28" height="1.06"/><rect class="cls-6" x="2.5" y="7.97" width="1.28" height="1.06"/><rect class="cls-6" x="5.01" y="5.85" width="1.28" height="1.06"/><rect class="cls-6" x="2.5" y="16.28" width="1.28" height="1.06"/><rect class="cls-6" x="2.5" y="12.21" width="1.28" height="1.06"/><rect class="cls-6" x="2.5" y="10.09" width="1.28" height="1.06"/><rect class="cls-6" x="7.52" y="5.85" width="1.28" height="1.06"/><rect class="cls-6" x="7.52" y="12.21" width="1.28" height="1.06"/><rect class="cls-6" x="7.52" y="14.1" width="1.28" height="1.06"/><rect class="cls-6" x="7.52" y="16.28" width="1.28" height="1.06"/><rect class="cls-6" x="2.5" y="3.73" width="1.28" height="1.06"/><rect class="cls-6" x="5.01" y="3.73" width="1.28" height="1.06"/><rect class="cls-6" x="7.52" y="3.73" width="1.28" height="1.06"/><line class="cls-1" x1="15.88" x2="15.88" y2="1.32"/><use width="66" height="48" transform="matrix(0.14, 0, 0, -0.14, 6.68, 11.86)" xlink:href="#E-mail"/><g class="cls-7"><use width="27.4" height="40.12" transform="matrix(0.2, 0, 0, -0.2, 11.3, 20.82)" xlink:href="#Crianças"/></g><path class="cls-8" d="M18,2a2.13,2.13,0,0,1,1.27.38A6.69,6.69,0,0,1,20.51,3.5a7.45,7.45,0,0,1-1.22,1.16,2.16,2.16,0,0,1-2.59,0A7.45,7.45,0,0,1,15.48,3.5,6.69,6.69,0,0,1,16.7,2.34,2.26,2.26,0,0,1,18,2m0-.78a3,3,0,0,0-1.72.53A8.78,8.78,0,0,0,14.5,3.5a8.73,8.73,0,0,0,1.8,1.79,3,3,0,0,0,3.4,0A8.48,8.48,0,0,0,21.45,3.5,8.25,8.25,0,0,0,19.7,1.71,3,3,0,0,0,18,1.18Z" transform="translate(-2.99 -1.03)"/><path class="cls-9" d="M18,3.09a.38.38,0,1,0,.38.38h0A.38.38,0,0,0,18,3.09Z" transform="translate(-2.99 -1.03)"/><path class="cls-9" d="M18,4.6A1.14,1.14,0,1,1,19.1,3.46h0A1.14,1.14,0,0,1,18,4.6Zm0-1.9a.76.76,0,1,0,.76.76h0A.76.76,0,0,0,18,2.7Z" transform="translate(-2.99 -1.03)"/></svg>