<svg id="Camada_1" data-name="Camada 1" xmlns="http://www.w3.org/2000/svg" xmlns:xlink="http://www.w3.org/1999/xlink" viewBox="0 0 21.07 22.22"><defs><style>.cls-1{fill:#706f6f;}.cls-2{fill:#63b22f;}.cls-3{font-size:16px;fill:#fff;font-family:OptaneBold, Optane;}</style><symbol id="Bloquear" data-name="Bloquear" viewBox="0 0 50 63.88"><path class="cls-1" d="M48,31.88H43v-14h0a18,18,0,0,0-36,0H7v14H2a2,2,0,0,0-2,2v28a2,2,0,0,0,2,2H48a2,2,0,0,0,2-2v-28A2,2,0,0,0,48,31.88Zm-34-14s0,0,0,.06a11,11,0,0,1,22,0s0,0,0-.06v14H14ZM28.76,53H21.24l2.41-7.05a4,4,0,1,1,2.7,0Z"/></symbol><symbol id="Seta_10" data-name="Seta 10" viewBox="0 0 62.88 47.87"><path class="cls-2" d="M18.13,11.76,0,29.74,17.83,47.86V38.58s37.43,10.61,43-21.22C56.74,20.6,34.34,32.54,18.13,20.6Z"/><path class="cls-2" d="M62.74,0s.91-.21-1.88,17.36c-3,2.83-14.31,7.92-22,8.14,0,0,10.55,1.48,11.2-25.5"/></symbol></defs><g id="Marcador_7_-_cinza" data-name="Marcador 7 - cinza"><text class="cls-3" transform="translate(10.53 16.1)">!</text><use width="50" height="63.88" transform="translate(5.15 0) scale(0.32)" xlink:href="#Bloquear"/></g><use width="62.88" height="47.86" transform="matrix(-0.23, 0, 0, 0.23, 14.3, 11.33)" xlink:href="#Seta_10"/></svg>