<?xml version="1.0" encoding="UTF-8"?>
<svg xmlns="http://www.w3.org/2000/svg" xmlns:xlink="http://www.w3.org/1999/xlink" width="26px" height="px" viewBox="0 0 26 26" version="1.1">
<g id="surface1">
<path style=" stroke:none;fill-rule:evenodd;fill:rgb(60.000002%,80.000001%,60.000002%);fill-opacity:1;" d="M 5.8125 10.148438 L 20.183594 10.148438 L 20.183594 11.105469 L 5.8125 11.105469 Z M 5.8125 8.011719 L 5.835938 7.753906 L 20.15625 7.753906 L 20.191406 8.007812 L 20.183594 8.710938 L 5.8125 8.710938 Z M 5.808594 5.359375 L 20.183594 5.359375 L 20.175781 6.316406 L 5.84375 6.316406 Z M 1.023438 2.3125 L 1.023438 19.855469 C 1.023438 20.429688 1.765625 21.164062 2.339844 21.164062 L 9.164062 21.164062 L 9.167969 19.707031 C 9.167969 19.136719 8.960938 19.480469 8.578125 18.628906 C 8.277344 17.957031 8.507812 17.578125 8.375 17.09375 C 8.222656 16.539062 8.011719 16.34375 8.132812 15.609375 C 8.277344 14.710938 8.914062 14.285156 9.046875 13.941406 C 9.292969 13.300781 9.332031 12.984375 10.136719 12.457031 C 10.632812 12.132812 11.082031 12.238281 11.472656 12.050781 C 12.058594 11.765625 12.878906 11.148438 14.105469 11.84375 C 14.378906 12 14.335938 12.070312 14.664062 12.128906 C 16.796875 12.511719 16.484375 13.515625 16.964844 14.210938 C 17.121094 14.4375 17.40625 14.5 17.671875 15.246094 C 18.039062 16.289062 17.617188 16.78125 17.390625 17.269531 C 17.273438 17.511719 17.34375 17.761719 17.292969 18.089844 C 17.074219 19.507812 16.792969 17.757812 16.835938 21.160156 L 23.777344 21.164062 C 24.304688 21.164062 24.976562 20.375 24.976562 19.855469 L 24.976562 2.3125 C 24.976562 1.734375 24.335938 1.046875 23.753906 1.046875 L 2.246094 1.046875 C 1.664062 1.046875 1.023438 1.734375 1.023438 2.3125 Z M 1.023438 2.3125 "/>
<path style=" stroke:none;fill-rule:evenodd;fill:rgb(98.039216%,75.294119%,17.647059%);fill-opacity:1;" d="M 11.847656 13.0625 C 10.949219 12.976562 10.433594 13.289062 10.140625 13.933594 C 9.851562 14.554688 10.273438 14.371094 9.710938 14.820312 C 9.488281 15 9.289062 15.28125 9.207031 15.648438 C 9.109375 16.066406 9.195312 16.386719 9.378906 16.710938 C 9.707031 17.289062 9.414062 17.0625 9.4375 17.714844 C 9.472656 18.808594 10.476562 18.929688 10.667969 19.109375 C 10.835938 19.265625 10.742188 19.46875 11.183594 19.847656 C 12.085938 20.625 12.699219 19.800781 13.117188 19.996094 C 13.847656 20.332031 14.578125 20.167969 14.96875 19.523438 C 15.386719 18.839844 14.910156 19.265625 15.671875 18.90625 C 16.28125 18.621094 16.585938 17.980469 16.367188 17.097656 C 16.570312 16.765625 17.011719 16.480469 16.921875 15.78125 C 16.851562 15.222656 16.480469 14.832031 16.078125 14.675781 C 16.082031 12.804688 14.410156 13.121094 14.246094 13.066406 C 13.808594 12.914062 13.355469 11.742188 11.847656 13.0625 Z M 11.847656 13.0625 "/>
<path style=" stroke:none;fill-rule:evenodd;fill:rgb(99.607843%,81.568629%,29.411766%);fill-opacity:1;" d="M 10.226562 24.269531 C 10.226562 25.585938 11.398438 24.605469 12.246094 24.109375 C 13.316406 23.488281 12.816406 23.421875 14.519531 24.449219 C 15.9375 25.308594 15.972656 25.136719 15.972656 23.363281 C 15.972656 22.195312 15.972656 21.023438 15.972656 19.855469 C 15.546875 20.148438 15.804688 20.375 14.898438 20.847656 C 14.40625 21.105469 13.859375 21.203125 13.242188 21.058594 C 12.214844 20.8125 11.953125 21.777344 10.238281 20.3125 Z M 10.226562 24.269531 "/>
</g>
</svg>
