<?xml version="1.0" encoding="UTF-8"?>
<svg xmlns="http://www.w3.org/2000/svg" xmlns:xlink="http://www.w3.org/1999/xlink" width="26px" height="px" viewBox="0 0 26 26" version="1.1">
<g id="surface1">
<path style=" stroke:none;fill-rule:evenodd;fill:rgb(27.058825%,35.294119%,38.82353%);fill-opacity:1;" d="M 5.757812 11.039062 C 5.292969 11.261719 5.054688 11.230469 4.664062 11.546875 C 3.34375 12.636719 3.601562 13.507812 3.601562 15.277344 C 3.597656 17.367188 3.601562 19.453125 3.601562 21.539062 C 3.597656 22.503906 3.523438 23.566406 4.058594 24.253906 C 4.496094 24.8125 5.140625 25.332031 6.164062 25.386719 C 7.203125 25.445312 8.414062 25.394531 9.472656 25.394531 C 10.59375 25.394531 11.714844 25.394531 12.832031 25.394531 C 14.988281 25.394531 17.324219 25.476562 19.453125 25.390625 C 20.507812 25.347656 21.117188 24.847656 21.585938 24.28125 C 22.136719 23.617188 22.066406 22.550781 22.066406 21.589844 C 22.070312 19.5 22.066406 17.414062 22.066406 15.324219 C 22.070312 13.5625 22.320312 12.640625 21.027344 11.570312 C 20.605469 11.222656 20.40625 11.277344 19.90625 11.039062 C 18.882812 11.03125 17.65625 11.050781 16.636719 11 L 9.03125 11 C 8.011719 11.050781 6.785156 11.03125 5.757812 11.039062 Z M 5.757812 11.039062 "/>
<path style=" stroke:none;fill-rule:evenodd;fill:rgb(27.058825%,35.294119%,38.82353%);fill-opacity:1;" d="M 5.757812 11.039062 C 6.785156 11.03125 8.011719 11.050781 9.03125 11 C 9.03125 10.097656 9.03125 9.195312 9.03125 8.292969 C 9.03125 7.332031 8.988281 6.75 9.367188 5.929688 C 10.660156 3.121094 15.003906 3.121094 16.296875 5.929688 C 16.675781 6.75 16.636719 7.332031 16.636719 8.292969 C 16.636719 9.195312 16.636719 10.097656 16.636719 11 C 17.65625 11.050781 18.882812 11.03125 19.90625 11.039062 C 19.808594 10.121094 19.957031 8.089844 19.863281 6.847656 C 19.773438 5.640625 19.273438 4.527344 18.703125 3.703125 C 17.703125 2.246094 15.601562 0.730469 12.832031 0.730469 C 9 0.730469 6.078125 3.605469 5.808594 6.796875 C 5.691406 8.164062 5.898438 9.730469 5.757812 11.039062 Z M 5.757812 11.039062 "/>
<path style=" stroke:none;fill-rule:evenodd;fill:rgb(100%,100%,100%);fill-opacity:1;" d="M 11.625 18.925781 C 11.554688 19.6875 11.394531 20.515625 11.277344 21.273438 C 11.210938 21.710938 11.128906 22.046875 11.488281 22.238281 C 11.742188 22.371094 12.496094 22.3125 12.832031 22.3125 C 14.039062 22.3125 14.582031 22.539062 14.394531 21.273438 C 14.28125 20.496094 14.121094 19.699219 14.046875 18.929688 C 14.929688 18.59375 15.832031 17.367188 15.460938 16.019531 C 14.972656 14.234375 12.714844 13.453125 11.152344 14.648438 C 10.917969 14.828125 10.757812 14.960938 10.578125 15.214844 C 10.429688 15.417969 10.292969 15.710938 10.214844 15.980469 C 9.820312 17.347656 10.722656 18.589844 11.625 18.925781 Z M 11.625 18.925781 "/>
<path style=" stroke:none;fill-rule:evenodd;fill:rgb(100%,12.156863%,12.156863%);fill-opacity:1;" d="M 16.148438 0.78125 C 13.054688 0.960938 10.503906 3.578125 10.6875 6.890625 C 10.863281 9.972656 13.5 12.527344 16.804688 12.339844 C 19.878906 12.164062 22.433594 9.535156 22.25 6.230469 C 22.078125 3.15625 19.4375 0.585938 16.148438 0.78125 Z M 16.148438 0.78125 "/>
<path style=" stroke:none;fill-rule:evenodd;fill:rgb(97.254902%,97.254902%,98.039216%);fill-opacity:1;" d="M 15.648438 3.585938 C 15.425781 3.65625 15.445312 3.835938 15.460938 4.09375 C 15.472656 4.320312 15.484375 4.546875 15.5 4.773438 C 15.523438 5.234375 15.546875 5.695312 15.574219 6.15625 C 15.585938 6.378906 15.597656 6.605469 15.609375 6.832031 C 15.640625 7.421875 15.789062 7.308594 16.582031 7.308594 C 17.429688 7.308594 17.292969 7.421875 17.375 5.949219 C 17.402344 5.484375 17.488281 4.300781 17.488281 3.890625 C 17.488281 3.625 17.339844 3.570312 17.078125 3.570312 C 16.851562 3.574219 15.773438 3.546875 15.648438 3.585938 Z M 15.648438 3.585938 "/>
<path style=" stroke:none;fill-rule:evenodd;fill:rgb(97.254902%,97.254902%,98.039216%);fill-opacity:1;" d="M 16.25 7.753906 C 14.820312 8.078125 15.332031 10.148438 16.707031 9.851562 C 17.210938 9.742188 17.660156 9.210938 17.515625 8.566406 C 17.402344 8.058594 16.894531 7.609375 16.25 7.753906 Z M 16.25 7.753906 "/>
</g>
</svg>
