<svg id="Camada_1" data-name="Camada 1" xmlns="http://www.w3.org/2000/svg" xmlns:xlink="http://www.w3.org/1999/xlink" viewBox="0 0 24.56 22.86"><defs><style>.cls-1{fill:#fff;}.cls-2{fill:#4d4d4d;}.cls-3{fill:none;}.cls-4{fill:#e9b801;}.cls-5{fill:#63b22f;}.cls-6{fill:#e63216;stroke:#1d1d1b;stroke-width:0.5px;}</style><symbol id="Bloquear_2" data-name="Bloquear 2" viewBox="0 0 50 63.88"><path class="cls-3" d="M29,42.16a4,4,0,1,0-5.34,3.74L21.24,53h7.52L26.35,45.9A4,4,0,0,0,29,42.16Z"/><path class="cls-3" d="M14.41,31.88H36v-14s0,0,0,.06a11,11,0,0,0-22,0s0,0,0-.06v4.08h.41Z"/><path class="cls-4" d="M48,31.88H43v-14h0a18,18,0,0,0-36,0H7v4.08h7V17.86s0,0,0,.06a11,11,0,0,1,22,0s0,0,0-.06v14H2a2,2,0,0,0-2,2v28a2,2,0,0,0,2,2H48a2,2,0,0,0,2-2v-28A2,2,0,0,0,48,31.88ZM28.76,53H21.24l2.41-7.05a4,4,0,1,1,2.7,0Z"/></symbol><symbol id="Bloquear" data-name="Bloquear" viewBox="0 0 36 31.89"><rect class="cls-1" x="10.86" y="29.23" width="0.26" height="1.79"/><path class="cls-2" d="M36,17.86a18,18,0,0,0-36,0H0v6.19H7V17.86s0,0,0,.06a11,11,0,0,1,22,0s0,0,0-.06v14h7v-14Z"/></symbol><symbol id="Seta_10" data-name="Seta 10" viewBox="0 0 62.88 47.87"><path class="cls-5" d="M18.13,11.76,0,29.74,17.83,47.86V38.58s37.43,10.61,43-21.22C56.74,20.6,34.34,32.54,18.13,20.6Z"/><path class="cls-5" d="M62.74,0s.91-.21-1.88,17.36c-3,2.83-14.31,7.92-22,8.14,0,0,10.55,1.48,11.2-25.5"/></symbol></defs><g id="Marcador_7_-_cinza" data-name="Marcador 7 - cinza"><use width="50" height="63.88" transform="translate(4.96 0) scale(0.31)" xlink:href="#Bloquear_2"/><use width="36" height="31.88" transform="translate(7.17 0) scale(0.31)" xlink:href="#Bloquear"/></g><use width="62.88" height="47.86" transform="matrix(-0.23, 0, 0, 0.23, 14.34, 11.95)" xlink:href="#Seta_10"/><circle class="cls-6" cx="18.88" cy="8.26" r="5.43"/><path class="cls-1" d="M19.1,7.53a9.51,9.51,0,0,1-.45,2.28l-.24,1h-.53l-.25-1a9.28,9.28,0,0,1-.44-2.28.86.86,0,0,1,.95-.94A.87.87,0,0,1,19.1,7.53Zm-1.89,5a.94.94,0,1,1,.93.92A.93.93,0,0,1,17.21,12.49Z" transform="translate(0.74 -1.52)"/></svg>