<?xml version="1.0" encoding="UTF-8"?>
<!DOCTYPE svg PUBLIC "-//W3C//DTD SVG 1.1//EN" "http://www.w3.org/Graphics/SVG/1.1/DTD/svg11.dtd">
<!-- Creator: CorelDRAW -->
<svg xmlns="http://www.w3.org/2000/svg" xml:space="preserve" width="6.7732mm" height="6.7732mm" version="1.1" style="shape-rendering:geometricPrecision; text-rendering:geometricPrecision; image-rendering:optimizeQuality; fill-rule:evenodd; clip-rule:evenodd"
viewBox="0 0 677.32 677.32"
 xmlns:xlink="http://www.w3.org/1999/xlink"
 xmlns:xodm="http://www.corel.com/coreldraw/odm/2003">
 <defs>
  <style type="text/css">
   <![CDATA[
    .fil0 {fill:#2196F3}
    .fil3 {fill:#FED04B}
    .fil2 {fill:#FEFEFE}
    .fil1 {fill:#FFC106}
   ]]>
  </style>
 </defs>
 <g id="Camada_x0020_1">
  <metadata id="CorelCorpID_0Corel-Layer"/>
  <g id="_105553190477856">
   <path class="fil0" d="M129.34 358.19c-6.02,-26.92 24.02,-25.34 35.33,-25.29l121.05 0.01c19.4,0 42.07,-3.15 45.5,16.09 4.24,23.78 -17.31,24.48 -36.05,24.42 -20.17,-0.07 -40.35,-0.01 -60.52,-0.01 -20.17,-0.01 -40.34,0 -60.52,0 -19.71,0 -40.76,2.79 -44.79,-15.22zm0.01 -81.32c-4.77,-21.31 13.78,-25.41 31.53,-25.32 41.63,0.23 362.57,-1.41 372.35,0.8 6.7,1.52 13.7,7.53 15.02,15.52 3.49,21.11 -13.44,24.33 -31.78,24.25l-287.49 -0.04c-18.91,0 -37.83,0 -56.74,0 -19.31,0.01 -38.97,2.31 -42.89,-15.21zm93.81 -172.76c10.72,-3.97 162.23,-1.7 187.38,-1.69 62.29,0.03 56.52,-11.07 56.86,85.56 0.06,16.56 1.02,30.14 -12.56,34.78 -12.52,4.29 -161.99,1.61 -188.04,1.6 -62.3,-0.01 -56.52,11.03 -56.85,-85.55 -0.07,-18.39 -1.74,-29.17 13.21,-34.7zm168.8 350.59c-22.01,-71.59 27.48,-134.28 94.22,-135.31 38.84,-0.6 66.15,19.67 81.45,38.69 20.28,25.21 26.33,57.76 16.25,96.58 43.71,-3.52 46.22,-36.54 46.19,-66.21l-0.01 -226.95c0.01,-27.6 5.03,-86.49 -7.92,-105.71 -18.89,-28.06 -53.49,-21.1 -92.45,-21.12 -59.54,-0.03 -433.68,-2.91 -449.71,2.38 -34.56,11.38 -32.71,41.11 -32.7,80.96 0.01,75.64 0.04,151.3 0,226.94 -0.02,37.24 -6.9,76.45 15.97,97.66 20.29,18.83 69.84,12.15 101.43,12.15 75.65,0.01 151.68,0.74 227.28,-0.06z"/>
   <path class="fil1" d="M391.96 454.7l7.36 15.83 1.78 2.69c0.19,0.3 0.61,0.94 0.84,1.31 9.48,15 16.09,21.42 30.98,31.48 38.29,25.86 93.56,19.74 126.09,-12.58l16.77 -20.03 8.1 -18.74c10.08,-38.82 4.03,-71.37 -16.25,-96.58 -15.3,-19.02 -42.61,-39.29 -81.45,-38.69 -66.74,1.03 -116.23,63.72 -94.22,135.31z"/>
   <path class="fil2" d="M223.16 104.11c-14.95,5.53 -13.28,16.31 -13.21,34.7 0.33,96.58 -5.45,85.54 56.85,85.55 26.05,0.01 175.52,2.69 188.04,-1.6 13.58,-4.64 12.62,-18.22 12.56,-34.78 -0.34,-96.63 5.43,-85.53 -56.86,-85.56 -25.15,-0.01 -176.66,-2.28 -187.38,1.69z"/>
   <path class="fil3" d="M575.78 473.4l-16.77 20.03c-32.53,32.32 -87.8,38.44 -126.09,12.58 -14.89,-10.06 -21.5,-16.48 -30.98,-31.48 -0.23,-0.37 -0.65,-1.01 -0.84,-1.31l-1.78 -2.69c1.46,25.18 0.37,53.19 0.37,78.68 0,40 -10.08,92.29 18.63,94.22 14.74,0.99 49.35,-32.69 68.2,-44.35 16.29,8.37 54.22,44.62 69.54,44.35 11.8,-0.21 18.23,-7.05 19.54,-18.46l0.18 -151.57z"/>
   <path class="fil2" d="M129.35 276.87c3.92,17.52 23.58,15.22 42.89,15.21 18.91,0 37.83,0 56.74,0l287.49 0.04c18.34,0.08 35.27,-3.14 31.78,-24.25 -1.32,-7.99 -8.32,-14 -15.02,-15.52 -9.78,-2.21 -330.72,-0.57 -372.35,-0.8 -17.75,-0.09 -36.3,4.01 -31.53,25.32z"/>
   <path class="fil2" d="M129.34 358.19c4.03,18.01 25.08,15.22 44.79,15.22 20.18,0 40.35,-0.01 60.52,0 20.17,0 40.35,-0.06 60.52,0.01 18.74,0.06 40.29,-0.64 36.05,-24.42 -3.43,-19.24 -26.1,-16.09 -45.5,-16.09l-121.05 -0.01c-11.31,-0.05 -41.35,-1.63 -35.33,25.29z"/>
  </g>
 </g>
</svg>
