<?xml version="1.0" encoding="UTF-8"?>
<svg xmlns="http://www.w3.org/2000/svg" xmlns:xlink="http://www.w3.org/1999/xlink" width="85px" height="90px" viewBox="0 0 85 89" version="1.1">
<g id="surface1">
<path style=" stroke:none;fill-rule:nonzero;fill:rgb(41.568628%,72.156864%,67.450982%);fill-opacity:1;" d="M 4.144531 8.757812 L 4.144531 79.863281 L 28.058594 79.863281 L 28.058594 66.039062 L 36.027344 66.035156 L 36.027344 79.863281 L 59.941406 79.863281 L 59.941406 8.761719 Z M 12.117188 16.660156 L 20.085938 16.660156 L 20.085938 24.558594 L 12.117188 24.558594 Z M 28.058594 16.660156 L 36.027344 16.660156 L 36.027344 24.558594 L 28.058594 24.558594 Z M 44 16.660156 L 51.972656 16.660156 L 51.972656 24.558594 L 44 24.558594 Z M 12.117188 32.460938 L 20.085938 32.460938 L 20.085938 40.359375 L 12.117188 40.359375 Z M 28.058594 32.460938 L 36.027344 32.460938 L 36.027344 40.359375 L 28.058594 40.359375 Z M 44 32.460938 L 51.972656 32.460938 L 51.972656 40.359375 L 44 40.359375 Z M 12.117188 48.261719 L 20.085938 48.261719 L 20.085938 56.164062 L 12.117188 56.164062 Z M 28.058594 48.261719 L 36.027344 48.261719 L 36.027344 56.164062 L 28.058594 56.164062 Z M 44 48.261719 L 51.972656 48.261719 L 51.972656 56.164062 L 44 56.164062 Z M 12.117188 64.0625 L 20.085938 64.0625 L 20.085938 71.960938 L 12.117188 71.960938 Z M 44 64.0625 L 51.972656 64.0625 L 51.972656 71.960938 L 44 71.960938 Z M 44 64.0625 "/>
<path style=" stroke:none;fill-rule:nonzero;fill:rgb(11.372549%,27.450982%,36.862746%);fill-opacity:1;" d="M 73.734375 45.339844 C 73.734375 45.335938 73.734375 45.335938 73.734375 45.335938 C 75.945312 45.335938 77.742188 46.902344 77.742188 48.832031 C 77.742188 50.761719 75.945312 52.328125 73.734375 52.328125 C 71.523438 52.328125 69.726562 50.761719 69.726562 48.832031 C 69.726562 46.902344 71.523438 45.335938 73.734375 45.335938 Z M 70.730469 54.078125 L 76.742188 54.078125 C 78.953125 54.074219 80.75 55.640625 80.75 57.570312 L 80.75 67.183594 L 77.742188 67.183594 L 77.742188 80.285156 L 69.726562 80.289062 L 69.726562 67.183594 L 66.71875 67.183594 L 66.71875 57.570312 C 66.722656 55.640625 68.515625 54.074219 70.730469 54.074219 Z M 70.730469 54.078125 "/>
<path style=" stroke:none;fill-rule:evenodd;fill:rgb(100%,100%,100%);fill-opacity:1;" d="M 50.484375 40.457031 L 73.128906 40.453125 L 73.113281 25.6875 L 67.441406 29.652344 C 60.648438 34.515625 62.460938 34.121094 58.722656 31.5625 L 50.363281 25.6875 Z M 50.484375 40.457031 "/>
<path style=" stroke:none;fill-rule:evenodd;fill:rgb(0%,0%,0%);fill-opacity:1;" d="M 50.363281 25.6875 L 58.722656 31.5625 C 62.460938 34.121094 60.648438 34.515625 67.441406 29.652344 L 73.113281 25.6875 L 73.128906 40.453125 L 50.484375 40.457031 Z M 61.816406 31.566406 C 61.15625 31.269531 60.023438 30.332031 59.394531 29.910156 C 58.554688 29.34375 57.847656 28.792969 57.007812 28.210938 C 56.191406 27.644531 55.40625 27.085938 54.59375 26.527344 L 52.300781 24.816406 L 71.191406 24.816406 C 70.886719 25.226562 71.222656 24.84375 70.847656 25.132812 L 64.097656 29.910156 C 63.550781 30.292969 62.253906 31.113281 61.816406 31.566406 Z M 49.253906 23.167969 C 48.390625 23.460938 48.613281 24.300781 48.617188 25.300781 L 48.617188 39.484375 C 48.617188 42.601562 48.492188 42.167969 51.601562 42.167969 C 53.960938 42.167969 73.78125 42.277344 74.292969 42.109375 C 75.066406 41.859375 74.875 40.851562 74.875 39.976562 L 74.875 25.792969 C 74.875 22.675781 75 23.109375 71.886719 23.109375 C 69.5625 23.109375 49.742188 23.007812 49.253906 23.167969 Z M 49.253906 23.167969 "/>
<path style=" stroke:none;fill-rule:evenodd;fill:rgb(100%,100%,100%);fill-opacity:1;" d="M 61.816406 31.566406 C 62.253906 31.113281 63.550781 30.292969 64.097656 29.910156 L 70.847656 25.132812 C 71.222656 24.84375 70.886719 25.226562 71.191406 24.816406 L 52.300781 24.816406 L 54.59375 26.527344 C 55.40625 27.085938 56.191406 27.644531 57.007812 28.210938 C 57.847656 28.792969 58.554688 29.34375 59.394531 29.910156 C 60.023438 30.332031 61.15625 31.269531 61.816406 31.566406 Z M 61.816406 31.566406 "/>
</g>
</svg>
