<?xml version="1.0" encoding="UTF-8"?>
<!DOCTYPE svg PUBLIC "-//W3C//DTD SVG 1.1//EN" "http://www.w3.org/Graphics/SVG/1.1/DTD/svg11.dtd">
<!-- Creator: CorelDRAW -->
<svg xmlns="http://www.w3.org/2000/svg" xml:space="preserve" width="6.7732mm" height="6.7732mm" version="1.1" style="shape-rendering:geometricPrecision; text-rendering:geometricPrecision; image-rendering:optimizeQuality; fill-rule:evenodd; clip-rule:evenodd"
viewBox="0 0 677.32 677.32"
 xmlns:xlink="http://www.w3.org/1999/xlink"
 xmlns:xodm="http://www.corel.com/coreldraw/odm/2003">
 <defs>
  <style type="text/css">
   <![CDATA[
    .str0 {stroke:#E6E6E6;stroke-width:16.93;stroke-miterlimit:22.9256}
    .fil3 {fill:black}
    .fil17 {fill:#0064B2}
    .fil7 {fill:#00CCFF}
    .fil15 {fill:#2196F3}
    .fil2 {fill:#455A63}
    .fil4 {fill:#55BA52}
    .fil10 {fill:#99CC99}
    .fil14 {fill:#B3B3B3}
    .fil13 {fill:#CCCCCC}
    .fil5 {fill:#E6E6E6}
    .fil9 {fill:#F7F7F9}
    .fil18 {fill:#F8F8FA}
    .fil11 {fill:#FAC02D}
    .fil1 {fill:#FDC105}
    .fil12 {fill:#FED04B}
    .fil6 {fill:#FEFEFE}
    .fil8 {fill:#FF1F1F}
    .fil16 {fill:#FFC106}
    .fil0 {fill:white}
   ]]>
  </style>
 </defs>
 <g id="Camada_x0020_1">
  <metadata id="CorelCorpID_0Corel-Layer"/>
  <rect class="fil0" x="-6671.74" y="-1303.86" width="10160" height="677.33"/>
  <g id="_105553328257408">
   <path class="fil1" d="M-6488.98 -1035.37c-12.17,5.79 -18.37,4.91 -28.49,13.24 -34.44,28.34 -27.73,51.06 -27.77,97.14 -0.04,54.39 0.08,108.78 0,163.17 -0.04,25.09 -2.02,52.74 11.96,70.7 11.34,14.57 28.18,28.03 54.8,29.51 27.12,1.5 58.65,0.2 86.24,0.18 29.18,-0.02 58.37,0.02 87.55,0 56.11,-0.03 116.99,2.16 172.49,-0.11 27.4,-1.13 43.31,-14.12 55.52,-28.88 14.33,-17.33 12.51,-45.06 12.55,-70.15 0.08,-54.39 -0.03,-108.78 0,-163.17 0.03,-45.92 6.63,-69.91 -27.09,-97.8 -11,-9.09 -16.21,-7.61 -29.18,-13.83 -26.68,-0.2 -58.66,0.22 -85.24,-1.09l-198.09 -0.01c-26.55,1.35 -58.51,0.87 -85.25,1.1z"/>
   <path class="fil2" d="M-6488.98 -1035.37c26.74,-0.23 58.7,0.25 85.25,-1.1 -0.05,-23.51 -0.01,-47.01 -0.01,-70.51 0.01,-25.05 -1.1,-40.12 8.78,-61.57 33.69,-73.16 146.83,-73.11 180.54,0 9.87,21.39 8.78,36.56 8.78,61.57 -0.01,23.5 0.02,47.01 0,70.52 26.58,1.31 58.56,0.89 85.24,1.09 -2.61,-23.99 1.24,-76.89 -1.15,-109.27 -2.32,-31.39 -15.42,-60.37 -30.23,-81.92 -26.06,-37.92 -80.79,-77.36 -152.94,-77.37 -99.85,-0.02 -175.93,74.86 -183.01,158.03 -3.03,35.56 2.41,76.39 -1.25,110.53z"/>
   <path class="fil2" d="M-6336.19 -829.91c-1.81,19.76 -6.01,41.35 -9.06,61.17 -1.75,11.3 -3.86,20.15 5.5,25.05 6.66,3.49 26.23,1.94 35.06,1.95 31.39,0.01 45.54,5.95 40.69,-27.03 -2.98,-20.22 -7.13,-41.08 -9.08,-61.12 23.02,-8.75 46.55,-40.62 36.88,-75.81 -12.76,-46.44 -71.56,-66.82 -112.31,-35.67 -6.05,4.63 -10.21,8.11 -14.94,14.73 -3.82,5.33 -7.44,12.91 -9.47,19.93 -10.3,35.62 13.24,67.98 36.73,76.8z"/>
  </g>
  <path class="fil3" d="M-3038.24 -22760.37c-254.44,-22.91 -517.09,-78.85 -784.53,-103.45 -1210.73,-111.37 -2350.71,-9.41 -3469.08,408.02 -997.14,372.19 -1612.26,834.89 -2303.33,1455.79 -558.1,501.43 -1286.92,1502.57 -1607.26,2168.75 -82.08,170.71 -167.7,346.47 -245.76,516.19l-218.87 549.41c123.17,-40.83 585.4,-449.9 761.9,-582.15 774.99,-580.69 1661.63,-1093.77 2618.31,-1428.51 1141.58,-399.44 2285.01,-490.65 3507,-232.12 185.94,39.34 363.68,85.71 537.75,137.82 176.7,52.9 344.52,136.95 496.04,182.76 -29.19,289.29 -778.79,2567.09 -755.45,2751.31 147.25,35.73 616.75,-237.98 775.96,-310.43 266.77,-121.39 507.21,-239.98 772.13,-363.34 515.73,-240.17 1016.38,-472.32 1539.79,-711.76 515.48,-235.82 1022.71,-477.37 1545.49,-706.7l1169.01 -524.2c149.18,-64.23 305.19,-100.46 176.49,-296.61 -883.55,-1346.57 -1811.77,-2716.57 -2713.35,-4060.37 -202.42,-301.7 -594.09,-916.07 -793.23,-1187.7 -47.62,-64.96 -86.57,-96.54 -196.69,-80.87 -56.13,79.8 -340.25,1018.21 -403.2,1204.57 -136.02,402.62 -274.15,816.66 -409.12,1213.59z"/>
  <path class="fil4" d="M-6241.16 -805.93l-19.75 19.3c-6.61,6.55 -13.2,13.04 -20.02,19.59l-109.47 106.45c-1.67,1.62 -3.23,3 -5.1,4.74 -1.98,1.84 -3.04,3.67 -5.86,3.91 -3.14,-3.38 -2.92,-16.32 -3.37,-21.5 -0.93,-10.69 -5.1,-59.92 -6.32,-66.6 -40.39,-4.2 -63.82,-5.61 -103.37,-22.62 -76.15,-32.75 -122.61,-101.21 -138.67,-179.32 -0.89,-4.33 -3.54,-18.35 -3.13,-22.51 3.06,0.98 3.97,3.91 5.7,6.07 13.75,17.16 19.69,25.85 37.12,43.26 35.03,34.97 73.21,62.43 124.37,73.64 13.81,3.02 27.69,4.65 41.15,4.57 9.45,-0.05 28.01,-1.66 35.02,-5.21 0.83,-4.72 -0.58,-18.34 -0.81,-23.96l-2.25 -47.38c-0.3,-6.26 -2.08,-18.47 0.97,-23.11 4.78,0.46 38.33,27.01 44.63,31.84l129.16 98.84z"/>
  <g id="_105553328246016">
   <path class="fil1" d="M-357.65 -1026.9c-12.17,5.79 -18.37,4.91 -28.49,13.24 -34.44,28.34 -27.73,51.06 -27.77,97.14 -0.04,54.39 0.08,108.78 0,163.17 -0.04,25.09 -2.02,52.74 11.96,70.7 11.34,14.57 28.18,28.03 54.8,29.51 27.12,1.5 58.65,0.2 86.24,0.18 29.18,-0.02 58.37,0.02 87.55,0 56.11,-0.03 116.99,2.16 172.49,-0.11 27.4,-1.13 43.31,-14.12 55.52,-28.88 14.33,-17.33 12.51,-45.06 12.55,-70.15 0.08,-54.39 -0.03,-108.78 0,-163.17 0.03,-45.92 6.63,-69.91 -27.09,-97.8 -11,-9.09 -16.21,-7.61 -29.18,-13.83 -26.68,-0.2 -58.66,0.22 -85.24,-1.09l-198.09 -0.01c-26.55,1.35 -58.51,0.87 -85.25,1.1z"/>
   <path class="fil2" d="M-272.09 -1126.06c0.7,-11.32 2.74,-21.6 8.46,-34.02 33.69,-73.16 146.83,-73.11 180.54,0 9.87,21.39 8.78,36.56 8.78,61.57 -0.01,23.5 0.02,47.01 0,70.52 26.58,1.31 58.56,0.89 85.24,1.09 -2.61,-23.99 1.24,-76.89 -1.15,-109.27 -2.32,-31.39 -15.42,-60.37 -30.23,-81.92 -26.06,-37.92 -80.79,-77.36 -152.94,-77.37 -99.85,-0.02 -175.93,74.86 -183.01,158.03 -0.32,3.74 -0.54,7.53 -0.69,11.37l85 0z"/>
   <path class="fil2" d="M-204.86 -821.44c-1.81,19.76 -6.01,41.35 -9.06,61.17 -1.75,11.3 -3.86,20.15 5.5,25.05 6.66,3.49 26.23,1.94 35.06,1.95 31.39,0.01 45.54,5.95 40.69,-27.03 -2.98,-20.22 -7.13,-41.08 -9.08,-61.12 23.02,-8.75 46.55,-40.62 36.88,-75.81 -12.76,-46.44 -71.56,-66.82 -112.31,-35.67 -6.05,4.63 -10.21,8.11 -14.94,14.73 -3.82,5.33 -7.44,12.91 -9.47,19.93 -10.3,35.62 13.24,67.98 36.73,76.8z"/>
   <path class="fil4" d="M-109.83 -797.46l-19.75 19.3c-6.61,6.55 -13.2,13.04 -20.02,19.59l-109.47 106.45c-1.67,1.62 -3.23,3 -5.1,4.74 -1.98,1.84 -3.04,3.67 -5.86,3.91 -3.14,-3.38 -2.92,-16.32 -3.37,-21.5 -0.93,-10.69 -5.1,-59.92 -6.32,-66.6 -40.39,-4.2 -63.82,-5.61 -103.37,-22.62 -76.15,-32.75 -122.61,-101.21 -138.67,-179.32 -0.89,-4.33 -3.54,-18.35 -3.13,-22.51 3.06,0.98 3.97,3.91 5.7,6.07 13.75,17.16 19.69,25.85 37.12,43.26 35.03,34.97 73.21,62.43 124.37,73.64 13.81,3.02 27.69,4.65 41.15,4.57 9.45,-0.05 28.01,-1.66 35.02,-5.21 0.83,-4.72 -0.58,-18.34 -0.81,-23.96l-2.25 -47.38c-0.3,-6.26 -2.08,-18.47 0.97,-23.11 4.78,0.46 38.33,27.01 44.63,31.84l129.16 98.84z"/>
  </g>
  <rect class="fil5 str0" x="-5748.89" y="-7137.4" width="677.33" height="677.33"/>
  <path class="fil3" d="M-2352.63 -87.91c-42.09,6.24 -34.43,49.84 -34.43,79.28 -0.01,31.33 -1.65,268.66 0.96,281.27 2.83,13.62 14.5,25.41 27.1,29.21 8.02,2.42 425.14,4.55 448.05,1.19 40.87,-6 33.42,-51.6 33.43,-79.23 0,-31.38 1.65,-268.6 -0.99,-281.25 -2.83,-13.65 -14.37,-25.42 -27.08,-29.27 -7.66,-2.32 -425.05,-4.47 -447.04,-1.2z"/>
  <path class="fil0" d="M-1938.62 2.45c-6.05,1.75 -84.81,61.3 -96.95,70.25l-71.75 53.02c-7.03,5.43 -17.76,14 -24.97,17.78l-96.65 -70.86c-15.69,-11.54 -31.83,-23.73 -48.22,-35.55 -10.23,-7.38 -40.23,-31.76 -48.62,-34.85 -3.58,6.31 -1.22,232.48 -1.27,261.15l389.49 0 0.01 -19.07c0.02,-27.23 2.64,-234.73 -1.07,-241.87z"/>
  <polygon class="fil6" points="-2132.29,70.41 -1970.77,-48.79 -2293.81,-49.2 "/>
  <path class="fil7" d="M-1692.03 51.05l18.67 -18.25c6.25,-6.18 12.49,-12.33 18.93,-18.52l103.5 -100.64c1.58,-1.53 3.05,-2.84 4.82,-4.48 1.88,-1.75 2.87,-3.47 5.54,-3.7 2.97,3.2 2.76,15.44 3.19,20.32 0.88,10.11 4.82,56.66 5.98,62.97 38.17,3.98 60.33,5.31 97.73,21.39 71.99,30.97 115.91,95.69 131.1,169.53 0.84,4.1 3.34,17.36 2.95,21.29 -2.89,-0.92 -3.75,-3.7 -5.38,-5.74 -13,-16.23 -18.61,-24.44 -35.1,-40.9 -33.12,-33.06 -69.21,-59.02 -117.58,-69.62 -13.06,-2.86 -26.18,-4.4 -38.91,-4.33 -8.93,0.05 -26.48,1.58 -33.1,4.93 -0.79,4.47 0.54,17.34 0.76,22.65l2.12 44.81c0.29,5.91 1.97,17.46 -0.91,21.84 -4.52,-0.43 -36.24,-25.54 -42.2,-30.11l-122.11 -93.44z"/>
  <path class="fil8" d="M-7789.87 -6681.49c-9.41,-16.07 -181.29,-178.63 -211.73,-213.86 -26.54,-30.7 -18.95,-76.89 6.85,-102.58 26.78,-26.65 72.59,-33.08 103.84,-5.84 26.62,23.21 110.38,109.94 141.93,141.5 14.56,14.56 57.33,60.99 70.67,69.18 17.05,-9.79 177.51,-180.55 213.83,-211.71 26.34,-22.6 72.42,-23.31 102.62,6.85 26.27,26.24 33.27,73.12 5.75,103.79 -29.97,33.41 -202.03,198.39 -210.55,212.67 10.02,16.67 180.6,177.62 211.65,213.84 26.41,30.81 18.89,76.85 -6.85,102.61 -26.35,26.35 -72.87,33.23 -103.75,5.73 -31.93,-28.44 -106.61,-106.18 -141.94,-141.51 -13.45,-13.44 -59.04,-62.34 -70.76,-69.07 -10.86,6.62 -151.69,150.12 -178.14,176.57 -11.36,11.35 -22.92,24.68 -35.79,35.07 -73.09,59.01 -166.96,-46.19 -108.29,-110.59 29.12,-31.95 202.66,-198.99 210.66,-212.65zm-473.14 27.43c12.06,311.79 282.5,574.18 612.21,557.28 87.01,-4.46 163.66,-26.08 232.02,-59.98 66.37,-32.92 82.85,-50.07 131.13,-88.39 7,-5.55 11.92,-12.16 18.27,-18.24 57.91,-55.54 101.38,-119.95 132.99,-196.16 156.91,-378.38 -125.81,-825.66 -569.2,-806.61 -315.45,13.55 -570.27,279.73 -557.42,612.1z"/>
  <path class="fil9" d="M-7789.87 -6681.49c-8,13.66 -181.54,180.7 -210.66,212.65 -58.67,64.4 35.2,169.6 108.29,110.59 12.87,-10.39 24.43,-23.72 35.79,-35.07 26.45,-26.45 167.28,-169.95 178.14,-176.57 11.72,6.73 57.31,55.63 70.76,69.07 35.33,35.33 110.01,113.07 141.94,141.51 30.88,27.5 77.4,20.62 103.75,-5.73 25.74,-25.76 33.26,-71.8 6.85,-102.61 -31.05,-36.22 -201.63,-197.17 -211.65,-213.84 8.52,-14.28 180.58,-179.26 210.55,-212.67 27.52,-30.67 20.52,-77.55 -5.75,-103.79 -30.2,-30.16 -76.28,-29.45 -102.62,-6.85 -36.32,31.16 -196.78,201.92 -213.83,211.71 -13.34,-8.19 -56.11,-54.62 -70.67,-69.18 -31.55,-31.56 -115.31,-118.29 -141.93,-141.5 -31.25,-27.24 -77.06,-20.81 -103.84,5.84 -25.8,25.69 -33.39,71.88 -6.85,102.58 30.44,35.23 202.32,197.79 211.73,213.86z"/>
  <g id="_105553328249504">
   <path class="fil3" d="M-1783.27 -1214.41c-42.09,6.24 -34.43,49.84 -34.43,79.28 -0.01,31.33 -1.65,268.66 0.96,281.27 2.83,13.62 14.5,25.41 27.1,29.21 8.02,2.42 425.14,4.55 448.05,1.19 40.87,-6 33.42,-51.6 33.43,-79.23 0,-31.38 1.65,-268.6 -0.99,-281.25 -2.83,-13.65 -14.37,-25.42 -27.08,-29.27 -7.66,-2.32 -425.05,-4.47 -447.04,-1.2z"/>
   <path class="fil0" d="M-1369.26 -1124.05c-6.05,1.75 -84.81,61.3 -96.95,70.25l-71.75 53.02c-7.03,5.43 -17.76,14 -24.97,17.78l-96.65 -70.86c-15.69,-11.54 -31.83,-23.73 -48.22,-35.55 -10.23,-7.38 -40.23,-31.76 -48.62,-34.85 -3.58,6.31 -1.22,232.48 -1.27,261.15l389.49 0 0.01 -19.07c0.02,-27.23 2.64,-234.73 -1.07,-241.87z"/>
   <polygon class="fil6" points="-1562.93,-1056.09 -1401.41,-1175.29 -1724.45,-1175.7 "/>
   <path class="fil7" d="M-1752.61 -818.78l18.67 -18.25c6.25,-6.18 12.49,-12.33 18.93,-18.52l103.5 -100.64c1.58,-1.53 3.05,-2.84 4.82,-4.48 1.88,-1.75 2.87,-3.47 5.54,-3.7 2.97,3.2 2.76,15.44 3.19,20.32 0.88,10.11 4.82,56.66 5.98,62.97 38.17,3.98 60.33,5.31 97.73,21.39 71.99,30.97 115.91,95.69 131.1,169.53 0.84,4.1 3.34,17.36 2.95,21.29 -2.89,-0.92 -3.75,-3.7 -5.38,-5.74 -13,-16.23 -18.61,-24.44 -35.1,-40.9 -33.12,-33.06 -69.21,-59.02 -117.58,-69.62 -13.06,-2.86 -26.18,-4.4 -38.91,-4.33 -8.93,0.05 -26.48,1.58 -33.1,4.93 -0.79,4.47 0.54,17.34 0.76,22.65l2.12 44.81c0.29,5.91 1.97,17.46 -0.91,21.84 -4.52,-0.43 -36.24,-25.54 -42.2,-30.11l-122.11 -93.44z"/>
   <g>
    <path class="fil8" d="M-1440.51 -1151.39c-2.11,-3.59 -40.55,-39.95 -47.36,-47.83 -5.94,-6.87 -4.24,-17.2 1.53,-22.95 5.99,-5.96 16.24,-7.4 23.22,-1.3 5.96,5.19 24.69,24.59 31.75,31.65 3.26,3.25 12.82,13.64 15.81,15.47 3.81,-2.19 39.7,-40.38 47.83,-47.35 5.89,-5.06 16.2,-5.22 22.95,1.53 5.88,5.87 7.44,16.35 1.29,23.21 -6.71,7.48 -45.19,44.38 -47.1,47.57 2.24,3.73 40.4,39.73 47.34,47.83 5.91,6.9 4.23,17.19 -1.53,22.96 -5.89,5.89 -16.3,7.43 -23.21,1.28 -7.14,-6.36 -23.84,-23.75 -31.74,-31.65 -3.01,-3.01 -13.21,-13.95 -15.83,-15.45 -2.43,1.48 -33.93,33.57 -39.85,39.49 -2.54,2.54 -5.12,5.52 -8,7.85 -16.35,13.19 -37.35,-10.34 -24.22,-24.74 6.51,-7.15 45.33,-44.51 47.12,-47.57zm-105.83 6.14c2.69,69.74 63.18,128.43 136.93,124.65 19.46,-1 36.61,-5.83 51.9,-13.42 14.85,-7.36 18.53,-11.2 29.33,-19.77 1.57,-1.24 2.67,-2.72 4.09,-4.08 12.95,-12.42 22.67,-26.83 29.74,-43.87 35.1,-84.64 -28.14,-184.69 -127.31,-180.42 -70.56,3.03 -127.56,62.56 -124.68,136.91z"/>
    <path class="fil9" d="M-1440.51 -1151.39c-1.79,3.06 -40.61,40.42 -47.12,47.57 -13.13,14.4 7.87,37.93 24.22,24.74 2.88,-2.33 5.46,-5.31 8,-7.85 5.92,-5.92 37.42,-38.01 39.85,-39.49 2.62,1.5 12.82,12.44 15.83,15.45 7.9,7.9 24.6,25.29 31.74,31.65 6.91,6.15 17.32,4.61 23.21,-1.28 5.76,-5.77 7.44,-16.06 1.53,-22.96 -6.94,-8.1 -45.1,-44.1 -47.34,-47.83 1.91,-3.19 40.39,-40.09 47.1,-47.57 6.15,-6.86 4.59,-17.34 -1.29,-23.21 -6.75,-6.75 -17.06,-6.59 -22.95,-1.53 -8.13,6.97 -44.02,45.16 -47.83,47.35 -2.99,-1.83 -12.55,-12.22 -15.81,-15.47 -7.06,-7.06 -25.79,-26.46 -31.75,-31.65 -6.98,-6.1 -17.23,-4.66 -23.22,1.3 -5.77,5.75 -7.47,16.08 -1.53,22.95 6.81,7.88 45.25,44.24 47.36,47.83z"/>
   </g>
  </g>
  <path class="fil10" d="M151.46 264.41l374.39 0 0 24.92 -374.38 0 -0.01 -24.92zm0 -55.74l0.55 -6.68 373.11 0.02 0.88 6.64 -0.15 18.29 -374.38 -0.01 -0.01 -18.26zm-0.1 -69.06l374.49 0.01 -0.24 24.92 -373.42 0 -0.83 -24.93zm-124.68 -79.32l0.01 456.92c0,15.03 19.32,34.15 34.27,34.15l177.75 -0.05 0.11 -37.92c-0.01,-14.88 -5.39,-5.87 -15.37,-28.13 -7.82,-17.44 -1.8,-27.29 -5.28,-39.91 -3.98,-14.46 -9.46,-19.54 -6.32,-38.74 3.81,-23.4 20.35,-34.47 23.82,-43.41 6.46,-16.66 7.42,-24.91 28.38,-38.66 12.95,-8.49 24.68,-5.67 34.84,-10.62 15.29,-7.46 36.58,-23.48 68.61,-5.34 7.07,4 6.01,5.88 14.53,7.4 55.59,9.94 47.44,36.11 59.94,54.2 4.09,5.93 11.51,7.52 18.38,26.97 9.6,27.17 -1.37,40.05 -7.34,52.76 -2.97,6.31 -1.16,12.85 -2.48,21.39 -5.69,36.88 -13.05,-8.72 -11.95,79.99l180.84 0.07c13.78,0 31.21,-20.52 31.21,-34.15l0 -456.92c0,-15.13 -16.67,-33 -31.79,-33l-560.36 0c-15.09,0 -31.8,17.93 -31.8,33z"/>
  <path class="fil11" d="M308.6 340.34c-23.33,-2.27 -36.77,5.87 -44.45,22.6 -7.46,16.22 3.45,11.42 -11.18,23.18 -5.82,4.68 -10.98,11.94 -13.15,21.53 -2.46,10.92 -0.26,19.21 4.51,27.66 8.56,15.14 0.96,9.2 1.52,26.23 0.94,28.48 27.11,31.63 32.06,36.3 4.34,4.09 1.93,9.32 13.47,19.24 23.48,20.18 39.48,-1.2 50.34,3.81 19.05,8.78 38.05,4.52 48.27,-12.27 10.86,-17.85 -1.52,-6.76 18.31,-16.1 15.84,-7.45 23.76,-24.13 18.08,-47.11 5.29,-8.6 16.82,-16.07 14.49,-34.25 -1.88,-14.61 -11.55,-24.78 -21.97,-28.79 0.05,-48.79 -43.46,-40.53 -47.78,-42.02 -11.41,-3.94 -23.17,-34.42 -62.52,-0.01z"/>
  <path class="fil12" d="M266.38 632.24c0,34.31 30.53,8.74 52.61,-4.11 27.96,-16.27 14.89,-17.99 59.22,8.85 36.94,22.35 37.91,17.89 37.91,-28.32 0,-30.48 0,-60.95 0,-91.43 -11.06,7.67 -4.36,13.57 -28,25.9 -12.77,6.65 -27.1,9.25 -43.13,5.45 -26.79,-6.37 -33.64,18.77 -78.27,-19.41l-0.34 103.07z"/>
  <path class="fil1" d="M-4642.24 -1035.37c-12.17,5.79 -18.37,4.91 -28.49,13.24 -34.44,28.34 -27.73,51.06 -27.77,97.14 -0.04,54.39 0.08,108.78 0,163.17 -0.04,25.09 -2.02,52.74 11.96,70.7 11.34,14.57 28.18,28.03 54.8,29.51 27.12,1.5 58.65,0.2 86.24,0.18 29.18,-0.02 58.37,0.02 87.55,0 56.11,-0.03 116.99,2.16 172.49,-0.11 27.4,-1.13 43.31,-14.12 55.52,-28.88 14.33,-17.33 12.51,-45.06 12.55,-70.15 0.08,-54.39 -0.03,-108.78 0,-163.17 0.03,-45.92 6.63,-69.91 -27.09,-97.8 -11,-9.09 -16.21,-7.61 -29.18,-13.83 -26.68,-0.2 -58.66,0.22 -85.24,-1.09l-198.09 -0.01c-26.55,1.35 -58.51,0.87 -85.25,1.1z"/>
  <path class="fil2" d="M-4556.68 -1134.53c0.7,-11.32 2.74,-21.6 8.46,-34.02 33.69,-73.16 146.83,-73.11 180.54,0 9.87,21.39 8.78,36.56 8.78,61.57 -0.01,23.5 0.02,47.01 0,70.52 26.58,1.31 58.56,0.89 85.24,1.09 -2.61,-23.99 1.24,-76.89 -1.15,-109.27 -2.32,-31.39 -15.42,-60.37 -30.23,-81.92 -26.06,-37.92 -80.79,-77.36 -152.94,-77.37 -99.85,-0.02 -175.93,74.86 -183.01,158.03 -0.32,3.74 -0.54,7.53 -0.69,11.37l85 0z"/>
  <path class="fil2" d="M-4489.45 -829.91c-1.81,19.76 -6.01,41.35 -9.06,61.17 -1.75,11.3 -3.86,20.15 5.5,25.05 6.66,3.49 26.23,1.94 35.06,1.95 31.39,0.01 45.54,5.95 40.69,-27.03 -2.98,-20.22 -7.13,-41.08 -9.08,-61.12 23.02,-8.75 46.55,-40.62 36.88,-75.81 -12.76,-46.44 -71.56,-66.82 -112.31,-35.67 -6.05,4.63 -10.21,8.11 -14.94,14.73 -3.82,5.33 -7.44,12.91 -9.47,19.93 -10.3,35.62 13.24,67.98 36.73,76.8z"/>
  <path class="fil13" d="M-2226.77 -1084.21c-15.29,2.46 -47.49,0.63 -64.61,0.63 -71.7,0.01 -65.99,6.2 -65.99,-65.24 0,-18.28 -1.76,-48.37 0.66,-65.23 11.77,12.81 126.42,128.07 129.94,129.84zm-163.25 388.22c-18.79,-31.5 -32.63,-63.57 -32,-110.35 0.55,-41.47 15.98,-82.65 35.25,-108.58 32.26,-43.41 76.18,-73.18 134.04,-80.79 28.69,-3.78 44.29,2.61 67.98,2.59 0.01,-30.6 -0.01,-61.2 0.04,-91.79 0.04,-25.55 -11.27,-29.66 -36.57,-54.98 -31.5,-31.52 -61.57,-61.66 -93.17,-93.11 -27.23,-27.09 -18.15,-23.19 -69.13,-23.19l-184.47 -0.04c-29.31,0.27 -47.66,16.19 -48.25,45.3 -3.05,150.92 0.26,310.15 -0.01,462.97 -0.12,68.83 57.86,52.75 132.99,52.76 22.87,0 73.72,2.7 93.3,-0.79z"/>
  <path class="fil4" d="M-2247.69 -791.01c6.26,-8.92 48.21,-48.96 61.62,-62.44 5.67,-5.71 13.53,-16.46 27.17,-13.79 10.28,2.01 18.89,11.77 16.72,25.03 -1.87,11.36 -51.63,56.56 -60.9,65.83 -50.38,50.38 -41.8,51.69 -92.74,0.83 -5.13,-5.12 -16.4,-14.42 -17.9,-23.63 -2.13,-12.99 5.53,-22.26 16.04,-24.69 21.91,-5.07 35.24,25.53 49.99,32.86zm-5.49 -160.71c-74.97,13.5 -140.31,83.37 -123.21,176.01 13.47,73.07 84.12,137.23 174.85,121.33 73.29,-12.84 138.32,-83.54 122.44,-174.31 -12.83,-73.3 -83.83,-139.27 -174.08,-123.03z"/>
  <g id="_105553328099936">
   <path class="fil1" d="M-1069.3 -1035.37c-12.17,5.79 -18.37,4.91 -28.49,13.24 -34.44,28.34 -27.73,51.06 -27.77,97.14 -0.04,54.39 0.08,108.78 0,163.17 -0.04,25.09 -2.02,52.74 11.96,70.7 11.34,14.57 28.18,28.03 54.8,29.51 27.12,1.5 58.65,0.2 86.24,0.18 29.18,-0.02 58.37,0.02 87.55,0 56.11,-0.03 116.99,2.16 172.49,-0.11 27.4,-1.13 43.31,-14.12 55.52,-28.88 14.33,-17.33 12.51,-45.06 12.55,-70.15 0.08,-54.39 -0.03,-108.78 0,-163.17 0.03,-45.92 6.63,-69.91 -27.09,-97.8 -11,-9.09 -16.21,-7.61 -29.18,-13.83 -26.68,-0.2 -58.66,0.22 -85.24,-1.09l-198.09 -0.01c-26.55,1.35 -58.51,0.87 -85.25,1.1z"/>
   <path class="fil2" d="M-983.74 -1134.53c0.7,-11.32 2.74,-21.6 8.46,-34.02 33.69,-73.16 146.83,-73.11 180.54,0 9.87,21.39 8.78,36.56 8.78,61.57 -0.01,23.5 0.02,47.01 0,70.52 26.58,1.31 58.56,0.89 85.24,1.09 -2.61,-23.99 1.24,-76.89 -1.15,-109.27 -2.32,-31.39 -15.42,-60.37 -30.23,-81.92 -26.06,-37.92 -80.79,-77.36 -152.94,-77.37 -99.85,-0.02 -175.93,74.86 -183.01,158.03 -0.32,3.74 -0.54,7.53 -0.69,11.37l85 0z"/>
   <path class="fil2" d="M-916.51 -829.91c-1.81,19.76 -6.01,41.35 -9.06,61.17 -1.75,11.3 -3.86,20.15 5.5,25.05 6.66,3.49 26.23,1.94 35.06,1.95 31.39,0.01 45.54,5.95 40.69,-27.03 -2.98,-20.22 -7.13,-41.08 -9.08,-61.12 23.02,-8.75 46.55,-40.62 36.88,-75.81 -12.76,-46.44 -71.56,-66.82 -112.31,-35.67 -6.05,4.63 -10.21,8.11 -14.94,14.73 -3.82,5.33 -7.44,12.91 -9.47,19.93 -10.3,35.62 13.24,67.98 36.73,76.8z"/>
   <path class="fil4" d="M-821.48 -805.93l-19.75 19.3c-6.61,6.55 -13.2,13.04 -20.02,19.59l-109.47 106.45c-1.67,1.62 -3.23,3 -5.1,4.74 -1.98,1.84 -3.04,3.67 -5.86,3.91 -3.14,-3.38 -2.92,-16.32 -3.37,-21.5 -0.93,-10.69 -5.1,-59.92 -6.32,-66.6 -40.39,-4.2 -63.82,-5.61 -103.37,-22.62 -76.15,-32.75 -122.61,-101.21 -138.67,-179.32 -0.89,-4.33 -3.54,-18.35 -3.13,-22.51 3.06,0.98 3.97,3.91 5.7,6.07 13.75,17.16 19.69,25.85 37.12,43.26 35.03,34.97 73.21,62.43 124.37,73.64 13.81,3.02 27.69,4.65 41.15,4.57 9.45,-0.05 28.01,-1.66 35.02,-5.21 0.83,-4.72 -0.58,-18.34 -0.81,-23.96l-2.25 -47.38c-0.3,-6.26 -2.08,-18.47 0.97,-23.11 4.78,0.46 38.33,27.01 44.63,31.84l129.16 98.84z"/>
   <g>
    <path class="fil8" d="M-726.82 -1151.39c-2.11,-3.59 -40.55,-39.95 -47.36,-47.83 -5.94,-6.87 -4.24,-17.2 1.53,-22.95 5.99,-5.96 16.24,-7.4 23.22,-1.3 5.96,5.19 24.69,24.59 31.75,31.65 3.26,3.25 12.82,13.64 15.81,15.47 3.81,-2.19 39.7,-40.38 47.83,-47.35 5.89,-5.06 16.2,-5.22 22.95,1.53 5.88,5.87 7.44,16.35 1.29,23.21 -6.71,7.48 -45.19,44.38 -47.1,47.57 2.24,3.73 40.4,39.73 47.34,47.83 5.91,6.9 4.23,17.19 -1.53,22.96 -5.89,5.89 -16.3,7.43 -23.21,1.28 -7.14,-6.36 -23.84,-23.75 -31.74,-31.65 -3.01,-3.01 -13.21,-13.95 -15.83,-15.45 -2.43,1.48 -33.93,33.57 -39.85,39.49 -2.54,2.54 -5.12,5.52 -8,7.85 -16.35,13.19 -37.35,-10.34 -24.22,-24.74 6.51,-7.15 45.33,-44.51 47.12,-47.57zm-105.83 6.14c2.69,69.74 63.18,128.43 136.93,124.65 19.46,-1 36.61,-5.83 51.9,-13.42 14.85,-7.36 18.53,-11.2 29.33,-19.77 1.57,-1.24 2.67,-2.72 4.09,-4.08 12.95,-12.42 22.67,-26.83 29.74,-43.87 35.1,-84.64 -28.14,-184.69 -127.31,-180.42 -70.56,3.03 -127.56,62.56 -124.68,136.91z"/>
    <path class="fil9" d="M-726.82 -1151.39c-1.79,3.06 -40.61,40.42 -47.12,47.57 -13.13,14.4 7.87,37.93 24.22,24.74 2.88,-2.33 5.46,-5.31 8,-7.85 5.92,-5.92 37.42,-38.01 39.85,-39.49 2.62,1.5 12.82,12.44 15.83,15.45 7.9,7.9 24.6,25.29 31.74,31.65 6.91,6.15 17.32,4.61 23.21,-1.28 5.76,-5.77 7.44,-16.06 1.53,-22.96 -6.94,-8.1 -45.1,-44.1 -47.34,-47.83 1.91,-3.19 40.39,-40.09 47.1,-47.57 6.15,-6.86 4.59,-17.34 -1.29,-23.21 -6.75,-6.75 -17.06,-6.59 -22.95,-1.53 -8.13,6.97 -44.02,45.16 -47.83,47.35 -2.99,-1.83 -12.55,-12.22 -15.81,-15.47 -7.06,-7.06 -25.79,-26.46 -31.75,-31.65 -6.98,-6.1 -17.23,-4.66 -23.22,1.3 -5.77,5.75 -7.47,16.08 -1.53,22.95 6.81,7.88 45.25,44.24 47.36,47.83z"/>
   </g>
  </g>
  <g id="_105553328162208">
   <path class="fil14" d="M-608.66 547.07c-26.37,10.11 -23.14,2.05 -43.4,3.32 -25.61,1.6 -15.41,5.75 -42.21,-3.03l0.16 62.22c9.68,-5.23 33.61,-27.78 43.56,-27.27 9.7,0.49 31.04,22.64 41.92,27.2l-0.03 -62.44zm-21.03 -148.89c-6.48,-6.5 -7.63,-13.86 -20.91,-14.51 -12.87,-0.63 -17.39,5.63 -20.57,14.61 -24.16,-1.51 -36.77,-3.82 -33.14,27.18 -22.82,8.61 -23.9,24.73 -8.82,40.89 -1.7,8.27 -6.35,16.97 -0.7,25.96 8.61,13.7 17.24,1.21 25.06,18.72 1.5,3.37 0.32,2.37 2.39,5.79 10.18,16.77 31.17,1.43 35.7,1.71 7.38,0.46 12.03,9.67 25.76,4.54 7.69,-2.88 8.85,-8.7 11.19,-13.73 6.88,-14.78 15.97,-3.52 24.73,-16.88 6.21,-9.47 1.04,-18.01 -0.75,-26.11 15.76,-16.12 13.28,-32.33 -8.81,-41 3.18,-26.5 -7.46,-30.39 -31.13,-27.17zm63.37 -130.37l-284.84 0.27 1.49 28.37 283.98 -0.46 -0.63 -28.18zm0.96 -85.64l-285.97 0.38 0.05 27.91 -2.54 0.35 288 -0.35 0.46 -28.29zm-348.64 428.33c-27.26,0.05 -37.51,4.52 -37.33,-25.8l0.06 -506.43c0,-73.23 -12.59,-67.37 60.09,-67.37l379.78 0c53.04,0 45.56,-9.36 45.56,81.9l0 379.77c0,152.11 15.55,137.93 -51.79,137.93 -20.46,0 -40.92,0 -61.39,0 -1.65,7.59 5.57,62.17 -28.47,37 -15.16,-11.21 -28.76,-22.51 -43.48,-33.01l-44.79 32.8c-8.62,6.45 -21.08,9.52 -25.61,-1.98 -3.36,-8.55 -0.1,-24.13 -2.54,-34.81l-190.09 0z"/>
   <path class="fil11" d="M-629.69 398.18c23.67,-3.22 34.31,0.67 31.13,27.17 22.09,8.67 24.57,24.88 8.81,41 1.79,8.1 6.96,16.64 0.75,26.11 -8.76,13.36 -17.85,2.1 -24.73,16.88 -2.34,5.03 -3.5,10.85 -11.19,13.73 -13.73,5.13 -18.38,-4.08 -25.76,-4.54 -4.53,-0.28 -25.52,15.06 -35.7,-1.71 -2.07,-3.42 -0.89,-2.42 -2.39,-5.79 -7.82,-17.51 -16.45,-5.02 -25.06,-18.72 -5.65,-8.99 -1,-17.69 0.7,-25.96 -15.08,-16.16 -14,-32.28 8.82,-40.89 -3.63,-31 8.98,-28.69 33.14,-27.18 3.18,-8.98 7.7,-15.24 20.57,-14.61 13.28,0.65 14.43,8.01 20.91,14.51z"/>
   <polygon class="fil6" points="-565.82,210.46 -853.82,210.81 -851.28,210.46 -851.33,182.55 -565.36,182.17 "/>
   <polygon class="fil6" points="-565.69,295.99 -849.67,296.45 -851.16,268.08 -566.32,267.81 "/>
   <path class="fil6" d="M-608.63 609.51c-10.88,-4.56 -32.22,-26.71 -41.92,-27.2 -9.95,-0.51 -33.88,22.04 -43.56,27.27l-0.16 -62.22c26.8,8.78 16.6,4.63 42.21,3.03 20.26,-1.27 17.03,6.79 43.4,-3.32l0.03 62.44z"/>
  </g>
  <path class="fil15" d="M-1760.28 746.61c-6.02,-26.92 24.02,-25.34 35.33,-25.29l121.05 0.01c19.4,0 42.07,-3.15 45.5,16.09 4.24,23.78 -17.31,24.48 -36.05,24.42 -20.17,-0.07 -40.35,-0.01 -60.52,-0.01 -20.17,-0.01 -40.34,0 -60.52,0 -19.71,0 -40.76,2.79 -44.79,-15.22zm0.01 -81.32c-4.77,-21.31 13.78,-25.41 31.53,-25.32 41.63,0.23 362.57,-1.41 372.35,0.8 6.7,1.52 13.7,7.53 15.02,15.52 3.49,21.11 -13.44,24.33 -31.78,24.25l-287.49 -0.04c-18.91,0 -37.83,0 -56.74,0 -19.31,0.01 -38.97,2.31 -42.89,-15.21zm93.81 -172.76c10.72,-3.97 162.23,-1.7 187.38,-1.69 62.29,0.03 56.52,-11.07 56.86,85.56 0.06,16.56 1.02,30.14 -12.56,34.78 -12.52,4.29 -161.99,1.61 -188.04,1.6 -62.3,-0.01 -56.52,11.03 -56.85,-85.55 -0.07,-18.39 -1.74,-29.17 13.21,-34.7zm168.8 350.59c-22.01,-71.59 27.48,-134.28 94.22,-135.31 38.84,-0.6 66.15,19.67 81.45,38.69 20.28,25.21 26.33,57.76 16.25,96.58 43.71,-3.52 46.22,-36.54 46.19,-66.21l-0.01 -226.95c0.01,-27.6 5.03,-86.49 -7.92,-105.71 -18.89,-28.06 -53.49,-21.1 -92.45,-21.12 -59.54,-0.03 -433.68,-2.91 -449.71,2.38 -34.56,11.38 -32.71,41.11 -32.7,80.96 0.01,75.64 0.04,151.3 0,226.94 -0.02,37.24 -6.9,76.45 15.97,97.66 20.29,18.83 69.84,12.15 101.43,12.15 75.65,0.01 151.68,0.74 227.28,-0.06z"/>
  <path class="fil16" d="M-1497.66 843.12l7.36 15.83 1.78 2.69c0.19,0.3 0.61,0.94 0.84,1.31 9.48,15 16.09,21.42 30.98,31.48 38.29,25.86 93.56,19.74 126.09,-12.58l16.77 -20.03 8.1 -18.74c10.08,-38.82 4.03,-71.37 -16.25,-96.58 -15.3,-19.02 -42.61,-39.29 -81.45,-38.69 -66.74,1.03 -116.23,63.72 -94.22,135.31z"/>
  <path class="fil6" d="M-1666.46 492.53c-14.95,5.53 -13.28,16.31 -13.21,34.7 0.33,96.58 -5.45,85.54 56.85,85.55 26.05,0.01 175.52,2.69 188.04,-1.6 13.58,-4.64 12.62,-18.22 12.56,-34.78 -0.34,-96.63 5.43,-85.53 -56.86,-85.56 -25.15,-0.01 -176.66,-2.28 -187.38,1.69z"/>
  <path class="fil12" d="M-1313.84 861.82l-16.77 20.03c-32.53,32.32 -87.8,38.44 -126.09,12.58 -14.89,-10.06 -21.5,-16.48 -30.98,-31.48 -0.23,-0.37 -0.65,-1.01 -0.84,-1.31l-1.78 -2.69c1.46,25.18 0.37,53.19 0.37,78.68 0,40 -10.08,92.29 18.63,94.22 14.74,0.99 49.35,-32.69 68.2,-44.35 16.29,8.37 54.22,44.62 69.54,44.35 11.8,-0.21 18.23,-7.05 19.54,-18.46l0.18 -151.57z"/>
  <path class="fil6" d="M-1760.27 665.29c3.92,17.52 23.58,15.22 42.89,15.21 18.91,0 37.83,0 56.74,0l287.49 0.04c18.34,0.08 35.27,-3.14 31.78,-24.25 -1.32,-7.99 -8.32,-14 -15.02,-15.52 -9.78,-2.21 -330.72,-0.57 -372.35,-0.8 -17.75,-0.09 -36.3,4.01 -31.53,25.32z"/>
  <path class="fil6" d="M-1760.28 746.61c4.03,18.01 25.08,15.22 44.79,15.22 20.18,0 40.35,-0.01 60.52,0 20.17,0 40.35,-0.06 60.52,0.01 18.74,0.06 40.29,-0.64 36.05,-24.42 -3.43,-19.24 -26.1,-16.09 -45.5,-16.09l-121.05 -0.01c-11.31,-0.05 -41.35,-1.63 -35.33,25.29z"/>
  <g id="_105553328164576">
   <path class="fil2" d="M-6260.38 383.27c-12.17,5.79 -18.37,4.91 -28.49,13.24 -34.44,28.34 -27.73,51.06 -27.77,97.14 -0.04,54.39 0.08,108.78 0,163.17 -0.04,25.09 -2.02,52.74 11.96,70.7 11.34,14.57 28.18,28.03 54.8,29.51 27.12,1.5 58.65,0.2 86.24,0.18 29.18,-0.02 58.37,0.02 87.55,0 56.11,-0.03 116.99,2.16 172.49,-0.11 27.4,-1.13 43.31,-14.12 55.52,-28.88 14.33,-17.33 12.51,-45.06 12.55,-70.15 0.08,-54.39 -0.03,-108.78 0,-163.17 0.03,-45.92 6.63,-69.91 -27.09,-97.8 -11,-9.09 -16.21,-7.61 -29.18,-13.83 -26.68,-0.2 -58.66,0.22 -85.24,-1.09l-198.09 -0.01c-26.55,1.35 -58.51,0.87 -85.25,1.1z"/>
   <path class="fil2" d="M-6260.38 383.27c26.74,-0.23 58.7,0.25 85.25,-1.1 -0.05,-23.51 -0.01,-47.01 -0.01,-70.51 0.01,-25.05 -1.1,-40.12 8.78,-61.57 33.69,-73.16 146.83,-73.11 180.54,0 9.87,21.39 8.78,36.56 8.78,61.57 -0.01,23.5 0.02,47.01 0,70.52 26.58,1.31 58.56,0.89 85.24,1.09 -2.61,-23.99 1.24,-76.89 -1.15,-109.27 -2.32,-31.39 -15.42,-60.37 -30.23,-81.92 -26.06,-37.92 -80.79,-77.36 -152.94,-77.37 -99.85,-0.02 -175.93,74.86 -183.01,158.03 -3.03,35.56 2.41,76.39 -1.25,110.53z"/>
   <path class="fil0" d="M-6107.59 588.73c-1.81,19.76 -6.01,41.35 -9.06,61.17 -1.75,11.3 -3.86,20.15 5.5,25.05 6.66,3.49 26.23,1.94 35.06,1.95 31.39,0.01 45.54,5.95 40.69,-27.03 -2.98,-20.22 -7.13,-41.08 -9.08,-61.12 23.02,-8.75 46.55,-40.62 36.88,-75.81 -12.76,-46.44 -71.56,-66.82 -112.31,-35.67 -6.05,4.63 -10.21,8.11 -14.94,14.73 -3.82,5.33 -7.44,12.91 -9.47,19.93 -10.3,35.62 13.24,67.98 36.73,76.8z"/>
  </g>
  <path class="fil2" d="M-1518.04 1894.19c-12.17,5.79 -18.37,4.91 -28.49,13.24 -34.44,28.34 -27.73,51.06 -27.77,97.14 -0.04,54.39 0.08,108.78 0,163.17 -0.04,25.09 -2.02,52.74 11.96,70.7 11.34,14.57 28.18,28.03 54.8,29.51 27.12,1.5 58.65,0.2 86.24,0.18 29.18,-0.02 58.37,0.02 87.55,0 56.11,-0.03 116.99,2.16 172.49,-0.11 27.4,-1.13 43.31,-14.12 55.52,-28.88 14.33,-17.33 12.51,-45.06 12.55,-70.15 0.08,-54.39 -0.03,-108.78 0,-163.17 0.03,-45.92 6.63,-69.91 -27.09,-97.8 -11,-9.09 -16.21,-7.61 -29.18,-13.83 -26.68,-0.2 -58.66,0.22 -85.24,-1.09l-198.09 -0.01c-26.55,1.35 -58.51,0.87 -85.25,1.1z"/>
  <path class="fil2" d="M-1518.04 1894.19c26.74,-0.23 58.7,0.25 85.25,-1.1 -0.05,-23.51 -0.01,-47.01 -0.01,-70.51 0.01,-25.05 -1.1,-40.12 8.78,-61.57 33.69,-73.16 146.83,-73.11 180.54,0 9.87,21.39 8.78,36.56 8.78,61.57 -0.01,23.5 0.02,47.01 0,70.52 26.58,1.31 58.56,0.89 85.24,1.09 -2.61,-23.99 1.24,-76.89 -1.15,-109.27 -2.32,-31.39 -15.42,-60.37 -30.23,-81.92 -26.06,-37.92 -80.79,-77.36 -152.94,-77.37 -99.85,-0.02 -175.93,74.86 -183.01,158.03 -3.03,35.56 2.41,76.39 -1.25,110.53z"/>
  <path class="fil0" d="M-1365.25 2099.65c-1.81,19.76 -6.01,41.35 -9.06,61.17 -1.75,11.3 -3.86,20.15 5.5,25.05 6.66,3.49 26.23,1.94 35.06,1.95 31.39,0.01 45.54,5.95 40.69,-27.03 -2.98,-20.22 -7.13,-41.08 -9.08,-61.12 23.02,-8.75 46.55,-40.62 36.88,-75.81 -12.76,-46.44 -71.56,-66.82 -112.31,-35.67 -6.05,4.63 -10.21,8.11 -14.94,14.73 -3.82,5.33 -7.44,12.91 -9.47,19.93 -10.3,35.62 13.24,67.98 36.73,76.8z"/>
  <g id="_105553328202432">
   <path class="fil2" d="M-3995.94 -1029.23c-12.17,5.79 -18.37,4.91 -28.49,13.24 -34.44,28.34 -27.73,51.06 -27.77,97.14 -0.04,54.39 0.08,108.78 0,163.17 -0.04,25.09 -2.02,52.74 11.96,70.7 11.34,14.57 28.18,28.03 54.8,29.51 27.12,1.5 58.65,0.2 86.24,0.18 29.18,-0.02 58.37,0.02 87.55,0 56.11,-0.03 116.99,2.16 172.49,-0.11 27.4,-1.13 43.31,-14.12 55.52,-28.88 14.33,-17.33 12.51,-45.06 12.55,-70.15 0.08,-54.39 -0.03,-108.78 0,-163.17 0.03,-45.92 6.63,-69.91 -27.09,-97.8 -11,-9.09 -16.21,-7.61 -29.18,-13.83 -26.68,-0.2 -58.66,0.22 -85.24,-1.09l-198.09 -0.01c-26.55,1.35 -58.51,0.87 -85.25,1.1z"/>
   <path class="fil2" d="M-3995.94 -1029.23c26.74,-0.23 58.7,0.25 85.25,-1.1 -0.05,-23.51 -0.01,-47.01 -0.01,-70.51 0.01,-25.05 -1.1,-40.12 8.78,-61.57 33.69,-73.16 146.83,-73.11 180.54,0 9.87,21.39 8.78,36.56 8.78,61.57 -0.01,23.5 0.02,47.01 0,70.52 26.58,1.31 58.56,0.89 85.24,1.09 -2.61,-23.99 1.24,-76.89 -1.15,-109.27 -2.32,-31.39 -15.42,-60.37 -30.23,-81.92 -26.06,-37.92 -80.79,-77.36 -152.94,-77.37 -99.85,-0.02 -175.93,74.86 -183.01,158.03 -3.03,35.56 2.41,76.39 -1.25,110.53z"/>
   <path class="fil0" d="M-3843.15 -823.77c-1.81,19.76 -6.01,41.35 -9.06,61.17 -1.75,11.3 -3.86,20.15 5.5,25.05 6.66,3.49 26.23,1.94 35.06,1.95 31.39,0.01 45.54,5.95 40.69,-27.03 -2.98,-20.22 -7.13,-41.08 -9.08,-61.12 23.02,-8.75 46.55,-40.62 36.88,-75.81 -12.76,-46.44 -71.56,-66.82 -112.31,-35.67 -6.05,4.63 -10.21,8.11 -14.94,14.73 -3.82,5.33 -7.44,12.91 -9.47,19.93 -10.3,35.62 13.24,67.98 36.73,76.8z"/>
   <path class="fil4" d="M-3748.12 -799.79l-19.75 19.3c-6.61,6.55 -13.2,13.04 -20.02,19.59l-109.47 106.45c-1.67,1.62 -3.23,3 -5.1,4.74 -1.98,1.84 -3.04,3.67 -5.86,3.91 -3.14,-3.38 -2.92,-16.32 -3.37,-21.5 -0.93,-10.69 -5.1,-59.92 -6.32,-66.6 -40.39,-4.2 -63.82,-5.61 -103.37,-22.62 -76.15,-32.75 -122.61,-101.21 -138.67,-179.32 -0.89,-4.33 -3.54,-18.35 -3.13,-22.51 3.06,0.98 3.97,3.91 5.7,6.07 13.75,17.16 19.69,25.85 37.12,43.26 35.03,34.97 73.21,62.43 124.37,73.64 13.81,3.02 27.69,4.65 41.15,4.57 9.45,-0.05 28.01,-1.66 35.02,-5.21 0.83,-4.72 -0.58,-18.34 -0.81,-23.96l-2.25 -47.38c-0.3,-6.26 -2.08,-18.47 0.97,-23.11 4.78,0.46 38.33,27.01 44.63,31.84l129.16 98.84z"/>
   <g>
    <path class="fil17" d="M-3726.99 -1090.72c29.31,-10.08 43.94,30.39 16.23,39.36 -29.43,9.52 -45.01,-29.46 -16.23,-39.36zm-58.58 -98.05c1.2,-53.65 75.68,-78.98 117.73,-45.44 15.68,12.51 33.09,35.97 20.53,67.17 -7.88,19.57 -28.69,36.15 -54.47,39.93l-0.01 24.49 -34.5 -0.06 0.33 -53.73c17.71,0.37 36.1,0.33 46.39,-9.2 11.49,-10.63 11.98,-27.27 3.45,-40.47 -11.67,-18.04 -62.42,-21.95 -62.91,22.41l-36.54 -5.1zm54.61 -112.16c-85.82,10.04 -144.4,86.42 -134.91,168.41 9.04,78.15 79.06,144.34 168.92,134.3 77.43,-8.64 144.22,-79.75 133.97,-168.4 -8.95,-77.44 -78.77,-144.74 -167.98,-134.31z"/>
    <path class="fil6" d="M-3785.57 -1188.77l36.54 5.1c0.49,-44.36 51.24,-40.45 62.91,-22.41 8.53,13.2 8.04,29.84 -3.45,40.47 -10.29,9.53 -28.68,9.57 -46.39,9.2l-0.33 53.73 34.5 0.06 0.01 -24.49c25.78,-3.78 46.59,-20.36 54.47,-39.93 12.56,-31.2 -4.85,-54.66 -20.53,-67.17 -42.05,-33.54 -116.53,-8.21 -117.73,45.44z"/>
    <path class="fil6" d="M-3726.99 -1090.72c-28.78,9.9 -13.2,48.88 16.23,39.36 27.71,-8.97 13.08,-49.44 -16.23,-39.36z"/>
   </g>
  </g>
  <g id="_105553328205120">
   <path class="fil2" d="M-3200.08 1697.03c-12.17,5.79 -18.37,4.91 -28.49,13.24 -34.44,28.34 -27.73,51.06 -27.77,97.14 -0.04,54.39 0.08,108.78 0,163.17 -0.04,25.09 -2.02,52.74 11.96,70.7 11.34,14.57 28.18,28.03 54.8,29.51 27.12,1.5 58.65,0.2 86.24,0.18 29.18,-0.02 58.37,0.02 87.55,0 56.11,-0.03 116.99,2.16 172.49,-0.11 27.4,-1.13 43.31,-14.12 55.52,-28.88 14.33,-17.33 12.51,-45.06 12.55,-70.15 0.08,-54.39 -0.03,-108.78 0,-163.17 0.03,-45.92 6.63,-69.91 -27.09,-97.8 -11,-9.09 -16.21,-7.61 -29.18,-13.83 -26.68,-0.2 -58.66,0.22 -85.24,-1.09l-198.09 -0.01c-26.55,1.35 -58.51,0.87 -85.25,1.1z"/>
   <path class="fil2" d="M-3200.08 1697.03c26.74,-0.23 58.7,0.25 85.25,-1.1 -0.05,-23.51 -0.01,-47.01 -0.01,-70.51 0.01,-25.05 -1.1,-40.12 8.78,-61.57 33.69,-73.16 146.83,-73.11 180.54,0 9.87,21.39 8.78,36.56 8.78,61.57 -0.01,23.5 0.02,47.01 0,70.52 26.58,1.31 58.56,0.89 85.24,1.09 -2.61,-23.99 1.24,-76.89 -1.15,-109.27 -2.32,-31.39 -15.42,-60.37 -30.23,-81.92 -26.06,-37.92 -80.79,-77.36 -152.94,-77.37 -99.85,-0.02 -175.93,74.86 -183.01,158.03 -3.03,35.56 2.41,76.39 -1.25,110.53z"/>
   <path class="fil0" d="M-3047.29 1902.49c-1.81,19.76 -6.01,41.35 -9.06,61.17 -1.75,11.3 -3.86,20.15 5.5,25.05 6.66,3.49 26.23,1.94 35.06,1.95 31.39,0.01 45.54,5.95 40.69,-27.03 -2.98,-20.22 -7.13,-41.08 -9.08,-61.12 23.02,-8.75 46.55,-40.62 36.88,-75.81 -12.76,-46.44 -71.56,-66.82 -112.31,-35.67 -6.05,4.63 -10.21,8.11 -14.94,14.73 -3.82,5.33 -7.44,12.91 -9.47,19.93 -10.3,35.62 13.24,67.98 36.73,76.8z"/>
   <g>
    <path class="fil17" d="M-2931.13 1635.54c29.31,-10.08 43.94,30.39 16.23,39.36 -29.43,9.52 -45.01,-29.46 -16.23,-39.36zm-58.58 -98.05c1.2,-53.65 75.68,-78.98 117.73,-45.44 15.68,12.51 33.09,35.97 20.53,67.17 -7.88,19.57 -28.69,36.15 -54.47,39.93l-0.01 24.49 -34.5 -0.06 0.33 -53.73c17.71,0.37 36.1,0.33 46.39,-9.2 11.49,-10.63 11.98,-27.27 3.45,-40.47 -11.67,-18.04 -62.42,-21.95 -62.91,22.41l-36.54 -5.1zm54.61 -112.16c-85.82,10.04 -144.4,86.42 -134.91,168.41 9.04,78.15 79.06,144.34 168.92,134.3 77.43,-8.64 144.22,-79.75 133.97,-168.4 -8.95,-77.44 -78.77,-144.74 -167.98,-134.31z"/>
    <path class="fil6" d="M-2989.71 1537.49l36.54 5.1c0.49,-44.36 51.24,-40.45 62.91,-22.41 8.53,13.2 8.04,29.84 -3.45,40.47 -10.29,9.53 -28.68,9.57 -46.39,9.2l-0.33 53.73 34.5 0.06 0.01 -24.49c25.78,-3.78 46.59,-20.36 54.47,-39.93 12.56,-31.2 -4.85,-54.66 -20.53,-67.17 -42.05,-33.54 -116.53,-8.21 -117.73,45.44z"/>
    <path class="fil6" d="M-2931.13 1635.54c-28.78,9.9 -13.2,48.88 16.23,39.36 27.71,-8.97 13.08,-49.44 -16.23,-39.36z"/>
   </g>
  </g>
  <path class="fil2" d="M784.9 -1035.28c-12.17,5.79 -18.37,4.91 -28.49,13.24 -34.44,28.34 -27.73,51.06 -27.77,97.14 -0.04,54.39 0.08,108.78 0,163.17 -0.04,25.09 -2.02,52.74 11.96,70.7 11.34,14.57 28.18,28.03 54.8,29.51 27.12,1.5 58.65,0.2 86.24,0.18 29.18,-0.02 58.37,0.02 87.55,0 56.11,-0.03 116.99,2.16 172.49,-0.11 27.4,-1.13 43.31,-14.12 55.52,-28.88 14.33,-17.33 12.51,-45.06 12.55,-70.15 0.08,-54.39 -0.03,-108.78 0,-163.17 0.03,-45.92 6.63,-69.91 -27.09,-97.8 -11,-9.09 -16.21,-7.61 -29.18,-13.83 -26.68,-0.2 -58.66,0.22 -85.24,-1.09l-198.09 -0.01c-26.55,1.35 -58.51,0.87 -85.25,1.1z"/>
  <path class="fil2" d="M784.9 -1035.28c26.74,-0.23 58.7,0.25 85.25,-1.1 -0.05,-23.51 -0.01,-47.01 -0.01,-70.51 0.01,-25.05 -1.1,-40.12 8.78,-61.57 33.69,-73.16 146.83,-73.11 180.54,0 9.87,21.39 8.78,36.56 8.78,61.57 -0.01,23.5 0.02,47.01 0,70.52 26.58,1.31 58.56,0.89 85.24,1.09 -2.61,-23.99 1.24,-76.89 -1.15,-109.27 -2.32,-31.39 -15.42,-60.37 -30.23,-81.92 -26.06,-37.92 -80.79,-77.36 -152.94,-77.37 -99.85,-0.02 -175.93,74.86 -183.01,158.03 -3.03,35.56 2.41,76.39 -1.25,110.53z"/>
  <path class="fil0" d="M937.69 -829.82c-1.81,19.76 -6.01,41.35 -9.06,61.17 -1.75,11.3 -3.86,20.15 5.5,25.05 6.66,3.49 26.23,1.94 35.06,1.95 31.39,0.01 45.54,5.95 40.69,-27.03 -2.98,-20.22 -7.13,-41.08 -9.08,-61.12 23.02,-8.75 46.55,-40.62 36.88,-75.81 -12.76,-46.44 -71.56,-66.82 -112.31,-35.67 -6.05,4.63 -10.21,8.11 -14.94,14.73 -3.82,5.33 -7.44,12.91 -9.47,19.93 -10.3,35.62 13.24,67.98 36.73,76.8z"/>
  <path class="fil4" d="M1032.72 -805.84l-19.75 19.3c-6.61,6.55 -13.2,13.04 -20.02,19.59l-109.47 106.45c-1.67,1.62 -3.23,3 -5.1,4.74 -1.98,1.84 -3.04,3.67 -5.86,3.91 -3.14,-3.38 -2.92,-16.32 -3.37,-21.5 -0.93,-10.69 -5.1,-59.92 -6.32,-66.6 -40.39,-4.2 -63.82,-5.61 -103.37,-22.62 -76.15,-32.75 -122.61,-101.21 -138.67,-179.32 -0.89,-4.33 -3.54,-18.35 -3.13,-22.51 3.06,0.98 3.97,3.91 5.7,6.07 13.75,17.16 19.69,25.85 37.12,43.26 35.03,34.97 73.21,62.43 124.37,73.64 13.81,3.02 27.69,4.65 41.15,4.57 9.45,-0.05 28.01,-1.66 35.02,-5.21 0.83,-4.72 -0.58,-18.34 -0.81,-23.96l-2.25 -47.38c-0.3,-6.26 -2.08,-18.47 0.97,-23.11 4.78,0.46 38.33,27.01 44.63,31.84l129.16 98.84z"/>
  <g id="_105553328228768">
   <path class="fil8" d="M1059.28 -1306.33c-80.53,4.71 -147.04,72.93 -142.19,159.19 4.52,80.32 73.26,146.83 159.31,141.95 80.07,-4.54 146.66,-73.08 141.84,-159.17 -4.49,-80.04 -73.24,-146.99 -158.96,-141.97z"/>
   <path class="fil18" d="M1046.28 -1233.23c-5.83,1.85 -5.25,6.51 -4.87,13.25 0.34,5.87 0.65,11.8 0.97,17.69 0.65,11.97 1.31,23.96 1.97,35.96 0.32,5.88 0.65,11.74 0.96,17.65 0.82,15.42 4.62,12.37 25.3,12.37 22.05,0 18.57,2.95 20.67,-35.35 0.66,-12.11 2.93,-42.94 2.93,-53.64 -0.01,-6.89 -3.85,-8.34 -10.63,-8.31 -5.94,0.02 -34.05,-0.65 -37.3,0.38z"/>
   <path class="fil18" d="M1061.98 -1124.65c-37.24,8.47 -23.91,62.34 11.87,54.59 13.16,-2.85 24.87,-16.66 21.07,-33.46 -2.98,-13.19 -16.21,-24.94 -32.94,-21.13z"/>
  </g>
  <g id="_105553328230656">
   <path class="fil2" d="M798.8 148.78c-12.17,5.79 -18.37,4.91 -28.49,13.24 -34.44,28.34 -27.73,51.06 -27.77,97.14 -0.04,54.39 0.08,108.78 0,163.17 -0.04,25.09 -2.02,52.74 11.96,70.7 11.34,14.57 28.18,28.03 54.8,29.51 27.12,1.5 58.65,0.2 86.24,0.18 29.18,-0.02 58.37,0.02 87.55,0 56.11,-0.03 116.99,2.16 172.49,-0.11 27.4,-1.13 43.31,-14.12 55.52,-28.88 14.33,-17.33 12.51,-45.06 12.55,-70.15 0.08,-54.39 -0.03,-108.78 0,-163.17 0.03,-45.92 6.63,-69.91 -27.09,-97.8 -11,-9.09 -16.21,-7.61 -29.18,-13.83 -26.68,-0.2 -58.66,0.22 -85.24,-1.09l-198.09 -0.01c-26.55,1.35 -58.51,0.87 -85.25,1.1z"/>
   <path class="fil2" d="M798.8 148.78c26.74,-0.23 58.7,0.25 85.25,-1.1 -0.05,-23.51 -0.01,-47.01 -0.01,-70.51 0.01,-25.05 -1.1,-40.12 8.78,-61.57 33.69,-73.16 146.83,-73.11 180.54,0 9.87,21.39 8.78,36.56 8.78,61.57 -0.01,23.5 0.02,47.01 0,70.52 26.58,1.31 58.56,0.89 85.24,1.09 -2.61,-23.99 1.24,-76.89 -1.15,-109.27 -2.32,-31.39 -15.42,-60.37 -30.23,-81.92 -26.06,-37.92 -80.79,-77.36 -152.94,-77.37 -99.85,-0.02 -175.93,74.86 -183.01,158.03 -3.03,35.56 2.41,76.39 -1.25,110.53z"/>
   <path class="fil0" d="M951.59 354.24c-1.81,19.76 -6.01,41.35 -9.06,61.17 -1.75,11.3 -3.86,20.15 5.5,25.05 6.66,3.49 26.23,1.94 35.06,1.95 31.39,0.01 45.54,5.95 40.69,-27.03 -2.98,-20.22 -7.13,-41.08 -9.08,-61.12 23.02,-8.75 46.55,-40.62 36.88,-75.81 -12.76,-46.44 -71.56,-66.82 -112.31,-35.67 -6.05,4.63 -10.21,8.11 -14.94,14.73 -3.82,5.33 -7.44,12.91 -9.47,19.93 -10.3,35.62 13.24,67.98 36.73,76.8z"/>
   <g>
    <path class="fil8" d="M1069.41 -118.51c-80.53,4.71 -147.04,72.93 -142.19,159.19 4.52,80.32 73.26,146.83 159.31,141.95 80.07,-4.54 146.66,-73.08 141.84,-159.17 -4.49,-80.04 -73.24,-146.99 -158.96,-141.97z"/>
    <path class="fil18" d="M1056.41 -45.41c-5.83,1.85 -5.25,6.51 -4.87,13.25 0.34,5.87 0.65,11.8 0.97,17.69 0.65,11.97 1.31,23.96 1.97,35.96 0.32,5.88 0.65,11.74 0.96,17.65 0.82,15.42 4.62,12.37 25.3,12.37 22.05,0 18.57,2.95 20.67,-35.35 0.66,-12.11 2.93,-42.94 2.93,-53.64 -0.01,-6.89 -3.85,-8.34 -10.63,-8.31 -5.94,0.02 -34.05,-0.65 -37.3,0.38z"/>
    <path class="fil18" d="M1072.11 63.17c-37.24,8.47 -23.91,62.34 11.87,54.59 13.16,-2.85 24.87,-16.66 21.07,-33.46 -2.98,-13.19 -16.21,-24.94 -32.94,-21.13z"/>
   </g>
  </g>
 </g>
</svg>
