<?xml version="1.0" encoding="UTF-8"?>
<svg xmlns="http://www.w3.org/2000/svg" xmlns:xlink="http://www.w3.org/1999/xlink" width="26px" height="px" viewBox="0 0 26 26" version="1.1">
<g id="surface1">
<path style=" stroke:none;fill-rule:evenodd;fill:rgb(27.058825%,35.294119%,38.82353%);fill-opacity:1;" d="M 5.925781 10.960938 C 5.457031 11.183594 5.21875 11.148438 4.832031 11.46875 C 3.507812 12.554688 3.765625 13.429688 3.765625 15.195312 C 3.761719 17.285156 3.769531 19.371094 3.765625 21.460938 C 3.761719 22.421875 3.6875 23.484375 4.222656 24.175781 C 4.660156 24.734375 5.304688 25.25 6.328125 25.304688 C 7.367188 25.363281 8.578125 25.3125 9.636719 25.3125 C 10.757812 25.3125 11.878906 25.3125 13 25.3125 C 15.152344 25.3125 17.488281 25.394531 19.621094 25.308594 C 20.671875 25.265625 21.28125 24.765625 21.75 24.199219 C 22.300781 23.535156 22.230469 22.472656 22.234375 21.507812 C 22.234375 19.421875 22.230469 17.332031 22.234375 15.246094 C 22.234375 13.480469 22.488281 12.5625 21.191406 11.492188 C 20.769531 11.140625 20.570312 11.199219 20.074219 10.960938 C 19.046875 10.953125 17.820312 10.96875 16.800781 10.917969 L 9.195312 10.917969 C 8.175781 10.96875 6.949219 10.949219 5.925781 10.960938 Z M 5.925781 10.960938 "/>
<path style=" stroke:none;fill-rule:evenodd;fill:rgb(27.058825%,35.294119%,38.82353%);fill-opacity:1;" d="M 5.925781 10.960938 C 6.949219 10.949219 8.175781 10.96875 9.195312 10.917969 C 9.195312 10.015625 9.195312 9.113281 9.195312 8.210938 C 9.195312 7.25 9.152344 6.671875 9.535156 5.847656 C 10.828125 3.039062 15.167969 3.039062 16.464844 5.847656 C 16.84375 6.667969 16.800781 7.25 16.800781 8.210938 C 16.800781 9.113281 16.800781 10.015625 16.800781 10.917969 C 17.820312 10.96875 19.046875 10.953125 20.074219 10.960938 C 19.972656 10.039062 20.121094 8.007812 20.027344 6.765625 C 19.941406 5.558594 19.4375 4.449219 18.867188 3.621094 C 17.867188 2.164062 15.765625 0.652344 12.996094 0.652344 C 9.164062 0.648438 6.246094 3.523438 5.972656 6.714844 C 5.855469 8.082031 6.066406 9.648438 5.925781 10.960938 Z M 5.925781 10.960938 "/>
<path style=" stroke:none;fill-rule:evenodd;fill:rgb(100%,100%,100%);fill-opacity:1;" d="M 11.789062 18.847656 C 11.71875 19.605469 11.558594 20.433594 11.441406 21.195312 C 11.375 21.628906 11.292969 21.96875 11.652344 22.15625 C 11.910156 22.289062 12.660156 22.230469 13 22.230469 C 14.203125 22.230469 14.746094 22.460938 14.558594 21.191406 C 14.445312 20.417969 14.285156 19.617188 14.210938 18.847656 C 15.09375 18.511719 16 17.289062 15.628906 15.9375 C 15.136719 14.15625 12.878906 13.371094 11.316406 14.566406 C 11.085938 14.746094 10.925781 14.878906 10.742188 15.132812 C 10.597656 15.335938 10.457031 15.628906 10.378906 15.898438 C 9.984375 17.265625 10.886719 18.507812 11.789062 18.847656 Z M 11.789062 18.847656 "/>
</g>
</svg>
