<svg id="Camada_1" data-name="Camada 1" xmlns="http://www.w3.org/2000/svg" xmlns:xlink="http://www.w3.org/1999/xlink" viewBox="0 0 20.87 22.57"><defs><style>.cls-1,.cls-2{fill:none;}.cls-2{stroke:#4d4d4d;stroke-linecap:round;stroke-linejoin:round;stroke-width:0;}.cls-3{fill:#4d4d4d;}.cls-4{fill:#e9b801;}.cls-5{fill:#63b22f;}</style><symbol id="Bloquear_2" data-name="Bloquear 2" viewBox="0 0 50 31.99"><path class="cls-1" d="M23.65,14l-2.41,7.05h7.52l-2.41-7a4,4,0,1,0-2.7,0Z"/><path class="cls-4" d="M0,2V30a2,2,0,0,0,2,2H48a2,2,0,0,0,2-2V2a2,2,0,0,0-1.89-2H1.89A2,2,0,0,0,0,2ZM25,6.27A4,4,0,0,1,26.35,14l2.41,7.05H21.24l2.41-7A4,4,0,0,1,25,6.27Z"/></symbol><symbol id="Bloquear" data-name="Bloquear" viewBox="0 0 36 31.89"><path class="cls-1" d="M29,17.92a11,11,0,0,0-22,0s0,0,0-.06v6.19H8.06v7.83H29v-14S29,17.9,29,17.92Z"/><line class="cls-2" x1="8.06" y1="31.88" x2="29" y2="31.88"/><path class="cls-3" d="M36,17.86a18,18,0,0,0-36,0H0v6.19H7V17.86s0,0,0,.06a11,11,0,0,1,22,0s0,0,0-.06v14h7v-14Z"/></symbol><symbol id="Seta_10" data-name="Seta 10" viewBox="0 0 62.88 47.87"><path class="cls-5" d="M18.13,11.76,0,29.74,17.83,47.86V38.58s37.43,10.61,43-21.22C56.74,20.6,34.34,32.54,18.13,20.6Z"/><path class="cls-5" d="M62.74,0s.91-.21-1.88,17.36c-3,2.83-14.31,7.92-22,8.14,0,0,10.55,1.48,11.2-25.5"/></symbol></defs><g id="Marcador_7_-_cinza" data-name="Marcador 7 - cinza"><use width="50" height="31.99" transform="translate(5.22 9.98) scale(0.31)" xlink:href="#Bloquear_2"/><use width="36" height="31.88" transform="translate(7.4 0) scale(0.31)" xlink:href="#Bloquear"/></g><use width="62.88" height="47.86" transform="matrix(-0.23, 0, 0, 0.23, 14.3, 11.69)" xlink:href="#Seta_10"/></svg>