<?xml version="1.0" encoding="UTF-8"?>
<svg xmlns="http://www.w3.org/2000/svg" xmlns:xlink="http://www.w3.org/1999/xlink" width="26px" height="px" viewBox="0 0 26 26" version="1.1">
<g id="surface1">
<path style=" stroke:none;fill-rule:evenodd;fill:rgb(27.058825%,35.294119%,38.82353%);fill-opacity:1;" d="M 8.046875 10.796875 C 7.578125 11.015625 7.339844 10.984375 6.953125 11.304688 C 5.628906 12.390625 5.886719 13.261719 5.886719 15.03125 C 5.882812 17.121094 5.890625 19.207031 5.886719 21.296875 C 5.882812 22.257812 5.808594 23.320312 6.34375 24.007812 C 6.78125 24.570312 7.425781 25.085938 8.449219 25.140625 C 9.488281 25.199219 10.699219 25.148438 11.757812 25.148438 C 12.878906 25.148438 14 25.148438 15.121094 25.148438 C 17.273438 25.148438 19.609375 25.230469 21.742188 25.144531 C 22.792969 25.101562 23.402344 24.601562 23.871094 24.035156 C 24.421875 23.371094 24.351562 22.308594 24.355469 21.34375 C 24.355469 19.257812 24.351562 17.167969 24.355469 15.082031 C 24.355469 13.316406 24.609375 12.398438 23.3125 11.324219 C 22.890625 10.976562 22.691406 11.035156 22.195312 10.796875 C 21.167969 10.789062 19.941406 10.804688 18.921875 10.753906 L 11.316406 10.753906 C 10.300781 10.804688 9.070312 10.785156 8.046875 10.796875 Z M 8.046875 10.796875 "/>
<path style=" stroke:none;fill-rule:evenodd;fill:rgb(27.058825%,35.294119%,38.82353%);fill-opacity:1;" d="M 8.046875 10.796875 C 9.070312 10.785156 10.300781 10.804688 11.316406 10.753906 C 11.316406 9.851562 11.316406 8.949219 11.316406 8.046875 C 11.316406 7.085938 11.277344 6.507812 11.65625 5.683594 C 12.949219 2.875 17.289062 2.875 18.585938 5.683594 C 18.964844 6.503906 18.921875 7.085938 18.921875 8.046875 C 18.921875 8.949219 18.921875 9.851562 18.921875 10.753906 C 19.941406 10.804688 21.167969 10.789062 22.195312 10.796875 C 22.09375 9.875 22.242188 7.84375 22.148438 6.601562 C 22.0625 5.394531 21.558594 4.285156 20.988281 3.457031 C 19.988281 2 17.886719 0.488281 15.117188 0.488281 C 11.285156 0.484375 8.367188 3.359375 8.09375 6.550781 C 7.976562 7.917969 8.1875 9.484375 8.046875 10.796875 Z M 8.046875 10.796875 "/>
<path style=" stroke:none;fill-rule:evenodd;fill:rgb(100%,100%,100%);fill-opacity:1;" d="M 13.910156 18.683594 C 13.839844 19.441406 13.679688 20.269531 13.5625 21.03125 C 13.496094 21.464844 13.414062 21.804688 13.773438 21.992188 C 14.03125 22.125 14.78125 22.066406 15.121094 22.066406 C 16.324219 22.066406 16.867188 22.292969 16.683594 21.027344 C 16.566406 20.253906 16.40625 19.453125 16.332031 18.683594 C 17.21875 18.347656 18.121094 17.125 17.75 15.773438 C 17.257812 13.988281 15 13.207031 13.4375 14.402344 C 13.207031 14.582031 13.046875 14.714844 12.863281 14.96875 C 12.71875 15.171875 12.578125 15.464844 12.5 15.734375 C 12.105469 17.101562 13.007812 18.34375 13.910156 18.683594 Z M 13.910156 18.683594 "/>
<path style=" stroke:none;fill-rule:evenodd;fill:rgb(33.333334%,72.941178%,32.156864%);fill-opacity:1;" d="M 17.558594 19.601562 L 16.800781 20.34375 C 16.546875 20.59375 16.292969 20.84375 16.03125 21.09375 L 11.828125 25.179688 C 11.765625 25.242188 11.707031 25.296875 11.632812 25.363281 C 11.558594 25.433594 11.515625 25.503906 11.410156 25.511719 C 11.289062 25.382812 11.296875 24.886719 11.28125 24.6875 C 11.242188 24.277344 11.082031 22.386719 11.035156 22.132812 C 9.488281 21.96875 8.585938 21.917969 7.070312 21.261719 C 4.144531 20.007812 2.363281 17.378906 1.746094 14.378906 C 1.710938 14.214844 1.609375 13.675781 1.625 13.515625 C 1.742188 13.554688 1.777344 13.667969 1.84375 13.75 C 2.371094 14.40625 2.601562 14.742188 3.269531 15.410156 C 4.613281 16.753906 6.078125 17.804688 8.042969 18.238281 C 8.574219 18.351562 9.105469 18.414062 9.625 18.410156 C 9.984375 18.410156 10.699219 18.347656 10.96875 18.210938 C 11 18.03125 10.945312 17.507812 10.9375 17.292969 L 10.851562 15.472656 C 10.839844 15.234375 10.769531 14.765625 10.886719 14.585938 C 11.070312 14.605469 12.359375 15.621094 12.601562 15.808594 Z M 17.558594 19.601562 "/>
</g>
</svg>
