<svg id="Camada_1" data-name="Camada 1" xmlns="http://www.w3.org/2000/svg" xmlns:xlink="http://www.w3.org/1999/xlink" viewBox="0 0 15.92 20.34"><defs><style>.cls-1{fill:#706f6f;}.cls-2{font-size:16px;fill:#fff;font-family:OptaneBold, Optane;}</style><symbol id="Bloquear" data-name="Bloquear" viewBox="0 0 50 63.88"><path class="cls-1" d="M48,31.88H43v-14h0a18,18,0,0,0-36,0H7v14H2a2,2,0,0,0-2,2v28a2,2,0,0,0,2,2H48a2,2,0,0,0,2-2v-28A2,2,0,0,0,48,31.88Zm-34-14s0,0,0,.06a11,11,0,0,1,22,0s0,0,0-.06v14H14ZM28.76,53H21.24l2.41-7.05a4,4,0,1,1,2.7,0Z"/></symbol></defs><g id="Marcador_7_-_cinza" data-name="Marcador 7 - cinza"><text class="cls-2" transform="translate(5.38 16.1)">!</text><use width="50" height="63.88" transform="translate(0 0) scale(0.32)" xlink:href="#Bloquear"/></g></svg>