<svg id="Camada_1" data-name="Camada 1" xmlns="http://www.w3.org/2000/svg" xmlns:xlink="http://www.w3.org/1999/xlink" viewBox="0 0 24.78 23.12"><defs><style>.cls-1{fill:#706f6f;}.cls-2{fill:#63b22f;}.cls-3{font-size:16px;font-family:OptaneBold, Optane;}.cls-3,.cls-5{fill:#fff;}.cls-4{fill:#27348b;stroke:#1d1d1b;stroke-miterlimit:10;stroke-width:0.5px;}</style><symbol id="Bloquear" data-name="Bloquear" viewBox="0 0 50 63.88"><path class="cls-1" d="M48,31.88H43v-14h0a18,18,0,0,0-36,0H7v14H2a2,2,0,0,0-2,2v28a2,2,0,0,0,2,2H48a2,2,0,0,0,2-2v-28A2,2,0,0,0,48,31.88Zm-34-14s0,0,0,.06a11,11,0,0,1,22,0s0,0,0-.06v14H14ZM28.76,53H21.24l2.41-7.05a4,4,0,1,1,2.7,0Z"/></symbol><symbol id="Seta_10" data-name="Seta 10" viewBox="0 0 62.88 47.87"><path class="cls-2" d="M18.13,11.76,0,29.74,17.83,47.86V38.58s37.43,10.61,43-21.22C56.74,20.6,34.34,32.54,18.13,20.6Z"/><path class="cls-2" d="M62.74,0s.91-.21-1.88,17.36c-3,2.83-14.31,7.92-22,8.14,0,0,10.55,1.48,11.2-25.5"/></symbol></defs><g id="Marcador_7_-_cinza" data-name="Marcador 7 - cinza"><text class="cls-3" transform="translate(10.53 17.01)">!</text><use width="50" height="63.88" transform="translate(5.15 0.91) scale(0.32)" xlink:href="#Bloquear"/></g><use width="62.88" height="47.86" transform="matrix(-0.23, 0, 0, 0.23, 14.3, 12.24)" xlink:href="#Seta_10"/><g id="Interrogação"><circle class="cls-4" cx="19.12" cy="5.66" r="5.41"/><path class="cls-5" d="M17.26,7.2a2.15,2.15,0,0,1,.27-.57L18,6.09c.14-.16.25-.3.33-.41a1.72,1.72,0,0,0,.2-.38,1.23,1.23,0,0,0,.08-.44h0a.81.81,0,0,0-.16-.52.61.61,0,0,0-.47-.18.56.56,0,0,0-.45.2.9.9,0,0,0-.17.57H15.92a2.58,2.58,0,0,1,.27-1.1,1.66,1.66,0,0,1,.69-.7,2.14,2.14,0,0,1,1.05-.24A2.58,2.58,0,0,1,19,3.11a1.54,1.54,0,0,1,.69.62,1.91,1.91,0,0,1,.24,1h0a2.06,2.06,0,0,1-.11.68,2,2,0,0,1-.26.53,4.81,4.81,0,0,1-.41.52c-.15.2-.28.36-.37.49a2.37,2.37,0,0,0-.23.45,1.69,1.69,0,0,0-.09.56H17.14A2.19,2.19,0,0,1,17.26,7.2Zm-.11,1.53h1.34v1.34H17.15Z" transform="translate(1.06 -0.97)"/></g></svg>