<?xml version="1.0" encoding="UTF-8"?>
<svg xmlns="http://www.w3.org/2000/svg" xmlns:xlink="http://www.w3.org/1999/xlink" width="26px" height="px" viewBox="0 0 26 26" version="1.1">
<g id="surface1">
<path style=" stroke:none;fill-rule:evenodd;fill:rgb(27.058825%,35.294119%,38.82353%);fill-opacity:1;" d="M 5.757812 11.039062 C 5.292969 11.261719 5.054688 11.230469 4.664062 11.546875 C 3.34375 12.636719 3.601562 13.507812 3.601562 15.277344 C 3.597656 17.363281 3.601562 19.453125 3.601562 21.539062 C 3.597656 22.503906 3.523438 23.566406 4.058594 24.253906 C 4.496094 24.8125 5.140625 25.332031 6.164062 25.386719 C 7.203125 25.445312 8.414062 25.394531 9.472656 25.394531 C 10.59375 25.394531 11.714844 25.394531 12.832031 25.394531 C 14.988281 25.394531 17.324219 25.476562 19.453125 25.390625 C 20.507812 25.347656 21.117188 24.847656 21.585938 24.28125 C 22.136719 23.617188 22.066406 22.550781 22.066406 21.589844 C 22.070312 19.5 22.066406 17.414062 22.066406 15.324219 C 22.070312 13.5625 22.320312 12.640625 21.027344 11.570312 C 20.605469 11.222656 20.40625 11.277344 19.90625 11.039062 C 18.882812 11.03125 17.65625 11.046875 16.636719 11 L 9.03125 10.996094 C 8.011719 11.050781 6.785156 11.03125 5.757812 11.039062 Z M 5.757812 11.039062 "/>
<path style=" stroke:none;fill-rule:evenodd;fill:rgb(27.058825%,35.294119%,38.82353%);fill-opacity:1;" d="M 5.757812 11.039062 C 6.785156 11.03125 8.011719 11.050781 9.03125 10.996094 C 9.03125 10.09375 9.03125 9.195312 9.03125 8.292969 C 9.03125 7.328125 8.988281 6.75 9.367188 5.929688 C 10.660156 3.121094 15.003906 3.121094 16.296875 5.929688 C 16.675781 6.75 16.636719 7.332031 16.636719 8.292969 C 16.636719 9.195312 16.636719 10.097656 16.636719 11 C 17.65625 11.046875 18.882812 11.03125 19.90625 11.039062 C 19.808594 10.121094 19.957031 8.089844 19.863281 6.847656 C 19.773438 5.640625 19.273438 4.527344 18.703125 3.699219 C 17.703125 2.246094 15.601562 0.730469 12.832031 0.730469 C 9 0.730469 6.078125 3.605469 5.808594 6.796875 C 5.691406 8.164062 5.898438 9.730469 5.757812 11.039062 Z M 5.757812 11.039062 "/>
<path style=" stroke:none;fill-rule:evenodd;fill:rgb(100%,100%,100%);fill-opacity:1;" d="M 11.625 18.925781 C 11.554688 19.683594 11.394531 20.515625 11.277344 21.273438 C 11.210938 21.707031 11.128906 22.046875 11.488281 22.238281 C 11.742188 22.371094 12.496094 22.3125 12.832031 22.3125 C 14.039062 22.3125 14.582031 22.539062 14.394531 21.273438 C 14.28125 20.496094 14.121094 19.695312 14.046875 18.925781 C 14.929688 18.589844 15.832031 17.367188 15.460938 16.019531 C 14.972656 14.234375 12.714844 13.453125 11.152344 14.648438 C 10.917969 14.824219 10.757812 14.960938 10.578125 15.214844 C 10.429688 15.417969 10.292969 15.710938 10.214844 15.980469 C 9.820312 17.347656 10.722656 18.589844 11.625 18.925781 Z M 11.625 18.925781 "/>
<path style=" stroke:none;fill-rule:evenodd;fill:rgb(0%,39.215687%,69.803923%);fill-opacity:1;" d="M 16.082031 8.679688 C 17.207031 8.292969 17.769531 9.847656 16.707031 10.191406 C 15.578125 10.554688 14.980469 9.058594 16.082031 8.679688 Z M 13.835938 4.917969 C 13.878906 2.855469 16.738281 1.882812 18.355469 3.171875 C 18.957031 3.652344 19.625 4.550781 19.140625 5.75 C 18.839844 6.5 18.039062 7.136719 17.050781 7.28125 L 17.050781 8.222656 L 15.726562 8.222656 L 15.738281 6.160156 C 16.417969 6.171875 17.125 6.171875 17.519531 5.804688 C 17.960938 5.398438 17.980469 4.757812 17.652344 4.25 C 17.203125 3.558594 15.257812 3.410156 15.238281 5.113281 Z M 15.929688 0.609375 C 12.636719 0.996094 10.386719 3.929688 10.753906 7.074219 C 11.097656 10.074219 13.785156 12.617188 17.238281 12.230469 C 20.207031 11.898438 22.773438 9.167969 22.378906 5.765625 C 22.035156 2.792969 19.355469 0.210938 15.929688 0.609375 Z M 15.929688 0.609375 "/>
<path style=" stroke:none;fill-rule:evenodd;fill:rgb(99.607843%,99.607843%,99.607843%);fill-opacity:1;" d="M 13.835938 4.917969 L 15.238281 5.113281 C 15.257812 3.410156 17.203125 3.558594 17.652344 4.25 C 17.980469 4.757812 17.960938 5.398438 17.519531 5.804688 C 17.125 6.171875 16.417969 6.171875 15.738281 6.160156 L 15.726562 8.222656 L 17.050781 8.222656 L 17.050781 7.28125 C 18.039062 7.136719 18.839844 6.5 19.140625 5.75 C 19.625 4.550781 18.957031 3.652344 18.355469 3.171875 C 16.738281 1.882812 13.878906 2.855469 13.835938 4.917969 Z M 13.835938 4.917969 "/>
<path style=" stroke:none;fill-rule:evenodd;fill:rgb(99.607843%,99.607843%,99.607843%);fill-opacity:1;" d="M 16.082031 8.679688 C 14.980469 9.058594 15.578125 10.554688 16.707031 10.191406 C 17.769531 9.847656 17.207031 8.292969 16.082031 8.679688 Z M 16.082031 8.679688 "/>
</g>
</svg>
