<?xml version="1.0" encoding="UTF-8"?>
<svg xmlns="http://www.w3.org/2000/svg" xmlns:xlink="http://www.w3.org/1999/xlink" width="26px" height="px" viewBox="0 0 26 26" version="1.1">
<g id="surface1">
<path style=" stroke:none;fill-rule:evenodd;fill:rgb(27.058825%,35.294119%,38.82353%);fill-opacity:1;" d="M 7.878906 10.875 C 7.414062 11.097656 7.175781 11.066406 6.785156 11.382812 C 5.464844 12.472656 5.722656 13.34375 5.722656 15.113281 C 5.71875 17.199219 5.722656 19.289062 5.722656 21.375 C 5.71875 22.339844 5.644531 23.402344 6.179688 24.089844 C 6.617188 24.648438 7.261719 25.167969 8.285156 25.222656 C 9.324219 25.28125 10.535156 25.230469 11.59375 25.230469 C 12.714844 25.230469 13.835938 25.230469 14.953125 25.230469 C 17.109375 25.230469 19.445312 25.3125 21.574219 25.226562 C 22.628906 25.183594 23.238281 24.683594 23.707031 24.117188 C 24.257812 23.453125 24.1875 22.386719 24.1875 21.425781 C 24.191406 19.335938 24.1875 17.25 24.1875 15.160156 C 24.191406 13.398438 24.441406 12.476562 23.148438 11.40625 C 22.726562 11.058594 22.527344 11.113281 22.027344 10.875 C 21.003906 10.867188 19.777344 10.882812 18.757812 10.835938 L 11.152344 10.835938 C 10.132812 10.886719 8.90625 10.867188 7.878906 10.875 Z M 7.878906 10.875 "/>
<path style=" stroke:none;fill-rule:evenodd;fill:rgb(27.058825%,35.294119%,38.82353%);fill-opacity:1;" d="M 7.878906 10.875 C 8.90625 10.867188 10.132812 10.886719 11.152344 10.835938 C 11.152344 9.929688 11.152344 9.03125 11.152344 8.128906 C 11.152344 7.164062 11.109375 6.585938 11.488281 5.765625 C 12.78125 2.957031 17.125 2.957031 18.417969 5.765625 C 18.796875 6.585938 18.757812 7.167969 18.757812 8.128906 C 18.757812 9.03125 18.757812 9.933594 18.757812 10.835938 C 19.777344 10.882812 21.003906 10.867188 22.027344 10.875 C 21.929688 9.957031 22.078125 7.925781 21.984375 6.683594 C 21.894531 5.476562 21.394531 4.363281 20.824219 3.539062 C 19.824219 2.082031 17.722656 0.566406 14.953125 0.566406 C 11.121094 0.566406 8.199219 3.441406 7.929688 6.632812 C 7.8125 8 8.019531 9.566406 7.878906 10.875 Z M 7.878906 10.875 "/>
<path style=" stroke:none;fill-rule:evenodd;fill:rgb(100%,100%,100%);fill-opacity:1;" d="M 13.746094 18.761719 C 13.675781 19.523438 13.515625 20.351562 13.398438 21.109375 C 13.332031 21.542969 13.25 21.882812 13.609375 22.074219 C 13.863281 22.207031 14.617188 22.148438 14.953125 22.148438 C 16.160156 22.148438 16.703125 22.375 16.515625 21.109375 C 16.402344 20.332031 16.242188 19.53125 16.167969 18.765625 C 17.050781 18.429688 17.953125 17.203125 17.582031 15.855469 C 17.09375 14.070312 14.835938 13.289062 13.273438 14.484375 C 13.039062 14.664062 12.878906 14.796875 12.699219 15.050781 C 12.550781 15.253906 12.414062 15.546875 12.335938 15.816406 C 11.941406 17.183594 12.84375 18.425781 13.746094 18.761719 Z M 13.746094 18.761719 "/>
<path style=" stroke:none;fill-rule:evenodd;fill:rgb(33.333334%,72.941178%,32.156864%);fill-opacity:1;" d="M 17.394531 19.683594 L 16.636719 20.425781 C 16.382812 20.675781 16.128906 20.925781 15.867188 21.175781 L 11.664062 25.261719 C 11.601562 25.324219 11.539062 25.378906 11.46875 25.445312 C 11.394531 25.515625 11.351562 25.585938 11.242188 25.59375 C 11.125 25.464844 11.132812 24.96875 11.113281 24.769531 C 11.078125 24.359375 10.917969 22.46875 10.871094 22.210938 C 9.320312 22.050781 8.421875 21.996094 6.902344 21.34375 C 3.980469 20.085938 2.199219 17.460938 1.582031 14.460938 C 1.546875 14.292969 1.445312 13.757812 1.460938 13.597656 C 1.578125 13.632812 1.613281 13.746094 1.679688 13.828125 C 2.207031 14.488281 2.4375 14.824219 3.105469 15.492188 C 4.449219 16.832031 5.914062 17.886719 7.878906 18.316406 C 8.410156 18.433594 8.941406 18.496094 9.457031 18.492188 C 9.820312 18.492188 10.535156 18.429688 10.800781 18.292969 C 10.835938 18.113281 10.78125 17.589844 10.769531 17.371094 L 10.683594 15.554688 C 10.671875 15.3125 10.605469 14.84375 10.722656 14.667969 C 10.90625 14.683594 12.195312 15.703125 12.433594 15.890625 Z M 17.394531 19.683594 "/>
<path style=" stroke:none;fill-rule:evenodd;fill:rgb(100%,12.156863%,12.156863%);fill-opacity:1;" d="M 18.414062 0.472656 C 15.320312 0.652344 12.769531 3.269531 12.953125 6.582031 C 13.128906 9.664062 15.765625 12.21875 19.070312 12.03125 C 22.144531 11.855469 24.699219 9.226562 24.515625 5.921875 C 24.34375 2.847656 21.703125 0.277344 18.414062 0.472656 Z M 18.414062 0.472656 "/>
<path style=" stroke:none;fill-rule:evenodd;fill:rgb(97.254902%,97.254902%,98.039216%);fill-opacity:1;" d="M 17.914062 3.277344 C 17.691406 3.347656 17.710938 3.527344 17.726562 3.785156 C 17.738281 4.011719 17.75 4.238281 17.765625 4.464844 C 17.789062 4.925781 17.816406 5.386719 17.839844 5.847656 C 17.851562 6.070312 17.863281 6.296875 17.875 6.523438 C 17.90625 7.113281 18.054688 7 18.847656 7 C 19.695312 7 19.5625 7.113281 19.640625 5.640625 C 19.667969 5.175781 19.753906 3.992188 19.753906 3.582031 C 19.753906 3.316406 19.605469 3.261719 19.34375 3.261719 C 19.117188 3.265625 18.039062 3.238281 17.914062 3.277344 Z M 17.914062 3.277344 "/>
<path style=" stroke:none;fill-rule:evenodd;fill:rgb(97.254902%,97.254902%,98.039216%);fill-opacity:1;" d="M 18.515625 7.445312 C 17.085938 7.769531 17.597656 9.839844 18.972656 9.542969 C 19.476562 9.433594 19.925781 8.902344 19.78125 8.257812 C 19.667969 7.75 19.160156 7.300781 18.515625 7.445312 Z M 18.515625 7.445312 "/>
</g>
</svg>
