<svg id="Camada_1" data-name="Camada 1" xmlns="http://www.w3.org/2000/svg" xmlns:xlink="http://www.w3.org/1999/xlink" viewBox="0 0 24.78 23.12"><defs><style>.cls-1{fill:#706f6f;}.cls-2{fill:#63b22f;}.cls-3{font-size:16px;font-family:OptaneBold, Optane;}.cls-3,.cls-5{fill:#fff;}.cls-4{fill:#e30613;stroke:#1d1d1b;stroke-miterlimit:10;stroke-width:0.5px;}</style><symbol id="Bloquear" data-name="Bloquear" viewBox="0 0 50 63.88"><path class="cls-1" d="M48,31.88H43v-14h0a18,18,0,0,0-36,0H7v14H2a2,2,0,0,0-2,2v28a2,2,0,0,0,2,2H48a2,2,0,0,0,2-2v-28A2,2,0,0,0,48,31.88Zm-34-14s0,0,0,.06a11,11,0,0,1,22,0s0,0,0-.06v14H14ZM28.76,53H21.24l2.41-7.05a4,4,0,1,1,2.7,0Z"/></symbol><symbol id="Seta_10" data-name="Seta 10" viewBox="0 0 62.88 47.87"><path class="cls-2" d="M18.13,11.76,0,29.74,17.83,47.86V38.58s37.43,10.61,43-21.22C56.74,20.6,34.34,32.54,18.13,20.6Z"/><path class="cls-2" d="M62.74,0s.91-.21-1.88,17.36c-3,2.83-14.31,7.92-22,8.14,0,0,10.55,1.48,11.2-25.5"/></symbol></defs><g id="Marcador_7_-_cinza" data-name="Marcador 7 - cinza"><text class="cls-3" transform="translate(10.53 17.01)">!</text><use width="50" height="63.88" transform="translate(5.15 0.91) scale(0.32)" xlink:href="#Bloquear"/></g><use width="62.88" height="47.86" transform="matrix(-0.23, 0, 0, 0.23, 14.3, 12.24)" xlink:href="#Seta_10"/><g id="intimacao_peticionar_resposta_negada"><circle class="cls-4" cx="19.12" cy="5.66" r="5.41"/><path class="cls-5" d="M19.15,3.94a11.23,11.23,0,0,1-.53,2.74l-.29,1.15h-.64L17.4,6.68a10.81,10.81,0,0,1-.53-2.74A1,1,0,0,1,18,2.81,1,1,0,0,1,19.15,3.94Zm-2.26,6A1.12,1.12,0,1,1,18,11,1.11,1.11,0,0,1,16.89,9.9Z" transform="translate(1.06 -0.97)"/></g></svg>