<?xml version="1.0" encoding="UTF-8"?>
<svg xmlns="http://www.w3.org/2000/svg" xmlns:xlink="http://www.w3.org/1999/xlink" width="22px" height="px" viewBox="0 0 22 22" version="1.1">
<g id="surface1">
<path style=" stroke:none;fill-rule:evenodd;fill:rgb(100%,12.156863%,12.156863%);fill-opacity:1;" d="M 10.789062 1.816406 C 10.019531 1.917969 9.738281 2.351562 9.433594 2.898438 C 7.414062 6.5 5.191406 10.144531 3.152344 13.765625 C 2.566406 14.804688 1.972656 15.8125 1.375 16.851562 C 1.050781 17.414062 0.632812 17.972656 0.628906 18.554688 C 0.621094 19.277344 1.085938 19.832031 1.585938 20.046875 C 2.109375 20.265625 3.246094 20.183594 3.894531 20.183594 C 8.785156 20.183594 13.671875 20.183594 18.558594 20.183594 C 19.300781 20.183594 20.175781 20.285156 20.699219 19.878906 C 21.113281 19.558594 21.53125 18.933594 21.3125 18.148438 C 21.230469 17.863281 21.039062 17.566406 20.90625 17.34375 L 18.660156 13.449219 C 17.441406 11.378906 16.277344 9.335938 15.082031 7.261719 C 14.480469 6.214844 13.882812 5.214844 13.289062 4.15625 C 13 3.644531 12.703125 3.109375 12.390625 2.601562 C 12.113281 2.15625 11.585938 1.710938 10.789062 1.816406 Z M 10.789062 1.816406 "/>
<path style=" stroke:none;fill-rule:evenodd;fill:rgb(100%,100%,100%);fill-opacity:1;" d="M 9.480469 6.90625 C 9.0625 7.039062 9.105469 7.367188 9.132812 7.847656 C 9.15625 8.265625 9.179688 8.683594 9.203125 9.101562 C 9.25 9.953125 9.292969 10.804688 9.339844 11.65625 C 9.363281 12.074219 9.386719 12.492188 9.410156 12.910156 C 9.46875 14.007812 9.738281 13.789062 11.207031 13.789062 C 12.773438 13.789062 12.527344 14 12.675781 11.28125 C 12.722656 10.417969 12.882812 8.230469 12.882812 7.46875 C 12.882812 6.980469 12.609375 6.875 12.128906 6.878906 C 11.707031 6.878906 9.710938 6.832031 9.480469 6.90625 Z M 9.480469 6.90625 "/>
<path style=" stroke:none;fill-rule:evenodd;fill:rgb(100%,100%,100%);fill-opacity:1;" d="M 10.59375 14.617188 C 7.949219 15.21875 8.894531 19.046875 11.4375 18.496094 C 12.371094 18.292969 13.203125 17.3125 12.933594 16.121094 C 12.722656 15.183594 11.78125 14.347656 10.59375 14.617188 Z M 10.59375 14.617188 "/>
</g>
</svg>
