<svg width="640" height="600" xmlns="http://www.w3.org/2000/svg">
 <title>Acesso-externo</title>

 <g>
  <title>Layer 1</title>
  <path id="svg_3" d="m9.74989,20.93939c0,-4.72164 3.96776,-8.6894 8.6894,-8.6894l437.94579,0c4.72164,0 8.6894,3.96776 8.6894,8.6894l0,561.33528c0,4.72164 -3.96776,8.6894 -8.6894,8.6894l-437.94579,0c-4.72164,0 -8.6894,-3.96776 -8.6894,-8.6894l0,-561.33528z" opacity="undefined" fill="#69b7ab"/>
  <path id="svg_4" d="m545.59301,340.6089c0,-12.33484 11.01408,-22.32608 24.61168,-22.32608c13.59762,0 24.61166,9.99124 24.61166,22.32608c0,12.33484 -11.01404,22.32608 -24.61166,22.32608c-13.59762,0 -24.61168,-9.99124 -24.61168,-22.32608zm82.74867,63.19706l0,-11.27531c0,-11.86328 -10.59572,-21.48188 -23.68106,-21.48188l-68.9881,0c-13.07777,0 -23.68105,9.6186 -23.68105,21.48188l0,11.27531c-0.02287,0.25593 -0.03814,0.51881 -0.03814,0.78512l0,64.94372c0,5.04622 4.50671,9.13437 10.06952,9.13437c5.5552,0 10.07331,-4.08817 10.07331,-9.13437l0,-63.9822l6.75239,0l0,73.12348l0.04956,0l0,103.32128c0,6.71674 6.01275,12.17454 13.42474,12.17454c7.41582,0 13.42474,-5.45088 13.42474,-12.17454l0,-103.32128l8.85705,0l0,103.32128c0,6.71674 6.01647,12.17454 13.42472,12.17454c7.41578,0 13.42471,-5.45088 13.42471,-12.17454l0,-103.32128l0.04194,0l0,-73.12348l6.7524,0l0,63.97872c0,5.04623 4.5181,9.13784 10.07332,9.13784c5.56288,0 10.06952,-4.09161 10.06952,-9.13784l0,-64.94371c-0.00378,-0.26977 -0.02669,-0.52573 -0.04957,-0.78167l0,0.00001z" fill="#ccd900"/>
  <g id="svg_18">
   <path id="svg_6" d="m77.96187,84.8065l60.8258,0l0,60.8258l-60.8258,0l0,-60.8258z" opacity="undefined" fill="#ffffff"/>
   <path id="svg_7" d="m204.87472,84.8065l60.8258,0l0,60.8258l-60.8258,0l0,-60.8258z" opacity="undefined" fill="#ffffff"/>
   <path id="svg_8" d="m332.17399,84.8065l60.8258,0l0,60.8258l-60.8258,0l0,-60.8258z" opacity="undefined" fill="#ffffff"/>
   <path id="svg_9" d="m77.96187,208.74054l60.8258,0l0,60.8258l-60.8258,0l0,-60.8258z" opacity="undefined" fill="#ffffff"/>
   <path id="svg_10" d="m204.87472,208.74054l60.8258,0l0,60.8258l-60.8258,0l0,-60.8258z" opacity="undefined" fill="#ffffff"/>
   <path id="svg_11" d="m332.17399,208.30609l60.8258,0l0,60.8258l-60.8258,0l0,-60.8258z" opacity="undefined" fill="#ffffff"/>
   <path id="svg_12" d="m77.52742,337.39064l60.8258,0l0,60.8258l-60.8258,0l0,-60.8258z" opacity="undefined" fill="#ffffff"/>
   <path id="svg_13" d="m204.44027,337.82509l60.8258,0l0,60.8258l-60.8258,0l0,-60.8258z" opacity="undefined" fill="#ffffff"/>
   <path id="svg_14" d="m332.17399,337.39064l60.8258,0l0,60.8258l-60.8258,0l0,-60.8258z" opacity="undefined" fill="#ffffff"/>
   <path id="svg_15" d="m78.39633,466.47518l60.8258,0l0,60.8258l-60.8258,0l0,-60.8258z" opacity="undefined" fill="#ffffff"/>
   <path id="svg_16" d="m204.87472,466.4752l60.8258,0l0,124.69298l-60.8258,0l0,-124.69298z" opacity="undefined" fill="#ffffff"/>
   <path id="svg_17" d="m332.60844,466.47518l60.8258,0l0,60.8258l-60.8258,0l0,-60.8258z" opacity="undefined" fill="#ffffff"/>
  </g>
  <path id="svg_20" d="m550.2653,16.99645c-47.32553,0 -84.66667,45.85958 -84.66667,45.85958s37.34114,45.86552 84.66667,45.86552c36.19343,0 84.66667,-45.86552 84.66667,-45.86552s-48.47323,-45.85958 -84.66667,-45.85958zm0,74.4371c-16.61348,0 -30.1476,-12.82332 -30.1476,-28.57752s13.53412,-28.57752 30.1476,-28.57752s30.1476,12.82927 30.1476,28.57752s-13.53412,28.57752 -30.1476,28.57752zm0,-45.25914c-9.71472,0 -17.59812,7.4669 -17.59812,16.68162c0,9.21472 7.87714,16.68162 17.59812,16.68162c9.72099,0 17.59812,-7.4669 17.59812,-16.68162c0,-9.20877 -7.87714,-16.68162 -17.59812,-16.68162z" fill="#42ac32"/>
  <line id="svg_23" y2="293.33334" x2="331.99992" y1="129.33334" x1="352.00018" fill="none"/>
  <g id="svg_28">
   <rect id="svg_24" height="180.33332" width="248.00001" y="120.66668" x="331.33342" fill="#003f7f"/>
   <path id="svg_22" d="m552.91443,138.69489l-195.17761,0l97.58881,58.05051l97.58881,-58.05051zm-91.8116,82.77996c-1.7932,1.06987 -3.7813,1.60888 -5.76941,1.60888s-3.97622,-0.53902 -5.77721,-1.60888l-99.47556,-59.15304l0,120.64999l210.50553,0l0,-120.64999l-99.48336,59.15304z" fill="#ffffff"/>
  </g>
 </g>
</svg>