<?xml version="1.0" encoding="UTF-8"?>
<!DOCTYPE svg PUBLIC "-//W3C//DTD SVG 1.1//EN" "http://www.w3.org/Graphics/SVG/1.1/DTD/svg11.dtd">
<!-- Creator: CorelDRAW -->
<svg xmlns="http://www.w3.org/2000/svg" xml:space="preserve" width="6.7732mm" height="6.7732mm" version="1.1" style="shape-rendering:geometricPrecision; text-rendering:geometricPrecision; image-rendering:optimizeQuality; fill-rule:evenodd; clip-rule:evenodd"
viewBox="0 0 677.32 677.32"
 xmlns:xlink="http://www.w3.org/1999/xlink"
 xmlns:xodm="http://www.corel.com/coreldraw/odm/2003">
 <defs>
  <style type="text/css">
   <![CDATA[
    .str0 {stroke:#E6E6E6;stroke-width:16.93;stroke-miterlimit:22.9256}
    .fil1 {fill:black}
    .fil12 {fill:#0064B2}
    .fil16 {fill:#00CCFF}
    .fil3 {fill:#455A63}
    .fil17 {fill:#4679C7}
    .fil18 {fill:#5280A5}
    .fil4 {fill:#55BA52}
    .fil8 {fill:#99CC99}
    .fil11 {fill:#CCCCCC}
    .fil5 {fill:#E6E6E6}
    .fil7 {fill:#F7F7F9}
    .fil14 {fill:#F8F8FA}
    .fil9 {fill:#FAC02D}
    .fil2 {fill:#FDC105}
    .fil10 {fill:#FED04B}
    .fil13 {fill:#FEFEFE}
    .fil6 {fill:#FF1F1F}
    .fil0 {fill:white}
    .fil15 {fill:#4A8DAC;fill-rule:nonzero}
   ]]>
  </style>
 </defs>
 <g id="Camada_x0020_1">
  <metadata id="CorelCorpID_0Corel-Layer"/>
  <rect class="fil0" x="-6671.74" y="-1303.86" width="10160" height="677.33"/>
  <path class="fil1" d="M-3038.24 -22760.37c-254.44,-22.91 -517.09,-78.85 -784.53,-103.45 -1210.73,-111.37 -2350.71,-9.41 -3469.08,408.02 -997.14,372.19 -1612.26,834.89 -2303.33,1455.79 -558.1,501.43 -1286.92,1502.57 -1607.26,2168.75 -82.08,170.71 -167.7,346.47 -245.76,516.19l-218.87 549.41c123.17,-40.83 585.4,-449.9 761.9,-582.15 774.99,-580.69 1661.63,-1093.77 2618.31,-1428.51 1141.58,-399.44 2285.01,-490.65 3507,-232.12 185.94,39.34 363.68,85.71 537.75,137.82 176.7,52.9 344.52,136.95 496.04,182.76 -29.19,289.29 -778.79,2567.09 -755.45,2751.31 147.25,35.73 616.75,-237.98 775.96,-310.43 266.77,-121.39 507.21,-239.98 772.13,-363.34 515.73,-240.17 1016.38,-472.32 1539.79,-711.76 515.48,-235.82 1022.71,-477.37 1545.49,-706.7l1169.01 -524.2c149.18,-64.23 305.19,-100.46 176.49,-296.61 -883.55,-1346.57 -1811.77,-2716.57 -2713.35,-4060.37 -202.42,-301.7 -594.09,-916.07 -793.23,-1187.7 -47.62,-64.96 -86.57,-96.54 -196.69,-80.87 -56.13,79.8 -340.25,1018.21 -403.2,1204.57 -136.02,402.62 -274.15,816.66 -409.12,1213.59z"/>
  <g id="_105553183200672">
   <g>
    <path class="fil2" d="M-3574.99 -1026.91c-12.17,5.79 -18.37,4.91 -28.49,13.24 -34.44,28.34 -27.73,51.06 -27.77,97.14 -0.04,54.39 0.08,108.78 0,163.17 -0.04,25.09 -2.02,52.74 11.96,70.7 11.34,14.57 28.18,28.03 54.8,29.51 27.12,1.5 58.65,0.2 86.24,0.18 29.18,-0.02 58.37,0.02 87.55,0 56.11,-0.03 116.99,2.16 172.49,-0.11 27.4,-1.13 43.31,-14.12 55.52,-28.88 14.33,-17.33 12.51,-45.06 12.55,-70.15 0.08,-54.39 -0.03,-108.78 0,-163.17 0.03,-45.92 6.63,-69.91 -27.09,-97.8 -11,-9.09 -16.21,-7.61 -29.18,-13.83 -26.68,-0.2 -58.66,0.22 -85.24,-1.09l-198.09 -0.01c-26.55,1.35 -58.51,0.87 -85.25,1.1z"/>
    <path class="fil3" d="M-3574.99 -1026.91c26.74,-0.23 58.7,0.25 85.25,-1.1 -0.05,-23.51 -0.01,-47.01 -0.01,-70.51 0.01,-25.05 -1.1,-40.12 8.78,-61.57 33.69,-73.16 146.83,-73.11 180.54,0 9.87,21.39 8.78,36.56 8.78,61.57 -0.01,23.5 0.02,47.01 0,70.52 26.58,1.31 58.56,0.89 85.24,1.09 -2.61,-23.99 1.24,-76.89 -1.15,-109.27 -2.32,-31.39 -15.42,-60.37 -30.23,-81.92 -26.06,-37.92 -80.79,-77.36 -152.94,-77.37 -99.85,-0.02 -175.93,74.86 -183.01,158.03 -3.03,35.56 2.41,76.39 -1.25,110.53z"/>
    <path class="fil3" d="M-3422.2 -821.45c-1.81,19.76 -6.01,41.35 -9.06,61.17 -1.75,11.3 -3.86,20.15 5.5,25.05 6.66,3.49 26.23,1.94 35.06,1.95 31.39,0.01 45.54,5.95 40.69,-27.03 -2.98,-20.22 -7.13,-41.08 -9.08,-61.12 23.02,-8.75 46.55,-40.62 36.88,-75.81 -12.76,-46.44 -71.56,-66.82 -112.31,-35.67 -6.05,4.63 -10.21,8.11 -14.94,14.73 -3.82,5.33 -7.44,12.91 -9.47,19.93 -10.3,35.62 13.24,67.98 36.73,76.8z"/>
   </g>
   <path class="fil4" d="M-3327.17 -797.47l-19.75 19.3c-6.61,6.55 -13.2,13.04 -20.02,19.59l-109.47 106.45c-1.67,1.62 -3.23,3 -5.1,4.74 -1.98,1.84 -3.04,3.67 -5.86,3.91 -3.14,-3.38 -2.92,-16.32 -3.37,-21.5 -0.93,-10.69 -5.1,-59.92 -6.32,-66.6 -40.39,-4.2 -63.82,-5.61 -103.37,-22.62 -76.15,-32.75 -122.61,-101.21 -138.67,-179.32 -0.89,-4.33 -3.54,-18.35 -3.13,-22.51 3.06,0.98 3.97,3.91 5.7,6.07 13.75,17.16 19.69,25.85 37.12,43.26 35.03,34.97 73.21,62.43 124.37,73.64 13.81,3.02 27.69,4.65 41.15,4.57 9.45,-0.05 28.01,-1.66 35.02,-5.21 0.83,-4.72 -0.58,-18.34 -0.81,-23.96l-2.25 -47.38c-0.3,-6.26 -2.08,-18.47 0.97,-23.11 4.78,0.46 38.33,27.01 44.63,31.84l129.16 98.84z"/>
  </g>
  <g id="_105553183229440">
   <path class="fil2" d="M-2931.52 -1043.84c-12.17,5.79 -18.37,4.91 -28.49,13.24 -34.44,28.34 -27.73,51.06 -27.77,97.14 -0.04,54.39 0.08,108.78 0,163.17 -0.04,25.09 -2.02,52.74 11.96,70.7 11.34,14.57 28.18,28.03 54.8,29.51 27.12,1.5 58.65,0.2 86.24,0.18 29.18,-0.02 58.37,0.02 87.55,0 56.11,-0.03 116.99,2.16 172.49,-0.11 27.4,-1.13 43.31,-14.12 55.52,-28.88 14.33,-17.33 12.51,-45.06 12.55,-70.15 0.08,-54.39 -0.03,-108.78 0,-163.17 0.03,-45.92 6.63,-69.91 -27.09,-97.8 -11,-9.09 -16.21,-7.61 -29.18,-13.83 -26.68,-0.2 -58.66,0.22 -85.24,-1.09l-198.09 -0.01c-26.55,1.35 -58.51,0.87 -85.25,1.1z"/>
   <path class="fil3" d="M-2845.96 -1143c0.7,-11.32 2.74,-21.6 8.46,-34.02 33.69,-73.16 146.83,-73.11 180.54,0 9.87,21.39 8.78,36.56 8.78,61.57 -0.01,23.5 0.02,47.01 0,70.52 26.58,1.31 58.56,0.89 85.24,1.09 -2.61,-23.99 1.24,-76.89 -1.15,-109.27 -2.32,-31.39 -15.42,-60.37 -30.23,-81.92 -26.06,-37.92 -80.79,-77.36 -152.94,-77.37 -99.85,-0.02 -175.93,74.86 -183.01,158.03 -0.32,3.74 -0.54,7.53 -0.69,11.37l85 0z"/>
   <path class="fil3" d="M-2778.73 -838.38c-1.81,19.76 -6.01,41.35 -9.06,61.17 -1.75,11.3 -3.86,20.15 5.5,25.05 6.66,3.49 26.23,1.94 35.06,1.95 31.39,0.01 45.54,5.95 40.69,-27.03 -2.98,-20.22 -7.13,-41.08 -9.08,-61.12 23.02,-8.75 46.55,-40.62 36.88,-75.81 -12.76,-46.44 -71.56,-66.82 -112.31,-35.67 -6.05,4.63 -10.21,8.11 -14.94,14.73 -3.82,5.33 -7.44,12.91 -9.47,19.93 -10.3,35.62 13.24,67.98 36.73,76.8z"/>
   <path class="fil4" d="M-2683.7 -814.4l-19.75 19.3c-6.61,6.55 -13.2,13.04 -20.02,19.59l-109.47 106.45c-1.67,1.62 -3.23,3 -5.1,4.74 -1.98,1.84 -3.04,3.67 -5.86,3.91 -3.14,-3.38 -2.92,-16.32 -3.37,-21.5 -0.93,-10.69 -5.1,-59.92 -6.32,-66.6 -40.39,-4.2 -63.82,-5.61 -103.37,-22.62 -76.15,-32.75 -122.61,-101.21 -138.67,-179.32 -0.89,-4.33 -3.54,-18.35 -3.13,-22.51 3.06,0.98 3.97,3.91 5.7,6.07 13.75,17.16 19.69,25.85 37.12,43.26 35.03,34.97 73.21,62.43 124.37,73.64 13.81,3.02 27.69,4.65 41.15,4.57 9.45,-0.05 28.01,-1.66 35.02,-5.21 0.83,-4.72 -0.58,-18.34 -0.81,-23.96l-2.25 -47.38c-0.3,-6.26 -2.08,-18.47 0.97,-23.11 4.78,0.46 38.33,27.01 44.63,31.84l129.16 98.84z"/>
  </g>
  <rect class="fil5 str0" x="-5748.89" y="-7137.4" width="677.33" height="677.33"/>
  <path class="fil6" d="M-7789.87 -6681.49c-9.41,-16.07 -181.29,-178.63 -211.73,-213.86 -26.54,-30.7 -18.95,-76.89 6.85,-102.58 26.78,-26.65 72.59,-33.08 103.84,-5.84 26.62,23.21 110.38,109.94 141.93,141.5 14.56,14.56 57.33,60.99 70.67,69.18 17.05,-9.79 177.51,-180.55 213.83,-211.71 26.34,-22.6 72.42,-23.31 102.62,6.85 26.27,26.24 33.27,73.12 5.75,103.79 -29.97,33.41 -202.03,198.39 -210.55,212.67 10.02,16.67 180.6,177.62 211.65,213.84 26.41,30.81 18.89,76.85 -6.85,102.61 -26.35,26.35 -72.87,33.23 -103.75,5.73 -31.93,-28.44 -106.61,-106.18 -141.94,-141.51 -13.45,-13.44 -59.04,-62.34 -70.76,-69.07 -10.86,6.62 -151.69,150.12 -178.14,176.57 -11.36,11.35 -22.92,24.68 -35.79,35.07 -73.09,59.01 -166.96,-46.19 -108.29,-110.59 29.12,-31.95 202.66,-198.99 210.66,-212.65zm-473.14 27.43c12.06,311.79 282.5,574.18 612.21,557.28 87.01,-4.46 163.66,-26.08 232.02,-59.98 66.37,-32.92 82.85,-50.07 131.13,-88.39 7,-5.55 11.92,-12.16 18.27,-18.24 57.91,-55.54 101.38,-119.95 132.99,-196.16 156.91,-378.38 -125.81,-825.66 -569.2,-806.61 -315.45,13.55 -570.27,279.73 -557.42,612.1z"/>
  <path class="fil7" d="M-7789.87 -6681.49c-8,13.66 -181.54,180.7 -210.66,212.65 -58.67,64.4 35.2,169.6 108.29,110.59 12.87,-10.39 24.43,-23.72 35.79,-35.07 26.45,-26.45 167.28,-169.95 178.14,-176.57 11.72,6.73 57.31,55.63 70.76,69.07 35.33,35.33 110.01,113.07 141.94,141.51 30.88,27.5 77.4,20.62 103.75,-5.73 25.74,-25.76 33.26,-71.8 6.85,-102.61 -31.05,-36.22 -201.63,-197.17 -211.65,-213.84 8.52,-14.28 180.58,-179.26 210.55,-212.67 27.52,-30.67 20.52,-77.55 -5.75,-103.79 -30.2,-30.16 -76.28,-29.45 -102.62,-6.85 -36.32,31.16 -196.78,201.92 -213.83,211.71 -13.34,-8.19 -56.11,-54.62 -70.67,-69.18 -31.55,-31.56 -115.31,-118.29 -141.93,-141.5 -31.25,-27.24 -77.06,-20.81 -103.84,5.84 -25.8,25.69 -33.39,71.88 -6.85,102.58 30.44,35.23 202.32,197.79 211.73,213.86z"/>
  <path class="fil8" d="M-417.09 -998.16l374.39 0 0 24.92 -374.38 0 -0.01 -24.92zm0 -55.74l0.55 -6.68 373.11 0.02 0.88 6.64 -0.15 18.29 -374.38 -0.01 -0.01 -18.26zm-0.1 -69.06l374.49 0.01 -0.24 24.92 -373.42 0 -0.83 -24.93zm-124.68 -79.32l0.01 456.92c0,15.03 19.32,34.15 34.27,34.15l177.75 -0.05 0.11 -37.92c-0.01,-14.88 -5.39,-5.87 -15.37,-28.13 -7.82,-17.44 -1.8,-27.29 -5.28,-39.91 -3.98,-14.46 -9.46,-19.54 -6.32,-38.74 3.81,-23.4 20.35,-34.47 23.82,-43.41 6.46,-16.66 7.42,-24.91 28.38,-38.66 12.95,-8.49 24.68,-5.67 34.84,-10.62 15.29,-7.46 36.58,-23.48 68.61,-5.34 7.07,4 6.01,5.88 14.53,7.4 55.59,9.94 47.44,36.11 59.94,54.2 4.09,5.93 11.51,7.52 18.38,26.97 9.6,27.17 -1.37,40.05 -7.34,52.76 -2.97,6.31 -1.16,12.85 -2.48,21.39 -5.69,36.88 -13.05,-8.72 -11.95,79.99l180.84 0.07c13.78,0 31.21,-20.52 31.21,-34.15l0 -456.92c0,-15.13 -16.67,-33 -31.79,-33l-560.36 0c-15.09,0 -31.8,17.93 -31.8,33z"/>
  <path class="fil9" d="M-259.95 -922.23c-23.33,-2.27 -36.77,5.87 -44.45,22.6 -7.46,16.22 3.45,11.42 -11.18,23.18 -5.82,4.68 -10.98,11.94 -13.15,21.53 -2.46,10.92 -0.26,19.21 4.51,27.66 8.56,15.14 0.96,9.2 1.52,26.23 0.94,28.48 27.11,31.63 32.06,36.3 4.34,4.09 1.93,9.32 13.47,19.24 23.48,20.18 39.48,-1.2 50.34,3.81 19.05,8.78 38.05,4.52 48.27,-12.27 10.86,-17.85 -1.52,-6.76 18.31,-16.1 15.84,-7.45 23.76,-24.13 18.08,-47.11 5.29,-8.6 16.82,-16.07 14.49,-34.25 -1.88,-14.61 -11.55,-24.78 -21.97,-28.79 0.05,-48.79 -43.46,-40.53 -47.78,-42.02 -11.41,-3.94 -23.17,-34.42 -62.52,-0.01z"/>
  <path class="fil10" d="M-302.17 -630.33c0,34.31 30.53,8.74 52.61,-4.11 27.96,-16.27 14.89,-17.99 59.22,8.85 36.94,22.35 37.91,17.89 37.91,-28.32 0,-30.48 0,-60.95 0,-91.43 -11.06,7.67 -4.36,13.57 -28,25.9 -12.77,6.65 -27.1,9.25 -43.13,5.45 -26.79,-6.37 -33.64,18.77 -78.27,-19.41l-0.34 103.07z"/>
  <g id="_105553183212960">
   <path class="fil2" d="M-2385.74 -1031.79c-12.17,5.79 -18.37,4.91 -28.49,13.24 -34.44,28.34 -27.73,51.06 -27.77,97.14 -0.04,54.39 0.08,108.78 0,163.17 -0.04,25.09 -2.02,52.74 11.96,70.7 11.34,14.57 28.18,28.03 54.8,29.51 27.12,1.5 58.65,0.2 86.24,0.18 29.18,-0.02 58.37,0.02 87.55,0 56.11,-0.03 116.99,2.16 172.49,-0.11 27.4,-1.13 43.31,-14.12 55.52,-28.88 14.33,-17.33 12.51,-45.06 12.55,-70.15 0.08,-54.39 -0.03,-108.78 0,-163.17 0.03,-45.92 6.63,-69.91 -27.09,-97.8 -11,-9.09 -16.21,-7.61 -29.18,-13.83 -26.68,-0.2 -58.66,0.22 -85.24,-1.09l-198.09 -0.01c-26.55,1.35 -58.51,0.87 -85.25,1.1z"/>
   <path class="fil3" d="M-2300.18 -1130.95c0.7,-11.32 2.74,-21.6 8.46,-34.02 33.69,-73.16 146.83,-73.11 180.54,0 9.87,21.39 8.78,36.56 8.78,61.57 -0.01,23.5 0.02,47.01 0,70.52 26.58,1.31 58.56,0.89 85.24,1.09 -2.61,-23.99 1.24,-76.89 -1.15,-109.27 -2.32,-31.39 -15.42,-60.37 -30.23,-81.92 -26.06,-37.92 -80.79,-77.36 -152.94,-77.37 -99.85,-0.02 -175.93,74.86 -183.01,158.03 -0.32,3.74 -0.54,7.53 -0.69,11.37l85 0z"/>
   <path class="fil3" d="M-2232.95 -826.33c-1.81,19.76 -6.01,41.35 -9.06,61.17 -1.75,11.3 -3.86,20.15 5.5,25.05 6.66,3.49 26.23,1.94 35.06,1.95 31.39,0.01 45.54,5.95 40.69,-27.03 -2.98,-20.22 -7.13,-41.08 -9.08,-61.12 23.02,-8.75 46.55,-40.62 36.88,-75.81 -12.76,-46.44 -71.56,-66.82 -112.31,-35.67 -6.05,4.63 -10.21,8.11 -14.94,14.73 -3.82,5.33 -7.44,12.91 -9.47,19.93 -10.3,35.62 13.24,67.98 36.73,76.8z"/>
  </g>
  <g id="_105553183224640">
   <path class="fil11" d="M-728.17 -1092.69c-15.29,2.46 -47.49,0.63 -64.61,0.63 -71.7,0.01 -65.99,6.2 -65.99,-65.24 0,-18.28 -1.76,-48.37 0.66,-65.23 11.77,12.81 126.42,128.07 129.94,129.84zm-163.25 388.22c-18.79,-31.5 -32.63,-63.57 -32,-110.35 0.55,-41.47 15.98,-82.65 35.25,-108.58 32.26,-43.41 76.18,-73.18 134.04,-80.79 28.69,-3.78 44.29,2.61 67.98,2.59 0.01,-30.6 -0.01,-61.2 0.04,-91.79 0.04,-25.55 -11.27,-29.66 -36.57,-54.98 -31.5,-31.52 -61.57,-61.66 -93.17,-93.11 -27.23,-27.09 -18.15,-23.19 -69.13,-23.19l-184.47 -0.04c-29.31,0.27 -47.66,16.19 -48.25,45.3 -3.05,150.92 0.26,310.15 -0.01,462.97 -0.12,68.83 57.86,52.75 132.99,52.76 22.87,0 73.72,2.7 93.3,-0.79z"/>
   <path class="fil4" d="M-749.09 -799.49c6.26,-8.92 48.21,-48.96 61.62,-62.44 5.67,-5.71 13.53,-16.46 27.17,-13.79 10.28,2.01 18.89,11.77 16.72,25.03 -1.87,11.36 -51.63,56.56 -60.9,65.83 -50.38,50.38 -41.8,51.69 -92.74,0.83 -5.13,-5.12 -16.4,-14.42 -17.9,-23.63 -2.13,-12.99 5.53,-22.26 16.04,-24.69 21.91,-5.07 35.24,25.53 49.99,32.86zm-5.49 -160.71c-74.97,13.5 -140.31,83.37 -123.21,176.01 13.47,73.07 84.12,137.23 174.85,121.33 73.29,-12.84 138.32,-83.54 122.44,-174.31 -12.83,-73.3 -83.83,-139.27 -174.08,-123.03z"/>
  </g>
  <g id="_105553183218816">
   <path class="fil2" d="M-1742.58 -1088.51c-8.56,4.07 -12.92,3.45 -20.03,9.31 -24.21,19.92 -19.5,35.89 -19.52,68.29 -0.03,38.24 0.05,76.48 -0.01,114.71 -0.02,17.64 -1.42,37.08 8.41,49.71 7.98,10.24 19.82,19.7 38.53,20.74 19.07,1.06 41.23,0.15 60.63,0.13 20.51,-0.01 41.03,0.01 61.55,0 39.45,-0.02 82.25,1.52 121.27,-0.08 19.26,-0.79 30.45,-9.92 39.03,-20.3 10.07,-12.19 8.8,-31.67 8.82,-49.32 0.06,-38.23 -0.02,-76.47 0,-114.71 0.02,-32.28 4.66,-49.15 -19.04,-68.75 -7.73,-6.4 -11.4,-5.36 -20.52,-9.73 -18.75,-0.14 -41.24,0.15 -59.93,-0.77l-139.26 -0.01c-18.66,0.96 -41.13,0.62 -59.93,0.78z"/>
   <path class="fil3" d="M-1682.43 -1158.22c0.49,-7.96 1.93,-15.19 5.95,-23.92 23.68,-51.43 103.22,-51.4 126.92,0 6.94,15.04 6.18,25.7 6.18,43.29 -0.01,16.52 0.01,33.05 0,49.57 18.68,0.92 41.17,0.63 59.92,0.77 -1.83,-16.87 0.87,-54.06 -0.81,-76.82 -1.63,-22.07 -10.84,-42.44 -21.25,-57.59 -18.32,-26.66 -56.8,-54.39 -107.52,-54.4 -70.2,-0.01 -123.69,52.63 -128.66,111.1 -0.23,2.63 -0.38,5.3 -0.49,8l59.76 0z"/>
   <path class="fil3" d="M-1635.17 -944.06c-1.27,13.89 -4.22,29.06 -6.37,43 -1.22,7.94 -2.71,14.16 3.87,17.61 4.69,2.45 18.44,1.37 24.65,1.37 22.07,0.01 32.01,4.18 28.6,-19 -2.09,-14.22 -5.01,-28.89 -6.38,-42.97 16.18,-6.15 32.73,-28.56 25.93,-53.3 -8.97,-32.64 -50.3,-46.97 -78.96,-25.07 -4.25,3.25 -7.17,5.7 -10.5,10.35 -2.68,3.75 -5.23,9.08 -6.65,14.01 -7.25,25.04 9.3,47.8 25.81,54z"/>
  </g>
  <path class="fil4" d="M-1557.16 -793.93l-18.02 17.62c-6.03,5.97 -12.05,11.9 -18.27,17.87l-99.9 97.14c-1.52,1.48 -2.94,2.74 -4.65,4.33 -1.81,1.68 -2.77,3.35 -5.35,3.57 -2.86,-3.09 -2.66,-14.9 -3.07,-19.62 -0.85,-9.76 -4.66,-54.68 -5.77,-60.78 -36.85,-3.83 -58.24,-5.12 -94.33,-20.64 -69.49,-29.89 -111.88,-92.35 -126.54,-163.63 -0.81,-3.95 -3.23,-16.75 -2.85,-20.54 2.79,0.89 3.62,3.56 5.2,5.53 12.54,15.67 17.96,23.59 33.87,39.48 31.97,31.91 66.81,56.96 113.49,67.19 12.61,2.77 25.27,4.25 37.56,4.18 8.62,-0.05 25.55,-1.52 31.95,-4.76 0.75,-4.31 -0.53,-16.73 -0.74,-21.86l-2.05 -43.24c-0.28,-5.71 -1.9,-16.85 0.89,-21.08 4.36,0.41 34.97,24.64 40.72,29.05l117.86 90.19z"/>
  <g id="_105553183227712">
   <path class="fil6" d="M-969.24 -1576.6c-1.92,-3.27 -37.01,-36.46 -43.22,-43.65 -5.42,-6.26 -3.87,-15.69 1.4,-20.93 5.46,-5.44 14.82,-6.76 21.19,-1.2 5.44,4.74 22.53,22.44 28.97,28.89 2.97,2.97 11.7,12.44 14.43,14.11 3.48,-1.99 36.23,-36.85 43.64,-43.21 5.38,-4.61 14.78,-4.75 20.95,1.4 5.36,5.36 6.79,14.93 1.17,21.19 -6.11,6.82 -41.23,40.49 -42.97,43.4 2.04,3.41 36.86,36.26 43.2,43.65 5.39,6.29 3.85,15.69 -1.4,20.95 -5.38,5.37 -14.87,6.78 -21.18,1.17 -6.52,-5.81 -21.76,-21.68 -28.97,-28.89 -2.74,-2.74 -12.05,-12.72 -14.44,-14.1 -2.22,1.35 -30.96,30.65 -36.36,36.04 -2.32,2.32 -4.68,5.04 -7.31,7.16 -14.92,12.05 -34.08,-9.43 -22.1,-22.57 5.94,-6.52 41.36,-40.62 43,-43.41zm-96.58 5.6c2.46,63.64 57.67,117.2 124.96,113.75 17.76,-0.91 33.41,-5.32 47.36,-12.24 13.55,-6.72 16.91,-10.22 26.77,-18.04 1.43,-1.14 2.43,-2.48 3.72,-3.73 11.82,-11.33 20.7,-24.48 27.15,-40.03 32.03,-77.24 -25.68,-168.53 -116.18,-164.64 -64.39,2.76 -116.4,57.09 -113.78,124.93z"/>
   <path class="fil7" d="M-969.24 -1576.6c-1.64,2.79 -37.06,36.89 -43,43.41 -11.98,13.14 7.18,34.62 22.1,22.57 2.63,-2.12 4.99,-4.84 7.31,-7.16 5.4,-5.39 34.14,-34.69 36.36,-36.04 2.39,1.38 11.7,11.36 14.44,14.1 7.21,7.21 22.45,23.08 28.97,28.89 6.31,5.61 15.8,4.2 21.18,-1.17 5.25,-5.26 6.79,-14.66 1.4,-20.95 -6.34,-7.39 -41.16,-40.24 -43.2,-43.65 1.74,-2.91 36.86,-36.58 42.97,-43.4 5.62,-6.26 4.19,-15.83 -1.17,-21.19 -6.17,-6.15 -15.57,-6.01 -20.95,-1.4 -7.41,6.36 -40.16,41.22 -43.64,43.21 -2.73,-1.67 -11.46,-11.14 -14.43,-14.11 -6.44,-6.45 -23.53,-24.15 -28.97,-28.89 -6.37,-5.56 -15.73,-4.24 -21.19,1.2 -5.27,5.24 -6.82,14.67 -1.4,20.93 6.21,7.19 41.3,40.38 43.22,43.65z"/>
  </g>
  <g id="_105553183223104">
   <path class="fil3" d="M-6565.18 -1022.2c-12.17,5.79 -18.37,4.91 -28.49,13.24 -34.44,28.34 -27.73,51.06 -27.77,97.14 -0.04,54.39 0.08,108.78 0,163.17 -0.04,25.09 -2.02,52.74 11.96,70.7 11.34,14.57 28.18,28.03 54.8,29.51 27.12,1.5 58.65,0.2 86.24,0.18 29.18,-0.02 58.37,0.02 87.55,0 56.11,-0.03 116.99,2.16 172.49,-0.11 27.4,-1.13 43.31,-14.12 55.52,-28.88 14.33,-17.33 12.51,-45.06 12.55,-70.15 0.08,-54.39 -0.03,-108.78 0,-163.17 0.03,-45.92 6.63,-69.91 -27.09,-97.8 -11,-9.09 -16.21,-7.61 -29.18,-13.83 -26.68,-0.2 -58.66,0.22 -85.24,-1.09l-198.09 -0.01c-26.55,1.35 -58.51,0.87 -85.25,1.1z"/>
   <path class="fil3" d="M-6565.18 -1022.2c26.74,-0.23 58.7,0.25 85.25,-1.1 -0.05,-23.51 -0.01,-47.01 -0.01,-70.51 0.01,-25.05 -1.1,-40.12 8.78,-61.57 33.69,-73.16 146.83,-73.11 180.54,0 9.87,21.39 8.78,36.56 8.78,61.57 -0.01,23.5 0.02,47.01 0,70.52 26.58,1.31 58.56,0.89 85.24,1.09 -2.61,-23.99 1.24,-76.89 -1.15,-109.27 -2.32,-31.39 -15.42,-60.37 -30.23,-81.92 -26.06,-37.92 -80.79,-77.36 -152.94,-77.37 -99.85,-0.02 -175.93,74.86 -183.01,158.03 -3.03,35.56 2.41,76.39 -1.25,110.53z"/>
   <path class="fil0" d="M-6412.39 -816.74c-1.81,19.76 -6.01,41.35 -9.06,61.17 -1.75,11.3 -3.86,20.15 5.5,25.05 6.66,3.49 26.23,1.94 35.06,1.95 31.39,0.01 45.54,5.95 40.69,-27.03 -2.98,-20.22 -7.13,-41.08 -9.08,-61.12 23.02,-8.75 46.55,-40.62 36.88,-75.81 -12.76,-46.44 -71.56,-66.82 -112.31,-35.67 -6.05,4.63 -10.21,8.11 -14.94,14.73 -3.82,5.33 -7.44,12.91 -9.47,19.93 -10.3,35.62 13.24,67.98 36.73,76.8z"/>
  </g>
  <g id="_105553179818272">
   <path class="fil3" d="M-4269.82 -1040.81c-12.17,5.79 -18.37,4.91 -28.49,13.24 -34.44,28.34 -27.73,51.06 -27.77,97.14 -0.04,54.39 0.08,108.78 0,163.17 -0.04,25.09 -2.02,52.74 11.96,70.7 11.34,14.57 28.18,28.03 54.8,29.51 27.12,1.5 58.65,0.2 86.24,0.18 29.18,-0.02 58.37,0.02 87.55,0 56.11,-0.03 116.99,2.16 172.49,-0.11 27.4,-1.13 43.31,-14.12 55.52,-28.88 14.33,-17.33 12.51,-45.06 12.55,-70.15 0.08,-54.39 -0.03,-108.78 0,-163.17 0.03,-45.92 6.63,-69.91 -27.09,-97.8 -11,-9.09 -16.21,-7.61 -29.18,-13.83 -26.68,-0.2 -58.66,0.22 -85.24,-1.09l-198.09 -0.01c-26.55,1.35 -58.51,0.87 -85.25,1.1z"/>
   <path class="fil3" d="M-4269.82 -1040.81c26.74,-0.23 58.7,0.25 85.25,-1.1 -0.05,-23.51 -0.01,-47.01 -0.01,-70.51 0.01,-25.05 -1.1,-40.12 8.78,-61.57 33.69,-73.16 146.83,-73.11 180.54,0 9.87,21.39 8.78,36.56 8.78,61.57 -0.01,23.5 0.02,47.01 0,70.52 26.58,1.31 58.56,0.89 85.24,1.09 -2.61,-23.99 1.24,-76.89 -1.15,-109.27 -2.32,-31.39 -15.42,-60.37 -30.23,-81.92 -26.06,-37.92 -80.79,-77.36 -152.94,-77.37 -99.85,-0.02 -175.93,74.86 -183.01,158.03 -3.03,35.56 2.41,76.39 -1.25,110.53z"/>
   <path class="fil0" d="M-4117.03 -835.35c-1.81,19.76 -6.01,41.35 -9.06,61.17 -1.75,11.3 -3.86,20.15 5.5,25.05 6.66,3.49 26.23,1.94 35.06,1.95 31.39,0.01 45.54,5.95 40.69,-27.03 -2.98,-20.22 -7.13,-41.08 -9.08,-61.12 23.02,-8.75 46.55,-40.62 36.88,-75.81 -12.76,-46.44 -71.56,-66.82 -112.31,-35.67 -6.05,4.63 -10.21,8.11 -14.94,14.73 -3.82,5.33 -7.44,12.91 -9.47,19.93 -10.3,35.62 13.24,67.98 36.73,76.8z"/>
   <path class="fil4" d="M-4022 -811.37l-19.75 19.3c-6.61,6.55 -13.2,13.04 -20.02,19.59l-109.47 106.45c-1.67,1.62 -3.23,3 -5.1,4.74 -1.98,1.84 -3.04,3.67 -5.86,3.91 -3.14,-3.38 -2.92,-16.32 -3.37,-21.5 -0.93,-10.69 -5.1,-59.92 -6.32,-66.6 -40.39,-4.2 -63.82,-5.61 -103.37,-22.62 -76.15,-32.75 -122.61,-101.21 -138.67,-179.32 -0.89,-4.33 -3.54,-18.35 -3.13,-22.51 3.06,0.98 3.97,3.91 5.7,6.07 13.75,17.16 19.69,25.85 37.12,43.26 35.03,34.97 73.21,62.43 124.37,73.64 13.81,3.02 27.69,4.65 41.15,4.57 9.45,-0.05 28.01,-1.66 35.02,-5.21 0.83,-4.72 -0.58,-18.34 -0.81,-23.96l-2.25 -47.38c-0.3,-6.26 -2.08,-18.47 0.97,-23.11 4.78,0.46 38.33,27.01 44.63,31.84l129.16 98.84z"/>
   <g>
    <path class="fil12" d="M-4000.87 -1102.3c29.31,-10.08 43.94,30.39 16.23,39.36 -29.43,9.52 -45.01,-29.46 -16.23,-39.36zm-58.58 -98.05c1.2,-53.65 75.68,-78.98 117.73,-45.44 15.68,12.51 33.09,35.97 20.53,67.17 -7.88,19.57 -28.69,36.15 -54.47,39.93l-0.01 24.49 -34.5 -0.06 0.33 -53.73c17.71,0.37 36.1,0.33 46.39,-9.2 11.49,-10.63 11.98,-27.27 3.45,-40.47 -11.67,-18.04 -62.42,-21.95 -62.91,22.41l-36.54 -5.1zm54.61 -112.16c-85.82,10.04 -144.4,86.42 -134.91,168.41 9.04,78.15 79.06,144.34 168.92,134.3 77.43,-8.64 144.22,-79.75 133.97,-168.4 -8.95,-77.44 -78.77,-144.74 -167.98,-134.31z"/>
    <path class="fil13" d="M-4059.45 -1200.35l36.54 5.1c0.49,-44.36 51.24,-40.45 62.91,-22.41 8.53,13.2 8.04,29.84 -3.45,40.47 -10.29,9.53 -28.68,9.57 -46.39,9.2l-0.33 53.73 34.5 0.06 0.01 -24.49c25.78,-3.78 46.59,-20.36 54.47,-39.93 12.56,-31.2 -4.85,-54.66 -20.53,-67.17 -42.05,-33.54 -116.53,-8.21 -117.73,45.44z"/>
    <path class="fil13" d="M-4000.87 -1102.3c-28.78,9.9 -13.2,48.88 16.23,39.36 27.71,-8.97 13.08,-49.44 -16.23,-39.36z"/>
   </g>
  </g>
  <path class="fil3" d="M-5536.88 -1029.23c-12.17,5.79 -18.37,4.91 -28.49,13.24 -34.44,28.34 -27.73,51.06 -27.77,97.14 -0.04,54.39 0.08,108.78 0,163.17 -0.04,25.09 -2.02,52.74 11.96,70.7 11.34,14.57 28.18,28.03 54.8,29.51 27.12,1.5 58.65,0.2 86.24,0.18 29.18,-0.02 58.37,0.02 87.55,0 56.11,-0.03 116.99,2.16 172.49,-0.11 27.4,-1.13 43.31,-14.12 55.52,-28.88 14.33,-17.33 12.51,-45.06 12.55,-70.15 0.08,-54.39 -0.03,-108.78 0,-163.17 0.03,-45.92 6.63,-69.91 -27.09,-97.8 -11,-9.09 -16.21,-7.61 -29.18,-13.83 -26.68,-0.2 -58.66,0.22 -85.24,-1.09l-198.09 -0.01c-26.55,1.35 -58.51,0.87 -85.25,1.1z"/>
  <path class="fil3" d="M-5536.88 -1029.23c26.74,-0.23 58.7,0.25 85.25,-1.1 -0.05,-23.51 -0.01,-47.01 -0.01,-70.51 0.01,-25.05 -1.1,-40.12 8.78,-61.57 33.69,-73.16 146.83,-73.11 180.54,0 9.87,21.39 8.78,36.56 8.78,61.57 -0.01,23.5 0.02,47.01 0,70.52 26.58,1.31 58.56,0.89 85.24,1.09 -2.61,-23.99 1.24,-76.89 -1.15,-109.27 -2.32,-31.39 -15.42,-60.37 -30.23,-81.92 -26.06,-37.92 -80.79,-77.36 -152.94,-77.37 -99.85,-0.02 -175.93,74.86 -183.01,158.03 -3.03,35.56 2.41,76.39 -1.25,110.53z"/>
  <path class="fil0" d="M-5384.09 -823.77c-1.81,19.76 -6.01,41.35 -9.06,61.17 -1.75,11.3 -3.86,20.15 5.5,25.05 6.66,3.49 26.23,1.94 35.06,1.95 31.39,0.01 45.54,5.95 40.69,-27.03 -2.98,-20.22 -7.13,-41.08 -9.08,-61.12 23.02,-8.75 46.55,-40.62 36.88,-75.81 -12.76,-46.44 -71.56,-66.82 -112.31,-35.67 -6.05,4.63 -10.21,8.11 -14.94,14.73 -3.82,5.33 -7.44,12.91 -9.47,19.93 -10.3,35.62 13.24,67.98 36.73,76.8z"/>
  <g id="_105553179292128">
   <path class="fil12" d="M-5250.99 -735.12c29.31,-10.08 43.94,30.39 16.23,39.36 -29.43,9.52 -45.01,-29.46 -16.23,-39.36zm-58.58 -98.05c1.2,-53.65 75.68,-78.98 117.73,-45.44 15.68,12.51 33.09,35.97 20.53,67.17 -7.88,19.57 -28.69,36.15 -54.47,39.93l-0.01 24.49 -34.5 -0.06 0.33 -53.73c17.71,0.37 36.1,0.33 46.39,-9.2 11.49,-10.63 11.98,-27.27 3.45,-40.47 -11.67,-18.04 -62.42,-21.95 -62.91,22.41l-36.54 -5.1zm54.61 -112.16c-85.82,10.04 -144.4,86.42 -134.91,168.41 9.04,78.15 79.06,144.34 168.92,134.3 77.43,-8.64 144.22,-79.75 133.97,-168.4 -8.95,-77.44 -78.77,-144.74 -167.98,-134.31z"/>
   <path class="fil13" d="M-5309.57 -833.17l36.54 5.1c0.49,-44.36 51.24,-40.45 62.91,-22.41 8.53,13.2 8.04,29.84 -3.45,40.47 -10.29,9.53 -28.68,9.57 -46.39,9.2l-0.33 53.73 34.5 0.06 0.01 -24.49c25.78,-3.78 46.59,-20.36 54.47,-39.93 12.56,-31.2 -4.85,-54.66 -20.53,-67.17 -42.05,-33.54 -116.53,-8.21 -117.73,45.44z"/>
   <path class="fil13" d="M-5250.99 -735.12c-28.78,9.9 -13.2,48.88 16.23,39.36 27.71,-8.97 13.08,-49.44 -16.23,-39.36z"/>
  </g>
  <path class="fil3" d="M-4893.98 -1039.82c-11.76,5.59 -17.75,4.74 -27.52,12.78 -33.25,27.36 -26.77,49.3 -26.81,93.79 -0.04,52.52 0.08,105.03 0,157.54 -0.04,24.23 -1.95,50.93 11.55,68.27 10.95,14.07 27.21,27.06 52.91,28.49 26.19,1.46 56.63,0.2 83.26,0.18 28.18,-0.02 56.36,0.01 84.54,0 54.18,-0.03 112.96,2.09 166.55,-0.11 26.45,-1.09 41.82,-13.63 53.6,-27.88 13.84,-16.74 12.08,-43.51 12.12,-67.73 0.07,-52.52 -0.03,-105.03 0,-157.55 0.03,-44.34 6.4,-67.5 -26.16,-94.42 -10.61,-8.79 -15.65,-7.36 -28.17,-13.36 -25.76,-0.19 -56.64,0.21 -82.31,-1.06l-191.25 -0.01c-25.64,1.31 -56.5,0.85 -82.31,1.07z"/>
  <path class="fil3" d="M-4893.98 -1039.82c25.81,-0.22 56.67,0.24 82.31,-1.07 -0.05,-22.69 -0.01,-45.39 -0.01,-68.08 0,-24.18 -1.07,-38.73 8.47,-59.45 32.53,-70.63 141.77,-70.58 174.32,0 9.53,20.66 8.48,35.31 8.47,59.45 0,22.7 0.02,45.39 0,68.09 25.67,1.27 56.55,0.87 82.31,1.06 -2.52,-23.17 1.19,-74.24 -1.12,-105.5 -2.24,-30.32 -14.88,-58.29 -29.18,-79.11 -25.16,-36.6 -78,-74.68 -147.66,-74.7 -96.42,-0.02 -169.88,72.29 -176.71,152.58 -2.92,34.34 2.33,73.76 -1.2,106.73z"/>
  <path class="fil0" d="M-4746.46 -841.44c-1.75,19.07 -5.8,39.92 -8.75,59.06 -1.69,10.91 -3.73,19.45 5.31,24.18 6.43,3.37 25.32,1.88 33.85,1.88 30.31,0.02 43.97,5.75 39.28,-26.09 -2.87,-19.53 -6.88,-39.67 -8.76,-59.02 22.22,-8.45 44.95,-39.21 35.61,-73.2 -12.32,-44.83 -69.09,-64.51 -108.44,-34.43 -5.84,4.46 -9.85,7.83 -14.43,14.22 -3.68,5.15 -7.17,12.47 -9.13,19.24 -9.95,34.39 12.77,65.64 35.46,74.16z"/>
  <path class="fil4" d="M-4654.71 -818.29l-19.07 18.64c-6.38,6.31 -12.75,12.59 -19.33,18.91l-105.7 102.77c-1.61,1.57 -3.11,2.91 -4.92,4.58 -1.91,1.79 -2.93,3.55 -5.66,3.78 -3.03,-3.26 -2.82,-15.76 -3.25,-20.75 -0.9,-10.33 -4.93,-57.86 -6.11,-64.31 -38.99,-4.06 -61.62,-5.42 -99.8,-21.85 -73.52,-31.62 -118.38,-97.71 -133.89,-173.13 -0.86,-4.18 -3.42,-17.72 -3.02,-21.73 2.95,0.94 3.83,3.77 5.5,5.86 13.27,16.57 19.01,24.95 35.84,41.76 33.83,33.77 70.69,60.28 120.09,71.1 13.33,2.92 26.73,4.49 39.73,4.42 9.12,-0.05 27.04,-1.6 33.81,-5.03 0.8,-4.56 -0.56,-17.71 -0.78,-23.13l-2.17 -45.76c-0.29,-6.04 -2.01,-17.83 0.93,-22.31 4.62,0.44 37.01,26.08 43.1,30.75l124.7 95.43z"/>
  <g id="_105553183310752">
   <path class="fil6" d="M-1510.7 -932.39c-77.75,4.55 -141.97,70.41 -137.28,153.7 4.36,77.56 70.73,141.77 153.81,137.06 77.31,-4.39 141.61,-70.56 136.95,-153.68 -4.33,-77.28 -70.71,-141.93 -153.48,-137.08z"/>
   <path class="fil14" d="M-1523.25 -861.81c-5.63,1.79 -5.07,6.29 -4.7,12.79 0.33,5.67 0.63,11.4 0.94,17.08 0.63,11.56 1.26,23.13 1.9,34.72 0.31,5.68 0.63,11.34 0.93,17.05 0.79,14.89 4.46,11.94 24.43,11.94 21.28,0 17.92,2.85 19.95,-34.13 0.64,-11.69 2.83,-41.46 2.83,-51.79 0,-6.65 -3.72,-8.06 -10.26,-8.03 -5.74,0.03 -32.88,-0.62 -36.02,0.37z"/>
   <path class="fil14" d="M-1508.09 -756.97c-35.95,8.18 -23.09,60.19 11.47,52.71 12.7,-2.76 24.01,-16.09 20.34,-32.31 -2.89,-12.74 -15.65,-24.08 -31.81,-20.4z"/>
  </g>
  <path class="fil3" d="M-6042.27 -1036.56c-12.17,5.79 -18.37,4.91 -28.49,13.24 -34.44,28.34 -27.73,51.06 -27.77,97.14 -0.04,54.39 0.08,108.78 0,163.17 -0.04,25.09 -2.02,52.74 11.96,70.7 11.34,14.57 28.18,28.03 54.8,29.51 27.12,1.5 58.65,0.2 86.24,0.18 29.18,-0.02 58.37,0.02 87.55,0 56.11,-0.03 116.99,2.16 172.49,-0.11 27.4,-1.13 43.31,-14.12 55.52,-28.88 14.33,-17.33 12.51,-45.06 12.55,-70.15 0.08,-54.39 -0.03,-108.78 0,-163.17 0.03,-45.92 6.63,-69.91 -27.09,-97.8 -11,-9.09 -16.21,-7.61 -29.18,-13.83 -26.68,-0.2 -58.66,0.22 -85.24,-1.09l-198.09 -0.01c-26.55,1.35 -58.51,0.87 -85.25,1.1z"/>
  <path class="fil3" d="M-6042.27 -1036.56c26.74,-0.23 58.7,0.25 85.25,-1.1 -0.05,-23.51 -0.01,-47.01 -0.01,-70.51 0.01,-25.05 -1.1,-40.12 8.78,-61.57 33.69,-73.16 146.83,-73.11 180.54,0 9.87,21.39 8.78,36.56 8.78,61.57 -0.01,23.5 0.02,47.01 0,70.52 26.58,1.31 58.56,0.89 85.24,1.09 -2.61,-23.99 1.24,-76.89 -1.15,-109.27 -2.32,-31.39 -15.42,-60.37 -30.23,-81.92 -26.06,-37.92 -80.79,-77.36 -152.94,-77.37 -99.85,-0.02 -175.93,74.86 -183.01,158.03 -3.03,35.56 2.41,76.39 -1.25,110.53z"/>
  <path class="fil0" d="M-5889.48 -831.1c-1.81,19.76 -6.01,41.35 -9.06,61.17 -1.75,11.3 -3.86,20.15 5.5,25.05 6.66,3.49 26.23,1.94 35.06,1.95 31.39,0.01 45.54,5.95 40.69,-27.03 -2.98,-20.22 -7.13,-41.08 -9.08,-61.12 23.02,-8.75 46.55,-40.62 36.88,-75.81 -12.76,-46.44 -71.56,-66.82 -112.31,-35.67 -6.05,4.63 -10.21,8.11 -14.94,14.73 -3.82,5.33 -7.44,12.91 -9.47,19.93 -10.3,35.62 13.24,67.98 36.73,76.8z"/>
  <g id="_105553183311136">
   <path class="fil6" d="M-5720.86 -948.25c-80.53,4.71 -147.04,72.93 -142.19,159.19 4.52,80.32 73.26,146.83 159.31,141.95 80.07,-4.54 146.66,-73.08 141.84,-159.17 -4.49,-80.04 -73.24,-146.99 -158.96,-141.97z"/>
   <path class="fil14" d="M-5733.86 -875.15c-5.83,1.85 -5.25,6.51 -4.87,13.25 0.34,5.87 0.65,11.8 0.97,17.69 0.65,11.97 1.31,23.96 1.97,35.96 0.32,5.88 0.65,11.74 0.96,17.65 0.82,15.42 4.62,12.37 25.3,12.37 22.05,0 18.57,2.95 20.67,-35.35 0.66,-12.11 2.93,-42.94 2.93,-53.64 -0.01,-6.89 -3.85,-8.34 -10.63,-8.31 -5.94,0.02 -34.05,-0.65 -37.3,0.38z"/>
   <path class="fil14" d="M-5718.16 -766.57c-37.24,8.47 -23.91,62.34 11.87,54.59 13.16,-2.85 24.87,-16.66 21.07,-33.46 -2.98,-13.19 -16.21,-24.94 -32.94,-21.13z"/>
  </g>
  <g id="_105553183323744">
   <g>
    <g>
     <path class="fil15" d="M1356.02 -1129.32l-238.43 149.02 -238.43 -149.02 0 -59.61 238.43 149.02 238.43 -149.02 0 59.61zm0 -119.22l-476.86 0c-33.08,0 -59.61,26.53 -59.61,59.61l0 357.64c0.01,32.9 26.71,59.6 59.62,59.6l476.85 0.01c32.91,-0.01 59.61,-26.71 59.61,-59.62l0 -357.64c0,-33.08 -26.82,-59.61 -59.61,-59.61l0 0.01z"/>
    </g>
    <path class="fil16" d="M982.12 -793.58l18.67 18.25c6.25,6.18 12.49,12.33 18.93,18.52l103.5 100.64c1.58,1.53 3.05,2.84 4.82,4.48 1.88,1.75 2.87,3.47 5.54,3.7 2.97,-3.2 2.76,-15.44 3.19,-20.32 0.88,-10.11 4.82,-56.66 5.98,-62.97 38.17,-3.98 60.33,-5.31 97.73,-21.39 71.99,-30.97 115.91,-95.69 131.1,-169.53 0.84,-4.1 3.34,-17.36 2.95,-21.29 -2.89,0.92 -3.75,3.7 -5.38,5.74 -13,16.23 -18.61,24.44 -35.1,40.9 -33.12,33.06 -69.21,59.02 -117.58,69.62 -13.06,2.86 -26.18,4.4 -38.91,4.33 -8.93,-0.05 -26.48,-1.58 -33.1,-4.93 -0.79,-4.47 0.54,-17.34 0.76,-22.65l2.12 -44.81c0.29,-5.91 1.97,-17.46 -0.91,-21.84 -4.52,0.43 -36.24,25.54 -42.2,30.11l-122.11 93.44z"/>
   </g>
   <g id="_105553183320224">
    <path class="fil6" d="M1272.61 -1269.98c-80.53,4.71 -147.04,72.93 -142.19,159.19 4.52,80.32 73.26,146.83 159.31,141.95 80.07,-4.54 146.66,-73.08 141.84,-159.17 -4.49,-80.04 -73.24,-146.99 -158.96,-141.97z"/>
    <path class="fil14" d="M1259.61 -1196.88c-5.83,1.85 -5.25,6.51 -4.87,13.25 0.34,5.87 0.65,11.8 0.97,17.69 0.65,11.97 1.31,23.96 1.97,35.96 0.32,5.88 0.65,11.74 0.96,17.65 0.82,15.42 4.62,12.37 25.3,12.37 22.05,0 18.57,2.95 20.67,-35.35 0.66,-12.11 2.93,-42.94 2.93,-53.64 -0.01,-6.89 -3.85,-8.34 -10.63,-8.31 -5.94,0.02 -34.05,-0.65 -37.3,0.38z"/>
    <path class="fil14" d="M1275.31 -1088.3c-37.24,8.47 -23.91,62.34 11.87,54.59 13.16,-2.85 24.87,-16.66 21.07,-33.46 -2.98,-13.19 -16.21,-24.94 -32.94,-21.13z"/>
   </g>
  </g>
  <g>
   <path class="fil17" d="M1651.61 -922.83l156.62 0 0 28.3 -156.62 0 0 -28.3zm0 -58.5l279.28 0 0 18.57c9.38,4.81 15.63,13.17 21.8,15.23 5.15,1.71 56.99,-7.8 56.94,48.42 6.47,2.4 12.7,6.74 17.5,12.73l0 -327.06c0,-19.17 -20.45,-39.63 -39.63,-39.63l-392.5 0c-19.18,0 -39.63,20.46 -39.63,39.63l0 392.51c0,19.17 20.45,39.63 39.63,39.63l219.83 0c-6.14,-5.75 -10.98,-14.03 -11.41,-26.6 -0.66,-19.62 8.39,-12.77 -1.81,-30.21 -5.69,-9.74 -8.31,-19.3 -5.37,-31.88 2.58,-11.05 8.73,-19.41 15.66,-24.8 17.44,-13.56 4.44,-8.02 13.32,-26.72 9.16,-19.27 25.18,-28.65 52.97,-26.03 2.39,-2.02 4.69,-3.84 6.92,-5.49l-233.5 0 0 -28.3zm0 -58.5l279.28 0 0 28.31 -279.28 0 0 -28.31zm279.28 -30.12l-279.28 0c-1.46,-1.82 -1.75,2.5 -2.12,-5.73l0.29 -23.83 -9.49 -0.63c91.21,0 203.74,-2.07 292.43,0.63l0.42 23.82c-0.54,9.05 -0.76,3.6 -2.25,5.74zm-281.37 -88.55l283.26 -0.44 0.07 29.87 -277.47 0.31 -5.73 -0.31 -0.13 -29.43zm370.16 358.48c4.59,-6.39 7.45,-13.74 7.45,-20.91l0 -16.4c-3.08,3.87 -6.32,7.28 -8.59,10.85 2.53,9.89 2.79,18.77 1.14,26.46z"/>
   <path class="fil9" d="M1885.8 -927.69c-22.14,-2.08 -34.89,5.39 -42.19,20.74 -7.08,14.89 3.28,10.48 -10.61,21.28 -5.52,4.29 -10.42,10.95 -12.48,19.76 -2.33,10.01 -0.25,17.63 4.29,25.38 8.12,13.9 0.9,8.44 1.44,24.07 0.88,26.14 25.72,29.03 30.42,33.32 4.12,3.75 1.84,8.55 12.79,17.65 22.29,18.52 37.47,-1.1 47.78,3.5 18.08,8.06 36.12,4.15 45.81,-11.26 10.31,-16.38 -1.44,-6.2 17.38,-14.77 15.03,-6.85 22.55,-22.15 17.16,-43.24 5.03,-7.89 15.97,-14.75 13.75,-31.44 -1.78,-13.4 -10.95,-22.74 -20.84,-26.41 0.04,-44.79 -41.26,-37.2 -45.36,-38.57 -10.83,-3.62 -21.99,-31.59 -59.34,-0.01z"/>
   <path class="fil9" d="M1845.73 -659.8c0,31.49 28.98,8.02 49.93,-3.77 26.54,-14.93 14.14,-16.51 56.22,8.12 35.06,20.52 35.98,16.42 35.97,-25.99 0,-27.97 0,-55.94 0,-83.9 -10.49,7.03 -4.13,12.44 -26.57,23.76 -12.12,6.11 -25.72,8.49 -40.93,5 -25.44,-5.84 -31.93,17.23 -74.3,-17.81l-0.32 94.59z"/>
  </g>
  <g>
   <g>
    <path class="fil15" d="M695.63 -1124.8l-238.43 149.02 -238.43 -149.02 0 -59.61 238.43 149.02 238.43 -149.02 0 59.61zm0 -119.22l-476.86 0c-33.08,0 -59.61,26.53 -59.61,59.61l0 357.64c0.01,32.9 26.71,59.6 59.62,59.6l476.85 0.01c32.91,-0.01 59.61,-26.71 59.61,-59.62l0 -357.64c0,-33.08 -26.82,-59.61 -59.61,-59.61l0 0.01z"/>
   </g>
   <path class="fil16" d="M321.73 -789.06l18.67 18.25c6.25,6.18 12.49,12.33 18.93,18.52l103.5 100.64c1.58,1.53 3.05,2.84 4.82,4.48 1.88,1.75 2.87,3.47 5.54,3.7 2.97,-3.2 2.76,-15.44 3.19,-20.32 0.88,-10.11 4.82,-56.66 5.98,-62.97 38.17,-3.98 60.33,-5.31 97.73,-21.39 71.99,-30.97 115.91,-95.69 131.1,-169.53 0.84,-4.1 3.34,-17.36 2.95,-21.29 -2.89,0.92 -3.75,3.7 -5.38,5.74 -13,16.23 -18.61,24.44 -35.1,40.9 -33.12,33.06 -69.21,59.02 -117.58,69.62 -13.06,2.86 -26.18,4.4 -38.91,4.33 -8.93,-0.05 -26.48,-1.58 -33.1,-4.93 -0.79,-4.47 0.54,-17.34 0.76,-22.65l2.12 -44.81c0.29,-5.91 1.97,-17.46 -0.91,-21.84 -4.52,0.43 -36.24,25.54 -42.2,30.11l-122.11 93.44z"/>
  </g>
  <g>
   <path class="fil11" d="M1176.39 -124.74c-15.29,2.46 -47.49,0.63 -64.61,0.63 -71.7,0.01 -65.99,6.2 -65.99,-65.24 0,-18.28 -1.76,-48.37 0.66,-65.23 11.77,12.81 126.42,128.07 129.94,129.84zm-163.25 388.22c-18.79,-31.5 -32.63,-63.57 -32,-110.35 0.55,-41.47 15.98,-82.65 35.25,-108.58 32.26,-43.41 76.18,-73.18 134.04,-80.79 28.69,-3.78 44.29,2.61 67.98,2.59 0.01,-30.6 -0.01,-61.2 0.04,-91.79 0.04,-25.55 -11.27,-29.66 -36.57,-54.98 -31.5,-31.52 -61.57,-61.66 -93.17,-93.11 -27.23,-27.09 -18.15,-23.19 -69.13,-23.19l-184.47 -0.04c-29.31,0.27 -47.66,16.19 -48.25,45.3 -3.05,150.92 0.26,310.15 -0.01,462.97 -0.12,68.83 57.86,52.75 132.99,52.76 22.87,0 73.72,2.7 93.3,-0.79z"/>
   <path class="fil4" d="M1155.47 168.46c6.26,-8.92 48.21,-48.96 61.62,-62.44 5.67,-5.71 13.53,-16.46 27.17,-13.79 10.28,2.01 18.89,11.77 16.72,25.03 -1.87,11.36 -51.63,56.56 -60.9,65.83 -50.38,50.38 -41.8,51.69 -92.74,0.83 -5.13,-5.12 -16.4,-14.42 -17.9,-23.63 -2.13,-12.99 5.53,-22.26 16.04,-24.69 21.91,-5.07 35.24,25.53 49.99,32.86zm-5.49 -160.71c-74.97,13.5 -140.31,83.37 -123.21,176.01 13.47,73.07 84.12,137.23 174.85,121.33 73.29,-12.84 138.32,-83.54 122.44,-174.31 -12.83,-73.3 -83.83,-139.27 -174.08,-123.03z"/>
  </g>
  <g>
   <path class="fil18" d="M70.46 107.78l0.03 425.56c-0.01,59.35 32.46,67.29 88.93,67.25 51.38,-0.03 105.45,1.65 156.44,-0.22 -3.72,-8.21 -29.8,-26.71 -45.69,-45.67 -7.53,-8.97 -13.84,-18.92 -18.79,-26.82 -32.28,-51.35 -24.6,-133.19 7.66,-183.12 40.31,-62.35 120.38,-97.55 188.57,-80.04 33.53,8.62 59.65,24.96 66.66,25.51l0.61 -69.32c0,-16.45 -7.86,-19.78 -15.59,-27.42l-133.37 -133.29c-8.95,-9.02 -12.48,-17.54 -28.72,-17.54l-202.02 0c-43.37,0 -64.72,22.43 -64.72,65.12zm249.88 129.36l146.95 0.53c-2.01,-12.21 -20.47,-26.55 -33.82,-40.22 -21.23,-21.68 -99.93,-103.66 -112.81,-109.24l-0.32 148.93z"/>
   <path class="fil18" d="M486.48 553.87c2.69,4.2 77.14,81.45 85.04,80.78 8.44,-4.34 31.13,-26.06 35.34,-33.96 -3.38,-9.71 -53.6,-57.19 -65.75,-69.28 -22.76,-22.63 -17.53,-12.34 -7.59,-39.3 19.36,-52.54 4.33,-113.08 -42.46,-147.67 -27.31,-20.18 -72.42,-27.61 -111.58,-16.82 -64.06,17.67 -109.88,96.58 -74.57,173.32 21.52,46.78 74.4,78.12 127.73,70.28 27.19,-3.99 33.53,-12.69 53.84,-17.35zm-82.91 -175.28c-12.44,5.95 -26.05,5.32 -42.56,27.8 -10.7,14.55 -15.72,33.71 -11.15,55.46 19.06,90.78 158.79,59.28 135.24,-32.8 -10.45,-40.82 -58.45,-61.5 -81.53,-50.46z"/>
  </g>
 </g>
</svg>
