<?xml version="1.0" encoding="UTF-8"?>
<svg xmlns="http://www.w3.org/2000/svg" xmlns:xlink="http://www.w3.org/1999/xlink" width="30px" height="32px" viewBox="0 0 30 31" version="1.1">
<g id="surface1">
<path style=" stroke:none;fill-rule:evenodd;fill:rgb(41.568628%,72.156864%,67.450982%);fill-opacity:1;" d="M 3.964844 1.496094 L 14.339844 1.496094 L 18.828125 5.878906 L 22.335938 9.300781 L 22.335938 20.234375 C 21.390625 19.078125 19.933594 18.339844 18.304688 18.339844 C 15.449219 18.339844 13.136719 20.601562 13.136719 23.390625 C 13.136719 24.976562 13.886719 26.394531 15.054688 27.320312 L 4.109375 27.320312 C 2.65625 27.320312 1.46875 26.15625 1.46875 24.734375 L 1.46875 3.941406 C 1.46875 2.597656 2.589844 1.496094 3.964844 1.496094 Z M 8.777344 11.867188 L 9.015625 11.867188 C 8.929688 11.796875 8.847656 11.804688 8.777344 11.867188 Z M 20.367188 10.601562 L 13.222656 3.425781 L 13.222656 10.601562 Z M 20.367188 10.601562 "/>
<path style=" stroke:none;fill-rule:evenodd;fill:rgb(99.607843%,64.313728%,0%);fill-opacity:1;" d="M 26.40625 17.882812 C 26.34375 17.902344 26.191406 17.910156 26.035156 17.957031 C 25.902344 18 25.78125 18.046875 25.648438 18.117188 C 25.101562 18.410156 24.078125 19.429688 23.601562 19.863281 C 23.164062 20.261719 21.3125 21.863281 20.800781 22.203125 C 20.605469 21.992188 20.433594 21.496094 20.136719 21.652344 C 19.964844 21.742188 19.90625 21.796875 19.71875 21.847656 C 19.582031 21.886719 19.449219 21.898438 19.324219 21.890625 C 18.59375 21.851562 18.355469 21.402344 17.96875 20.863281 C 17.867188 20.722656 17.765625 20.582031 17.660156 20.4375 C 17.5625 20.300781 17.476562 20.128906 17.335938 20.117188 C 17.191406 20.105469 17.054688 20.234375 16.917969 20.332031 L 15.601562 21.238281 C 15.453125 21.339844 15.300781 21.410156 15.285156 21.558594 C 15.265625 21.722656 15.429688 21.820312 15.503906 21.96875 C 15.5 21.984375 15.523438 21.972656 15.460938 22.015625 C 15.316406 22.121094 15.136719 22.230469 15 22.339844 L 20.140625 29.457031 L 20.652344 29.109375 C 20.769531 29.195312 20.808594 29.40625 20.972656 29.449219 C 21.128906 29.492188 21.222656 29.390625 21.382812 29.28125 L 22.699219 28.375 C 22.832031 28.28125 23.007812 28.191406 23.054688 28.058594 C 23.101562 27.925781 22.96875 27.789062 22.871094 27.65625 C 22.765625 27.511719 22.664062 27.363281 22.558594 27.21875 C 22.375 26.964844 22.117188 26.660156 22.019531 26.382812 C 21.929688 26.125 21.945312 25.839844 22.011719 25.628906 C 22.234375 24.925781 22.816406 25 22.515625 24.582031 C 22.421875 24.453125 22.285156 24.285156 22.207031 24.152344 C 22.328125 24.058594 23.375 23.453125 23.519531 23.375 C 24.449219 22.847656 25.167969 22.476562 26.113281 22 C 26.546875 21.777344 26.996094 21.566406 27.414062 21.308594 C 27.878906 21.023438 28.125 20.710938 28.296875 20.3125 C 28.644531 19.511719 28.335938 18.554688 27.550781 18.113281 C 27.390625 18.019531 27.152344 17.933594 27 17.910156 C 26.890625 17.894531 26.816406 17.882812 26.707031 17.875 C 26.65625 17.875 26.609375 17.871094 26.5625 17.875 C 26.539062 17.875 26.515625 17.875 26.484375 17.878906 Z M 26.40625 17.882812 "/>
</g>
</svg>
